<svg version="1.1" viewBox="0.0 0.0 744.0 461.0" fill="none" stroke="none" stroke-linecap="square" stroke-miterlimit="10" width="744" height="461" xmlns:xlink="http://www.w3.org/1999/xlink" xmlns="http://www.w3.org/2000/svg"><path fill="#ffffff" d="M0 0L744.0 0L744.0 461.0L0 461.0L0 0Z" fill-rule="nonzero"/><path stroke="#333333" stroke-width="1.0" stroke-linecap="butt" d="M57.5 385.5L720.5 385.5" fill-rule="nonzero"/><path stroke="#cccccc" stroke-width="1.0" stroke-linecap="butt" d="M57.5 314.5L720.5 314.5" fill-rule="nonzero"/><path stroke="#cccccc" stroke-width="1.0" stroke-linecap="butt" d="M57.5 242.5L720.5 242.5" fill-rule="nonzero"/><path stroke="#cccccc" stroke-width="1.0" stroke-linecap="butt" d="M57.5 170.5L720.5 170.5" fill-rule="nonzero"/><path stroke="#cccccc" stroke-width="1.0" stroke-linecap="butt" d="M57.5 98.5L720.5 98.5" fill-rule="nonzero"/><clipPath id="id_0"><path d="M57.05 98.78333L720.95 98.78333L720.95 385.95L57.05 385.95L57.05 98.78333Z" clip-rule="nonzero"/></clipPath><path stroke="#000000" stroke-width="2.0" stroke-linecap="butt" stroke-opacity="0.0" clip-path="url(#id_0)" d="M247.0 386.0L157.0 386.0L157.0 127.0C157.0 125.89543 157.89543 125.0 159.0 125.0L245.0 125.0C246.10457 125.0 247.0 125.89543 247.0 127.0Z" fill-rule="nonzero"/><path fill="#4285f4" clip-path="url(#id_0)" d="M247.0 386.0L157.0 386.0L157.0 127.0C157.0 125.89543 157.89543 125.0 159.0 125.0L245.0 125.0C246.10457 125.0 247.0 125.89543 247.0 127.0Z" fill-rule="nonzero"/><path stroke="#000000" stroke-width="2.0" stroke-linecap="butt" stroke-opacity="0.0" clip-path="url(#id_0)" d="M529.0 386.0L439.0 386.0L439.0 116.0C439.0 114.89543 439.89542 114.0 441.0 114.0L527.0 114.0C528.10455 114.0 529.0 114.89543 529.0 116.0Z" fill-rule="nonzero"/><path fill="#4285f4" clip-path="url(#id_0)" d="M529.0 386.0L439.0 386.0L439.0 116.0C439.0 114.89543 439.89542 114.0 441.0 114.0L527.0 114.0C528.10455 114.0 529.0 114.89543 529.0 116.0Z" fill-rule="nonzero"/><path stroke="#000000" stroke-width="2.0" stroke-linecap="butt" stroke-opacity="0.0" clip-path="url(#id_0)" d="M339.0 386.0L249.0 386.0L249.0 133.0C249.0 131.89543 249.89543 131.0 251.0 131.0L337.0 131.0C338.10458 131.0 339.0 131.89543 339.0 133.0Z" fill-rule="nonzero"/><path fill="#ea4335" clip-path="url(#id_0)" d="M339.0 386.0L249.0 386.0L249.0 133.0C249.0 131.89543 249.89543 131.0 251.0 131.0L337.0 131.0C338.10458 131.0 339.0 131.89543 339.0 133.0Z" fill-rule="nonzero"/><path stroke="#000000" stroke-width="2.0" stroke-linecap="butt" stroke-opacity="0.0" clip-path="url(#id_0)" d="M621.0 386.0L531.0 386.0L531.0 110.0C531.0 108.89543 531.89545 108.0 533.0 108.0L619.0 108.0C620.10455 108.0 621.0 108.89543 621.0 110.0Z" fill-rule="nonzero"/><path fill="#ea4335" clip-path="url(#id_0)" d="M621.0 386.0L531.0 386.0L531.0 110.0C531.0 108.89543 531.89545 108.0 533.0 108.0L619.0 108.0C620.10455 108.0 621.0 108.89543 621.0 110.0Z" fill-rule="nonzero"/><path stroke="#4285f4" stroke-width="3.0" stroke-linejoin="round" stroke-linecap="round" d="M188.35938 138.37901Q188.03125 138.78526 187.54688 139.03526Q187.07812 139.26964 186.51562 139.26964Q185.78125 139.26964 185.23438 138.91026Q184.6875 138.55089 184.39062 137.89464Q184.09375 137.22276 184.09375 136.42589Q184.09375 135.58214 184.40625 134.89464Q184.73438 134.20714 185.32812 133.84776Q185.9375 133.47276 186.73438 133.47276Q188.0 133.47276 188.71875 134.42589Q189.45312 135.37901 189.45312 137.00401L189.45312 137.31651Q189.45312 139.81651 188.46875 140.95714Q187.48438 142.09776 185.5 142.12901L185.28125 142.12901L185.28125 141.22276L185.51562 141.22276Q186.85938 141.19151 187.57812 140.51964Q188.29688 139.84776 188.35938 138.37901ZM186.6875 138.37901Q187.23438 138.37901 187.6875 138.05089Q188.15625 137.70714 188.375 137.22276L188.375 136.78526Q188.375 135.72276 187.90625 135.05089Q187.4375 134.37901 186.73438 134.37901Q186.01562 134.37901 185.57812 134.92589Q185.15625 135.47276 185.15625 136.37901Q185.15625 137.25401 185.5625 137.81651Q185.98438 138.37901 186.6875 138.37901ZM196.5625 138.48839Q196.5625 140.39464 195.90625 141.33214Q195.26562 142.25401 193.875 142.25401Q192.51562 142.25401 191.85938 141.34776Q191.20312 140.44151 191.17188 138.62901L191.17188 137.19151Q191.17188 135.30089 191.8125 134.39464Q192.46875 133.47276 193.85938 133.47276Q195.23438 133.47276 195.89062 134.36339Q196.54688 135.23839 196.5625 137.08214L196.5625 138.48839ZM195.46875 137.00401Q195.46875 135.62901 195.07812 135.00401Q194.70312 134.36339 193.85938 134.36339Q193.03125 134.36339 192.64062 135.00401Q192.26562 135.62901 192.26562 136.92589L192.26562 138.66026Q192.26562 140.03526 192.65625 140.70714Q193.0625 141.36339 193.875 141.36339Q194.67188 141.36339 195.0625 140.73839Q195.45312 140.11339 195.46875 138.78526L195.46875 137.00401ZM203.71875 134.20714L200.1875 142.12901L199.04688 142.12901L202.5625 134.48839L197.95312 134.48839L197.95312 133.59776L203.71875 133.59776L203.71875 134.20714ZM205.28125 143.83214L204.67188 143.41026Q205.21875 142.64464 205.25 141.81651L205.25 140.84776L206.3125 140.84776L206.3125 141.69151Q206.3125 142.28526 206.01562 142.87901Q205.71875 143.47276 205.28125 143.83214ZM207.70312 137.84776L208.14062 133.59776L212.51562 133.59776L212.51562 134.59776L209.0625 134.59776L208.79688 136.92589Q209.4375 136.55089 210.23438 136.55089Q211.39062 136.55089 212.07812 137.33214Q212.76562 138.09776 212.76562 139.41026Q212.76562 140.72276 212.04688 141.48839Q211.34375 142.25401 210.0625 142.25401Q208.9375 142.25401 208.21875 141.62901Q207.5 140.98839 207.40625 139.87901L208.42188 139.87901Q208.53125 140.61339 208.95312 140.98839Q209.375 141.36339 210.0625 141.36339Q210.8125 141.36339 211.25 140.84776Q211.6875 140.33214 211.6875 139.42589Q211.6875 138.56651 211.21875 138.05089Q210.75 137.53526 209.96875 137.53526Q209.26562 137.53526 208.85938 137.83214L208.57812 138.06651L207.70312 137.84776ZM218.46875 133.59776L218.46875 134.50401L218.26562 134.50401Q217.0 134.53526 216.25 135.26964Q215.5 135.98839 215.375 137.30089Q216.0625 136.53526 217.21875 136.53526Q218.32812 136.53526 219.0 137.31651Q219.67188 138.09776 219.67188 139.34776Q219.67188 140.66026 218.95312 141.45714Q218.23438 142.25401 217.01562 142.25401Q215.79688 142.25401 215.03125 141.31651Q214.28125 140.36339 214.28125 138.87901L214.28125 138.47276Q214.28125 136.11339 215.28125 134.86339Q216.28125 133.61339 218.26562 133.59776L218.46875 133.59776ZM217.04688 137.44151Q216.48438 137.44151 216.01562 137.76964Q215.54688 138.09776 215.35938 138.61339L215.35938 139.00401Q215.35938 140.06651 215.82812 140.70714Q216.3125 141.34776 217.01562 141.34776Q217.75 141.34776 218.17188 140.81651Q218.59375 140.26964 218.59375 139.39464Q218.59375 138.51964 218.17188 137.98839Q217.75 137.44151 217.04688 137.44151Z" fill-rule="nonzero"/><path fill="#ffffff" d="M188.35938 138.37901Q188.03125 138.78526 187.54688 139.03526Q187.07812 139.26964 186.51562 139.26964Q185.78125 139.26964 185.23438 138.91026Q184.6875 138.55089 184.39062 137.89464Q184.09375 137.22276 184.09375 136.42589Q184.09375 135.58214 184.40625 134.89464Q184.73438 134.20714 185.32812 133.84776Q185.9375 133.47276 186.73438 133.47276Q188.0 133.47276 188.71875 134.42589Q189.45312 135.37901 189.45312 137.00401L189.45312 137.31651Q189.45312 139.81651 188.46875 140.95714Q187.48438 142.09776 185.5 142.12901L185.28125 142.12901L185.28125 141.22276L185.51562 141.22276Q186.85938 141.19151 187.57812 140.51964Q188.29688 139.84776 188.35938 138.37901ZM186.6875 138.37901Q187.23438 138.37901 187.6875 138.05089Q188.15625 137.70714 188.375 137.22276L188.375 136.78526Q188.375 135.72276 187.90625 135.05089Q187.4375 134.37901 186.73438 134.37901Q186.01562 134.37901 185.57812 134.92589Q185.15625 135.47276 185.15625 136.37901Q185.15625 137.25401 185.5625 137.81651Q185.98438 138.37901 186.6875 138.37901ZM196.5625 138.48839Q196.5625 140.39464 195.90625 141.33214Q195.26562 142.25401 193.875 142.25401Q192.51562 142.25401 191.85938 141.34776Q191.20312 140.44151 191.17188 138.62901L191.17188 137.19151Q191.17188 135.30089 191.8125 134.39464Q192.46875 133.47276 193.85938 133.47276Q195.23438 133.47276 195.89062 134.36339Q196.54688 135.23839 196.5625 137.08214L196.5625 138.48839ZM195.46875 137.00401Q195.46875 135.62901 195.07812 135.00401Q194.70312 134.36339 193.85938 134.36339Q193.03125 134.36339 192.64062 135.00401Q192.26562 135.62901 192.26562 136.92589L192.26562 138.66026Q192.26562 140.03526 192.65625 140.70714Q193.0625 141.36339 193.875 141.36339Q194.67188 141.36339 195.0625 140.73839Q195.45312 140.11339 195.46875 138.78526L195.46875 137.00401ZM203.71875 134.20714L200.1875 142.12901L199.04688 142.12901L202.5625 134.48839L197.95312 134.48839L197.95312 133.59776L203.71875 133.59776L203.71875 134.20714ZM205.28125 143.83214L204.67188 143.41026Q205.21875 142.64464 205.25 141.81651L205.25 140.84776L206.3125 140.84776L206.3125 141.69151Q206.3125 142.28526 206.01562 142.87901Q205.71875 143.47276 205.28125 143.83214ZM207.70312 137.84776L208.14062 133.59776L212.51562 133.59776L212.51562 134.59776L209.0625 134.59776L208.79688 136.92589Q209.4375 136.55089 210.23438 136.55089Q211.39062 136.55089 212.07812 137.33214Q212.76562 138.09776 212.76562 139.41026Q212.76562 140.72276 212.04688 141.48839Q211.34375 142.25401 210.0625 142.25401Q208.9375 142.25401 208.21875 141.62901Q207.5 140.98839 207.40625 139.87901L208.42188 139.87901Q208.53125 140.61339 208.95312 140.98839Q209.375 141.36339 210.0625 141.36339Q210.8125 141.36339 211.25 140.84776Q211.6875 140.33214 211.6875 139.42589Q211.6875 138.56651 211.21875 138.05089Q210.75 137.53526 209.96875 137.53526Q209.26562 137.53526 208.85938 137.83214L208.57812 138.06651L207.70312 137.84776ZM218.46875 133.59776L218.46875 134.50401L218.26562 134.50401Q217.0 134.53526 216.25 135.26964Q215.5 135.98839 215.375 137.30089Q216.0625 136.53526 217.21875 136.53526Q218.32812 136.53526 219.0 137.31651Q219.67188 138.09776 219.67188 139.34776Q219.67188 140.66026 218.95312 141.45714Q218.23438 142.25401 217.01562 142.25401Q215.79688 142.25401 215.03125 141.31651Q214.28125 140.36339 214.28125 138.87901L214.28125 138.47276Q214.28125 136.11339 215.28125 134.86339Q216.28125 133.61339 218.26562 133.59776L218.46875 133.59776ZM217.04688 137.44151Q216.48438 137.44151 216.01562 137.76964Q215.54688 138.09776 215.35938 138.61339L215.35938 139.00401Q215.35938 140.06651 215.82812 140.70714Q216.3125 141.34776 217.01562 141.34776Q217.75 141.34776 218.17188 140.81651Q218.59375 140.26964 218.59375 139.39464Q218.59375 138.51964 218.17188 137.98839Q217.75 137.44151 217.04688 137.44151Z" fill-rule="nonzero"/><path stroke="#4285f4" stroke-width="3.0" stroke-linejoin="round" stroke-linecap="round" d="M478.35938 126.766Q478.03125 127.17225 477.54688 127.42225Q477.07812 127.656624 476.51562 127.656624Q475.78125 127.656624 475.23438 127.29725Q474.6875 126.937874 474.39062 126.281624Q474.09375 125.60975 474.09375 124.812874Q474.09375 123.969124 474.40625 123.281624Q474.73438 122.594124 475.32812 122.23475Q475.9375 121.85975 476.73438 121.85975Q478.0 121.85975 478.71875 122.812874Q479.45312 123.766 479.45312 125.391L479.45312 125.7035Q479.45312 128.2035 478.46875 129.34413Q477.48438 130.48476 475.5 130.516L475.28125 130.516L475.28125 129.60976L475.51562 129.60976Q476.85938 129.5785 477.57812 128.90663Q478.29688 128.23476 478.35938 126.766ZM476.6875 126.766Q477.23438 126.766 477.6875 126.437874Q478.15625 126.094124 478.375 125.60975L478.375 125.17225Q478.375 124.10975 477.90625 123.437874Q477.4375 122.766 476.73438 122.766Q476.01562 122.766 475.57812 123.312874Q475.15625 123.85975 475.15625 124.766Q475.15625 125.641 475.5625 126.2035Q475.98438 126.766 476.6875 126.766ZM485.78125 127.656624L486.96875 127.656624L486.96875 128.53163L485.78125 128.53163L485.78125 130.516L484.70312 130.516L484.70312 128.53163L480.8125 128.53163L480.8125 127.891L484.625 121.98475L485.78125 121.98475L485.78125 127.656624ZM482.04688 127.656624L484.70312 127.656624L484.70312 123.469124L484.5625 123.7035L482.04688 127.656624ZM493.39062 124.2035Q493.39062 124.844124 493.04688 125.344124Q492.70312 125.844124 492.14062 126.125374Q492.79688 126.406624 493.1875 126.969124Q493.57812 127.516 493.57812 128.21913Q493.57812 129.31288 492.82812 129.98476Q492.09375 130.641 490.875 130.641Q489.64062 130.641 488.89062 129.98476Q488.15625 129.31288 488.15625 128.21913Q488.15625 127.516 488.53125 126.969124Q488.90625 126.406624 489.57812 126.125374Q489.01562 125.844124 488.6875 125.344124Q488.35938 124.844124 488.35938 124.2035Q488.35938 123.125374 489.04688 122.500374Q489.73438 121.85975 490.875 121.85975Q492.0 121.85975 492.6875 122.500374Q493.39062 123.125374 493.39062 124.2035ZM492.5 128.18788Q492.5 127.469124 492.04688 127.031624Q491.59375 126.5785 490.85938 126.5785Q490.125 126.5785 489.67188 127.031624Q489.23438 127.469124 489.23438 128.2035Q489.23438 128.92226 489.67188 129.34413Q490.10938 129.75038 490.875 129.75038Q491.625 129.75038 492.0625 129.3285Q492.5 128.90663 492.5 128.18788ZM490.875 122.750374Q490.23438 122.750374 489.82812 123.156624Q489.4375 123.54725 489.4375 124.23475Q489.4375 124.875374 489.82812 125.281624Q490.21875 125.687874 490.85938 125.687874Q491.51562 125.687874 491.90625 125.281624Q492.29688 124.875374 492.29688 124.23475Q492.29688 123.5785 491.89062 123.17225Q491.48438 122.750374 490.875 122.750374Z" fill-rule="nonzero"/><path fill="#ffffff" d="M478.35938 126.76601Q478.03125 127.17226 477.54688 127.42226Q477.07812 127.65663 476.51562 127.65663Q475.78125 127.65663 475.23438 127.29726Q474.6875 126.93788 474.39062 126.28163Q474.09375 125.60976 474.09375 124.81288Q474.09375 123.96913 474.40625 123.28163Q474.73438 122.59413 475.32812 122.23476Q475.9375 121.85976 476.73438 121.85976Q478.0 121.85976 478.71875 122.81288Q479.45312 123.76601 479.45312 125.39101L479.45312 125.70351Q479.45312 128.2035 478.46875 129.34413Q477.48438 130.48476 475.5 130.516L475.28125 130.516L475.28125 129.60976L475.51562 129.60976Q476.85938 129.5785 477.57812 128.90663Q478.29688 128.23476 478.35938 126.76601ZM476.6875 126.76601Q477.23438 126.76601 477.6875 126.43788Q478.15625 126.09413 478.375 125.60976L478.375 125.17226Q478.375 124.10976 477.90625 123.43788Q477.4375 122.76601 476.73438 122.76601Q476.01562 122.76601 475.57812 123.31288Q475.15625 123.85976 475.15625 124.76601Q475.15625 125.64101 475.5625 126.20351Q475.98438 126.76601 476.6875 126.76601ZM485.78125 127.65663L486.96875 127.65663L486.96875 128.53163L485.78125 128.53163L485.78125 130.516L484.70312 130.516L484.70312 128.53163L480.8125 128.53163L480.8125 127.89101L484.625 121.98476L485.78125 121.98476L485.78125 127.65663ZM482.04688 127.65663L484.70312 127.65663L484.70312 123.46913L484.5625 123.70351L482.04688 127.65663ZM493.39062 124.20351Q493.39062 124.84413 493.04688 125.34413Q492.70312 125.84413 492.14062 126.12538Q492.79688 126.40663 493.1875 126.96913Q493.57812 127.51601 493.57812 128.21913Q493.57812 129.31288 492.82812 129.98476Q492.09375 130.641 490.875 130.641Q489.64062 130.641 488.89062 129.98476Q488.15625 129.31288 488.15625 128.21913Q488.15625 127.51601 488.53125 126.96913Q488.90625 126.40663 489.57812 126.12538Q489.01562 125.84413 488.6875 125.34413Q488.35938 124.84413 488.35938 124.20351Q488.35938 123.12538 489.04688 122.50038Q489.73438 121.85976 490.875 121.85976Q492.0 121.85976 492.6875 122.50038Q493.39062 123.12538 493.39062 124.20351ZM492.5 128.18788Q492.5 127.46913 492.04688 127.03163Q491.59375 126.57851 490.85938 126.57851Q490.125 126.57851 489.67188 127.03163Q489.23438 127.46913 489.23438 128.2035Q489.23438 128.92226 489.67188 129.34413Q490.10938 129.75038 490.875 129.75038Q491.625 129.75038 492.0625 129.3285Q492.5 128.90663 492.5 128.18788ZM490.875 122.75038Q490.23438 122.75038 489.82812 123.15663Q489.4375 123.54726 489.4375 124.23476Q489.4375 124.87538 489.82812 125.28163Q490.21875 125.68788 490.85938 125.68788Q491.51562 125.68788 491.90625 125.28163Q492.29688 124.87538 492.29688 124.23476Q492.29688 123.57851 491.89062 123.17226Q491.48438 122.75038 490.875 122.75038Z" fill-rule="nonzero"/><path stroke="#ea4335" stroke-width="3.0" stroke-linejoin="round" stroke-linecap="round" d="M281.39062 141.25546Q281.39062 141.89609 281.04688 142.39609Q280.70312 142.89609 280.14062 143.17734Q280.79688 143.45859 281.1875 144.02109Q281.57812 144.56796 281.57812 145.27109Q281.57812 146.36484 280.82812 147.03671Q280.09375 147.69296 278.875 147.69296Q277.64062 147.69296 276.89062 147.03671Q276.15625 146.36484 276.15625 145.27109Q276.15625 144.56796 276.53125 144.02109Q276.90625 143.45859 277.57812 143.17734Q277.01562 142.89609 276.6875 142.39609Q276.35938 141.89609 276.35938 141.25546Q276.35938 140.17734 277.04688 139.55234Q277.73438 138.91171 278.875 138.91171Q280.0 138.91171 280.6875 139.55234Q281.39062 140.17734 281.39062 141.25546ZM280.5 145.23984Q280.5 144.52109 280.04688 144.08359Q279.59375 143.63046 278.85938 143.63046Q278.125 143.63046 277.67188 144.08359Q277.23438 144.52109 277.23438 145.25546Q277.23438 145.97421 277.67188 146.39609Q278.10938 146.80234 278.875 146.80234Q279.625 146.80234 280.0625 146.38046Q280.5 145.95859 280.5 145.23984ZM278.875 139.80234Q278.23438 139.80234 277.82812 140.20859Q277.4375 140.59921 277.4375 141.28671Q277.4375 141.92734 277.82812 142.33359Q278.21875 142.73984 278.85938 142.73984Q279.51562 142.73984 279.90625 142.33359Q280.29688 141.92734 280.29688 141.28671Q280.29688 140.63046 279.89062 140.22421Q279.48438 139.80234 278.875 139.80234ZM288.39062 141.25546Q288.39062 141.89609 288.04688 142.39609Q287.70312 142.89609 287.14062 143.17734Q287.79688 143.45859 288.1875 144.02109Q288.57812 144.56796 288.57812 145.27109Q288.57812 146.36484 287.82812 147.03671Q287.09375 147.69296 285.875 147.69296Q284.64062 147.69296 283.89062 147.03671Q283.15625 146.36484 283.15625 145.27109Q283.15625 144.56796 283.53125 144.02109Q283.90625 143.45859 284.57812 143.17734Q284.01562 142.89609 283.6875 142.39609Q283.35938 141.89609 283.35938 141.25546Q283.35938 140.17734 284.04688 139.55234Q284.73438 138.91171 285.875 138.91171Q287.0 138.91171 287.6875 139.55234Q288.39062 140.17734 288.39062 141.25546ZM287.5 145.23984Q287.5 144.52109 287.04688 144.08359Q286.59375 143.63046 285.85938 143.63046Q285.125 143.63046 284.67188 144.08359Q284.23438 144.52109 284.23438 145.25546Q284.23438 145.97421 284.67188 146.39609Q285.10938 146.80234 285.875 146.80234Q286.625 146.80234 287.0625 146.38046Q287.5 145.95859 287.5 145.23984ZM285.875 139.80234Q285.23438 139.80234 284.82812 140.20859Q284.4375 140.59921 284.4375 141.28671Q284.4375 141.92734 284.82812 142.33359Q285.21875 142.73984 285.85938 142.73984Q286.51562 142.73984 286.90625 142.33359Q287.29688 141.92734 287.29688 141.28671Q287.29688 140.63046 286.89062 140.22421Q286.48438 139.80234 285.875 139.80234ZM295.39062 141.25546Q295.39062 141.89609 295.04688 142.39609Q294.70312 142.89609 294.14062 143.17734Q294.79688 143.45859 295.1875 144.02109Q295.57812 144.56796 295.57812 145.27109Q295.57812 146.36484 294.82812 147.03671Q294.09375 147.69296 292.875 147.69296Q291.64062 147.69296 290.89062 147.03671Q290.15625 146.36484 290.15625 145.27109Q290.15625 144.56796 290.53125 144.02109Q290.90625 143.45859 291.57812 143.17734Q291.01562 142.89609 290.6875 142.39609Q290.35938 141.89609 290.35938 141.25546Q290.35938 140.17734 291.04688 139.55234Q291.73438 138.91171 292.875 138.91171Q294.0 138.91171 294.6875 139.55234Q295.39062 140.17734 295.39062 141.25546ZM294.5 145.23984Q294.5 144.52109 294.04688 144.08359Q293.59375 143.63046 292.85938 143.63046Q292.125 143.63046 291.67188 144.08359Q291.23438 144.52109 291.23438 145.25546Q291.23438 145.97421 291.67188 146.39609Q292.10938 146.80234 292.875 146.80234Q293.625 146.80234 294.0625 146.38046Q294.5 145.95859 294.5 145.23984ZM292.875 139.80234Q292.23438 139.80234 291.82812 140.20859Q291.4375 140.59921 291.4375 141.28671Q291.4375 141.92734 291.82812 142.33359Q292.21875 142.73984 292.85938 142.73984Q293.51562 142.73984 293.90625 142.33359Q294.29688 141.92734 294.29688 141.28671Q294.29688 140.63046 293.89062 140.22421Q293.48438 139.80234 292.875 139.80234ZM297.28125 149.27109L296.67188 148.84921Q297.21875 148.08359 297.25 147.25546L297.25 146.28671L298.3125 146.28671L298.3125 147.13046Q298.3125 147.72421 298.01562 148.31796Q297.71875 148.91171 297.28125 149.27109ZM303.46875 139.03671L303.46875 139.94296L303.26562 139.94296Q302.0 139.97421 301.25 140.70859Q300.5 141.42734 300.375 142.73984Q301.0625 141.97421 302.21875 141.97421Q303.32812 141.97421 304.0 142.75546Q304.67188 143.53671 304.67188 144.78671Q304.67188 146.09921 303.95312 146.89609Q303.23438 147.69296 302.01562 147.69296Q300.79688 147.69296 300.03125 146.75546Q299.28125 145.80234 299.28125 144.31796L299.28125 143.91171Q299.28125 141.55234 300.28125 140.30234Q301.28125 139.05234 303.26562 139.03671L303.46875 139.03671ZM302.04688 142.88046Q301.48438 142.88046 301.01562 143.20859Q300.54688 143.53671 300.35938 144.05234L300.35938 144.44296Q300.35938 145.50546 300.82812 146.14609Q301.3125 146.78671 302.01562 146.78671Q302.75 146.78671 303.17188 146.25546Q303.59375 145.70859 303.59375 144.83359Q303.59375 143.95859 303.17188 143.42734Q302.75 142.88046 302.04688 142.88046ZM311.79688 147.56796L306.20312 147.56796L306.20312 146.78671L309.15625 143.50546Q309.8125 142.75546 310.0625 142.30234Q310.3125 141.83359 310.3125 141.33359Q310.3125 140.66171 309.90625 140.23984Q309.51562 139.80234 308.82812 139.80234Q308.03125 139.80234 307.57812 140.27109Q307.125 140.72421 307.125 141.55234L306.04688 141.55234Q306.04688 140.36484 306.79688 139.64609Q307.5625 138.91171 308.82812 138.91171Q310.03125 138.91171 310.71875 139.53671Q311.40625 140.16171 311.40625 141.20859Q311.40625 142.45859 309.79688 144.20859L307.51562 146.67734L311.79688 146.67734L311.79688 147.56796Z" fill-rule="nonzero"/><path fill="#ffffff" d="M281.39062 141.25546Q281.39062 141.89609 281.04688 142.39609Q280.70312 142.89609 280.14062 143.17734Q280.79688 143.45859 281.1875 144.02109Q281.57812 144.56796 281.57812 145.27109Q281.57812 146.36484 280.82812 147.03671Q280.09375 147.69296 278.875 147.69296Q277.64062 147.69296 276.89062 147.03671Q276.15625 146.36484 276.15625 145.27109Q276.15625 144.56796 276.53125 144.02109Q276.90625 143.45859 277.57812 143.17734Q277.01562 142.89609 276.6875 142.39609Q276.35938 141.89609 276.35938 141.25546Q276.35938 140.17734 277.04688 139.55234Q277.73438 138.91171 278.875 138.91171Q280.0 138.91171 280.6875 139.55234Q281.39062 140.17734 281.39062 141.25546ZM280.5 145.23984Q280.5 144.52109 280.04688 144.08359Q279.59375 143.63046 278.85938 143.63046Q278.125 143.63046 277.67188 144.08359Q277.23438 144.52109 277.23438 145.25546Q277.23438 145.97421 277.67188 146.39609Q278.10938 146.80234 278.875 146.80234Q279.625 146.80234 280.0625 146.38046Q280.5 145.95859 280.5 145.23984ZM278.875 139.80234Q278.23438 139.80234 277.82812 140.20859Q277.4375 140.59921 277.4375 141.28671Q277.4375 141.92734 277.82812 142.33359Q278.21875 142.73984 278.85938 142.73984Q279.51562 142.73984 279.90625 142.33359Q280.29688 141.92734 280.29688 141.28671Q280.29688 140.63046 279.89062 140.22421Q279.48438 139.80234 278.875 139.80234ZM288.39062 141.25546Q288.39062 141.89609 288.04688 142.39609Q287.70312 142.89609 287.14062 143.17734Q287.79688 143.45859 288.1875 144.02109Q288.57812 144.56796 288.57812 145.27109Q288.57812 146.36484 287.82812 147.03671Q287.09375 147.69296 285.875 147.69296Q284.64062 147.69296 283.89062 147.03671Q283.15625 146.36484 283.15625 145.27109Q283.15625 144.56796 283.53125 144.02109Q283.90625 143.45859 284.57812 143.17734Q284.01562 142.89609 283.6875 142.39609Q283.35938 141.89609 283.35938 141.25546Q283.35938 140.17734 284.04688 139.55234Q284.73438 138.91171 285.875 138.91171Q287.0 138.91171 287.6875 139.55234Q288.39062 140.17734 288.39062 141.25546ZM287.5 145.23984Q287.5 144.52109 287.04688 144.08359Q286.59375 143.63046 285.85938 143.63046Q285.125 143.63046 284.67188 144.08359Q284.23438 144.52109 284.23438 145.25546Q284.23438 145.97421 284.67188 146.39609Q285.10938 146.80234 285.875 146.80234Q286.625 146.80234 287.0625 146.38046Q287.5 145.95859 287.5 145.23984ZM285.875 139.80234Q285.23438 139.80234 284.82812 140.20859Q284.4375 140.59921 284.4375 141.28671Q284.4375 141.92734 284.82812 142.33359Q285.21875 142.73984 285.85938 142.73984Q286.51562 142.73984 286.90625 142.33359Q287.29688 141.92734 287.29688 141.28671Q287.29688 140.63046 286.89062 140.22421Q286.48438 139.80234 285.875 139.80234ZM295.39062 141.25546Q295.39062 141.89609 295.04688 142.39609Q294.70312 142.89609 294.14062 143.17734Q294.79688 143.45859 295.1875 144.02109Q295.57812 144.56796 295.57812 145.27109Q295.57812 146.36484 294.82812 147.03671Q294.09375 147.69296 292.875 147.69296Q291.64062 147.69296 290.89062 147.03671Q290.15625 146.36484 290.15625 145.27109Q290.15625 144.56796 290.53125 144.02109Q290.90625 143.45859 291.57812 143.17734Q291.01562 142.89609 290.6875 142.39609Q290.35938 141.89609 290.35938 141.25546Q290.35938 140.17734 291.04688 139.55234Q291.73438 138.91171 292.875 138.91171Q294.0 138.91171 294.6875 139.55234Q295.39062 140.17734 295.39062 141.25546ZM294.5 145.23984Q294.5 144.52109 294.04688 144.08359Q293.59375 143.63046 292.85938 143.63046Q292.125 143.63046 291.67188 144.08359Q291.23438 144.52109 291.23438 145.25546Q291.23438 145.97421 291.67188 146.39609Q292.10938 146.80234 292.875 146.80234Q293.625 146.80234 294.0625 146.38046Q294.5 145.95859 294.5 145.23984ZM292.875 139.80234Q292.23438 139.80234 291.82812 140.20859Q291.4375 140.59921 291.4375 141.28671Q291.4375 141.92734 291.82812 142.33359Q292.21875 142.73984 292.85938 142.73984Q293.51562 142.73984 293.90625 142.33359Q294.29688 141.92734 294.29688 141.28671Q294.29688 140.63046 293.89062 140.22421Q293.48438 139.80234 292.875 139.80234ZM297.28125 149.27109L296.67188 148.84921Q297.21875 148.08359 297.25 147.25546L297.25 146.28671L298.3125 146.28671L298.3125 147.13046Q298.3125 147.72421 298.01562 148.31796Q297.71875 148.91171 297.28125 149.27109ZM303.46875 139.03671L303.46875 139.94296L303.26562 139.94296Q302.0 139.97421 301.25 140.70859Q300.5 141.42734 300.375 142.73984Q301.0625 141.97421 302.21875 141.97421Q303.32812 141.97421 304.0 142.75546Q304.67188 143.53671 304.67188 144.78671Q304.67188 146.09921 303.95312 146.89609Q303.23438 147.69296 302.01562 147.69296Q300.79688 147.69296 300.03125 146.75546Q299.28125 145.80234 299.28125 144.31796L299.28125 143.91171Q299.28125 141.55234 300.28125 140.30234Q301.28125 139.05234 303.26562 139.03671L303.46875 139.03671ZM302.04688 142.88046Q301.48438 142.88046 301.01562 143.20859Q300.54688 143.53671 300.35938 144.05234L300.35938 144.44296Q300.35938 145.50546 300.82812 146.14609Q301.3125 146.78671 302.01562 146.78671Q302.75 146.78671 303.17188 146.25546Q303.59375 145.70859 303.59375 144.83359Q303.59375 143.95859 303.17188 143.42734Q302.75 142.88046 302.04688 142.88046ZM311.79688 147.56796L306.20312 147.56796L306.20312 146.78671L309.15625 143.50546Q309.8125 142.75546 310.0625 142.30234Q310.3125 141.83359 310.3125 141.33359Q310.3125 140.66171 309.90625 140.23984Q309.51562 139.80234 308.82812 139.80234Q308.03125 139.80234 307.57812 140.27109Q307.125 140.72421 307.125 141.55234L306.04688 141.55234Q306.04688 140.36484 306.79688 139.64609Q307.5625 138.91171 308.82812 138.91171Q310.03125 138.91171 310.71875 139.53671Q311.40625 140.16171 311.40625 141.20859Q311.40625 142.45859 309.79688 144.20859L307.51562 146.67734L311.79688 146.67734L311.79688 147.56796Z" fill-rule="nonzero"/><path stroke="#ea4335" stroke-width="3.0" stroke-linejoin="round" stroke-linecap="round" d="M570.3594 121.30983Q570.03125 121.71608 569.5469 121.96608Q569.0781 122.200455 568.5156 122.200455Q567.78125 122.200455 567.2344 121.84108Q566.6875 121.481705 566.3906 120.825455Q566.09375 120.15358 566.09375 119.356705Q566.09375 118.512955 566.40625 117.825455Q566.7344 117.137955 567.3281 116.77858Q567.9375 116.40358 568.7344 116.40358Q570.0 116.40358 570.71875 117.356705Q571.4531 118.30983 571.4531 119.93483L571.4531 120.24733Q571.4531 122.74733 570.46875 123.887955Q569.4844 125.02858 567.5 125.05983L567.28125 125.05983L567.28125 124.15358L567.5156 124.15358Q568.8594 124.12233 569.5781 123.450455Q570.2969 122.77858 570.3594 121.30983ZM568.6875 121.30983Q569.2344 121.30983 569.6875 120.981705Q570.15625 120.637955 570.375 120.15358L570.375 119.71608Q570.375 118.65358 569.90625 117.981705Q569.4375 117.30983 568.7344 117.30983Q568.0156 117.30983 567.5781 117.856705Q567.15625 118.40358 567.15625 119.30983Q567.15625 120.18483 567.5625 120.74733Q567.9844 121.30983 568.6875 121.30983ZM577.46875 116.52858L577.46875 117.43483L577.2656 117.43483Q576.0 117.46608 575.25 118.200455Q574.5 118.919205 574.375 120.231705Q575.0625 119.46608 576.21875 119.46608Q577.3281 119.46608 578.0 120.24733Q578.6719 121.02858 578.6719 122.27858Q578.6719 123.59108 577.9531 124.387955Q577.2344 125.18483 576.0156 125.18483Q574.7969 125.18483 574.03125 124.24733Q573.28125 123.294205 573.28125 121.80983L573.28125 121.40358Q573.28125 119.044205 574.28125 117.794205Q575.28125 116.544205 577.2656 116.52858L577.46875 116.52858ZM576.0469 120.37233Q575.4844 120.37233 575.0156 120.700455Q574.5469 121.02858 574.3594 121.544205L574.3594 121.93483Q574.3594 122.99733 574.8281 123.637955Q575.3125 124.27858 576.0156 124.27858Q576.75 124.27858 577.1719 123.74733Q577.59375 123.200455 577.59375 122.325455Q577.59375 121.450455 577.1719 120.919205Q576.75 120.37233 576.0469 120.37233ZM585.71875 117.137955L582.1875 125.05983L581.0469 125.05983L584.5625 117.419205L579.9531 117.419205L579.9531 116.52858L585.71875 116.52858L585.71875 117.137955Z" fill-rule="nonzero"/><path fill="#ffffff" d="M570.3594 121.30983Q570.03125 121.71608 569.5469 121.96608Q569.0781 122.200455 568.5156 122.200455Q567.78125 122.200455 567.2344 121.84108Q566.6875 121.481705 566.3906 120.825455Q566.09375 120.15358 566.09375 119.356705Q566.09375 118.512955 566.40625 117.825455Q566.7344 117.137955 567.3281 116.77858Q567.9375 116.40358 568.7344 116.40358Q570.0 116.40358 570.71875 117.356705Q571.4531 118.30983 571.4531 119.93483L571.4531 120.24733Q571.4531 122.74733 570.46875 123.887955Q569.4844 125.02858 567.5 125.05983L567.28125 125.05983L567.28125 124.15358L567.5156 124.15358Q568.8594 124.12233 569.5781 123.450455Q570.2969 122.77858 570.3594 121.30983ZM568.6875 121.30983Q569.2344 121.30983 569.6875 120.981705Q570.15625 120.637955 570.375 120.15358L570.375 119.71608Q570.375 118.65358 569.90625 117.981705Q569.4375 117.30983 568.7344 117.30983Q568.0156 117.30983 567.5781 117.856705Q567.15625 118.40358 567.15625 119.30983Q567.15625 120.18483 567.5625 120.74733Q567.9844 121.30983 568.6875 121.30983ZM577.46875 116.52858L577.46875 117.43483L577.2656 117.43483Q576.0 117.46608 575.25 118.200455Q574.5 118.919205 574.375 120.231705Q575.0625 119.46608 576.21875 119.46608Q577.3281 119.46608 578.0 120.24733Q578.6719 121.02858 578.6719 122.27858Q578.6719 123.59108 577.9531 124.387955Q577.2344 125.18483 576.0156 125.18483Q574.7969 125.18483 574.03125 124.24733Q573.28125 123.294205 573.28125 121.80983L573.28125 121.40358Q573.28125 119.044205 574.28125 117.794205Q575.28125 116.544205 577.2656 116.52858L577.46875 116.52858ZM576.0469 120.37233Q575.4844 120.37233 575.0156 120.700455Q574.5469 121.02858 574.3594 121.544205L574.3594 121.93483Q574.3594 122.99733 574.8281 123.637955Q575.3125 124.27858 576.0156 124.27858Q576.75 124.27858 577.1719 123.74733Q577.59375 123.200455 577.59375 122.325455Q577.59375 121.450455 577.1719 120.919205Q576.75 120.37233 576.0469 120.37233ZM585.71875 117.137955L582.1875 125.05983L581.0469 125.05983L584.5625 117.419205L579.9531 117.419205L579.9531 116.52858L585.71875 116.52858L585.71875 117.137955Z" fill-rule="nonzero"/><path fill="#000000" d="M300.95312 434.95L300.95312 426.35626L307.15625 426.35626L307.15625 427.3719L302.09375 427.3719L302.09375 429.9969L306.84375 429.9969L306.84375 431.0125L302.09375 431.0125L302.09375 433.9344L307.35938 433.9344L307.35938 434.95L300.95312 434.95ZM308.79688 434.95L308.79688 428.73126L309.73438 428.73126L309.73438 429.60626Q310.42188 428.59064 311.71875 428.59064Q312.28125 428.59064 312.75 428.79376Q313.23438 428.9969 313.46875 429.325Q313.70312 429.65314 313.79688 430.09064Q313.84375 430.3875 313.84375 431.1219L313.84375 434.95L312.79688 434.95L312.79688 431.16876Q312.79688 430.5125 312.67188 430.2Q312.54688 429.8875 312.23438 429.7Q311.92188 429.4969 311.5 429.4969Q310.82812 429.4969 310.32812 429.9344Q309.84375 430.35626 309.84375 431.54376L309.84375 434.95L308.79688 434.95ZM315.76562 434.95L315.76562 426.35626L316.82812 426.35626L316.82812 434.95L315.76562 434.95ZM322.85938 434.1844Q322.26562 434.6844 321.71875 434.8875Q321.1875 435.09064 320.5625 435.09064Q319.53125 435.09064 318.98438 434.59064Q318.4375 434.09064 318.4375 433.3094Q318.4375 432.85626 318.64062 432.48126Q318.84375 432.09064 319.1875 431.8719Q319.53125 431.6375 319.95312 431.52814Q320.25 431.4344 320.89062 431.35626Q322.15625 431.21564 322.76562 430.9969Q322.76562 430.77814 322.76562 430.73126Q322.76562 430.075 322.46875 429.8094Q322.0625 429.46564 321.26562 429.46564Q320.53125 429.46564 320.17188 429.73126Q319.8125 429.98126 319.64062 430.6375L318.60938 430.4969Q318.75 429.84064 319.07812 429.4344Q319.40625 429.02814 320.01562 428.8094Q320.625 428.59064 321.42188 428.59064Q322.21875 428.59064 322.71875 428.77814Q323.21875 428.96564 323.45312 429.2469Q323.6875 429.52814 323.78125 429.96564Q323.82812 430.23126 323.82812 430.9344L323.82812 432.34064Q323.82812 433.8094 323.89062 434.2Q323.96875 434.59064 324.17188 434.95L323.0625 434.95Q322.90625 434.6219 322.85938 434.1844ZM322.76562 431.825Q322.1875 432.0594 321.04688 432.23126Q320.39062 432.325 320.125 432.45Q319.85938 432.5594 319.70312 432.77814Q319.5625 432.9969 319.5625 433.27814Q319.5625 433.7 319.875 433.98126Q320.20312 434.2625 320.8125 434.2625Q321.42188 434.2625 321.89062 433.9969Q322.375 433.73126 322.59375 433.2625Q322.76562 432.90314 322.76562 432.21564L322.76562 431.825ZM329.85938 432.66876L330.89062 432.8094Q330.71875 433.8719 330.01562 434.48126Q329.3125 435.09064 328.29688 435.09064Q327.01562 435.09064 326.23438 434.2625Q325.46875 433.41876 325.46875 431.85626Q325.46875 430.85626 325.79688 430.10626Q326.14062 429.34064 326.8125 428.96564Q327.5 428.59064 328.3125 428.59064Q329.3125 428.59064 329.95312 429.10626Q330.60938 429.60626 330.79688 430.5594L329.76562 430.71564Q329.625 430.09064 329.25 429.77814Q328.875 429.45 328.34375 429.45Q327.54688 429.45 327.04688 430.02814Q326.54688 430.59064 326.54688 431.825Q326.54688 433.09064 327.03125 433.65314Q327.51562 434.21564 328.28125 434.21564Q328.90625 434.21564 329.3125 433.84064Q329.73438 433.46564 329.85938 432.66876ZM336.04688 432.95L337.14062 433.075Q336.89062 434.02814 336.1875 434.5594Q335.48438 435.09064 334.40625 435.09064Q333.04688 435.09064 332.23438 434.2469Q331.4375 433.40314 331.4375 431.8875Q331.4375 430.325 332.25 429.46564Q333.0625 428.59064 334.34375 428.59064Q335.59375 428.59064 336.375 429.4344Q337.17188 430.27814 337.17188 431.825Q337.17188 431.91876 337.17188 432.10626L332.53125 432.10626Q332.59375 433.1375 333.10938 433.6844Q333.625 434.21564 334.40625 434.21564Q334.98438 434.21564 335.39062 433.91876Q335.8125 433.60626 336.04688 432.95ZM332.59375 431.2469L336.0625 431.2469Q336.0 430.45 335.67188 430.0594Q335.15625 429.45 334.35938 429.45Q333.625 429.45 333.125 429.9344Q332.64062 430.41876 332.59375 431.2469ZM338.375 433.09064L339.40625 432.9344Q339.5 433.5594 339.89062 433.8875Q340.29688 434.21564 341.03125 434.21564Q341.75 434.21564 342.09375 433.9344Q342.45312 433.6375 342.45312 433.23126Q342.45312 432.8719 342.14062 432.66876Q341.92188 432.52814 341.0625 432.3094Q339.90625 432.0125 339.45312 431.8094Q339.01562 431.59064 338.78125 431.21564Q338.54688 430.84064 338.54688 430.3719Q338.54688 429.96564 338.73438 429.60626Q338.92188 429.2469 339.25 429.0125Q339.5 428.84064 339.92188 428.71564Q340.34375 428.59064 340.84375 428.59064Q341.5625 428.59064 342.10938 428.8094Q342.67188 429.0125 342.9375 429.3719Q343.20312 429.73126 343.29688 430.325L342.26562 430.46564Q342.20312 429.9969 341.85938 429.73126Q341.53125 429.45 340.90625 429.45Q340.1875 429.45 339.875 429.7Q339.5625 429.9344 339.5625 430.2625Q339.5625 430.46564 339.6875 430.6219Q339.82812 430.79376 340.09375 430.90314Q340.25 430.96564 341.03125 431.16876Q342.15625 431.48126 342.59375 431.66876Q343.03125 431.85626 343.28125 432.21564Q343.53125 432.575 343.53125 433.1219Q343.53125 433.65314 343.21875 434.1219Q342.92188 434.575 342.34375 434.84064Q341.76562 435.09064 341.03125 435.09064Q339.8125 435.09064 339.17188 434.59064Q338.54688 434.075 338.375 433.09064ZM352.46875 434.95L351.42188 434.95L351.42188 428.23126Q351.03125 428.59064 350.40625 428.96564Q349.79688 429.325 349.3125 429.4969L349.3125 428.48126Q350.1875 428.0594 350.84375 427.48126Q351.51562 426.8875 351.79688 426.325L352.46875 426.325L352.46875 434.95ZM355.5 430.71564Q355.5 429.1844 355.8125 428.2625Q356.125 427.325 356.73438 426.825Q357.35938 426.325 358.29688 426.325Q358.98438 426.325 359.5 426.60626Q360.03125 426.8875 360.375 427.41876Q360.71875 427.9344 360.90625 428.6844Q361.09375 429.4344 361.09375 430.71564Q361.09375 432.23126 360.78125 433.15314Q360.48438 434.075 359.85938 434.59064Q359.25 435.09064 358.29688 435.09064Q357.0625 435.09064 356.34375 434.2Q355.5 433.1375 355.5 430.71564ZM356.57812 430.71564Q356.57812 432.825 357.07812 433.52814Q357.57812 434.23126 358.29688 434.23126Q359.03125 434.23126 359.51562 433.52814Q360.01562 432.825 360.01562 430.71564Q360.01562 428.59064 359.51562 427.90314Q359.03125 427.2 358.28125 427.2Q357.5625 427.2 357.125 427.8094Q356.57812 428.59064 356.57812 430.71564ZM362.5 430.71564Q362.5 429.1844 362.8125 428.2625Q363.125 427.325 363.73438 426.825Q364.35938 426.325 365.29688 426.325Q365.98438 426.325 366.5 426.60626Q367.03125 426.8875 367.375 427.41876Q367.71875 427.9344 367.90625 428.6844Q368.09375 429.4344 368.09375 430.71564Q368.09375 432.23126 367.78125 433.15314Q367.48438 434.075 366.85938 434.59064Q366.25 435.09064 365.29688 435.09064Q364.0625 435.09064 363.34375 434.2Q362.5 433.1375 362.5 430.71564ZM363.57812 430.71564Q363.57812 432.825 364.07812 433.52814Q364.57812 434.23126 365.29688 434.23126Q366.03125 434.23126 366.51562 433.52814Q367.01562 432.825 367.01562 430.71564Q367.01562 428.59064 366.51562 427.90314Q366.03125 427.2 365.28125 427.2Q364.5625 427.2 364.125 427.8094Q363.57812 428.59064 363.57812 430.71564ZM369.5 430.71564Q369.5 429.1844 369.8125 428.2625Q370.125 427.325 370.73438 426.825Q371.35938 426.325 372.29688 426.325Q372.98438 426.325 373.5 426.60626Q374.03125 426.8875 374.375 427.41876Q374.71875 427.9344 374.90625 428.6844Q375.09375 429.4344 375.09375 430.71564Q375.09375 432.23126 374.78125 433.15314Q374.48438 434.075 373.85938 434.59064Q373.25 435.09064 372.29688 435.09064Q371.0625 435.09064 370.34375 434.2Q369.5 433.1375 369.5 430.71564ZM370.57812 430.71564Q370.57812 432.825 371.07812 433.52814Q371.57812 434.23126 372.29688 434.23126Q373.03125 434.23126 373.51562 433.52814Q374.01562 432.825 374.01562 430.71564Q374.01562 428.59064 373.51562 427.90314Q373.03125 427.2 372.28125 427.2Q371.5625 427.2 371.125 427.8094Q370.57812 428.59064 370.57812 430.71564ZM379.89062 434.95L379.89062 426.35626L381.60938 426.35626L383.64062 432.4344Q383.92188 433.29376 384.04688 433.71564Q384.1875 433.2469 384.5 432.34064L386.5625 426.35626L388.09375 426.35626L388.09375 434.95L387.0 434.95L387.0 427.7625L384.5 434.95L383.46875 434.95L380.98438 427.6375L380.98438 434.95L379.89062 434.95ZM389.76562 434.95L388.78125 434.95L388.78125 426.35626L389.84375 426.35626L389.84375 429.41876Q390.51562 428.59064 391.54688 428.59064Q392.125 428.59064 392.625 428.825Q393.14062 429.04376 393.46875 429.46564Q393.8125 429.8875 394.0 430.48126Q394.1875 431.075 394.1875 431.7469Q394.1875 433.34064 393.39062 434.21564Q392.59375 435.09064 391.5 435.09064Q390.39062 435.09064 389.76562 434.16876L389.76562 434.95ZM389.75 431.79376Q389.75 432.90314 390.0625 433.40314Q390.5625 434.21564 391.40625 434.21564Q392.09375 434.21564 392.59375 433.6219Q393.10938 433.02814 393.10938 431.825Q393.10938 430.60626 392.625 430.02814Q392.14062 429.45 391.45312 429.45Q390.76562 429.45 390.25 430.0594Q389.75 430.65314 389.75 431.79376ZM395.79688 437.34064L395.79688 428.73126L396.75 428.73126L396.75 429.52814Q397.09375 429.0594 397.51562 428.825Q397.95312 428.59064 398.5625 428.59064Q399.35938 428.59064 399.96875 428.9969Q400.57812 429.40314 400.875 430.15314Q401.1875 430.90314 401.1875 431.79376Q401.1875 432.7469 400.84375 433.5125Q400.51562 434.27814 399.85938 434.6844Q399.20312 435.09064 398.48438 435.09064Q397.95312 435.09064 397.53125 434.8719Q397.10938 434.6375 396.84375 434.3094L396.84375 437.34064L395.79688 437.34064ZM396.75 431.8719Q396.75 433.075 397.23438 433.65314Q397.71875 434.21564 398.40625 434.21564Q399.10938 434.21564 399.60938 433.6219Q400.10938 433.02814 400.10938 431.77814Q400.10938 430.59064 399.625 430.0125Q399.14062 429.41876 398.45312 429.41876Q397.78125 429.41876 397.26562 430.04376Q396.75 430.66876 396.75 431.8719ZM402.375 433.09064L403.40625 432.9344Q403.5 433.5594 403.89062 433.8875Q404.29688 434.21564 405.03125 434.21564Q405.75 434.21564 406.09375 433.9344Q406.45312 433.6375 406.45312 433.23126Q406.45312 432.8719 406.14062 432.66876Q405.92188 432.52814 405.0625 432.3094Q403.90625 432.0125 403.45312 431.8094Q403.01562 431.59064 402.78125 431.21564Q402.54688 430.84064 402.54688 430.3719Q402.54688 429.96564 402.73438 429.60626Q402.92188 429.2469 403.25 429.0125Q403.5 428.84064 403.92188 428.71564Q404.34375 428.59064 404.84375 428.59064Q405.5625 428.59064 406.10938 428.8094Q406.67188 429.0125 406.9375 429.3719Q407.20312 429.73126 407.29688 430.325L406.26562 430.46564Q406.20312 429.9969 405.85938 429.73126Q405.53125 429.45 404.90625 429.45Q404.1875 429.45 403.875 429.7Q403.5625 429.9344 403.5625 430.2625Q403.5625 430.46564 403.6875 430.6219Q403.82812 430.79376 404.09375 430.90314Q404.25 430.96564 405.03125 431.16876Q406.15625 431.48126 406.59375 431.66876Q407.03125 431.85626 407.28125 432.21564Q407.53125 432.575 407.53125 433.1219Q407.53125 433.65314 407.21875 434.1219Q406.92188 434.575 406.34375 434.84064Q405.76562 435.09064 405.03125 435.09064Q403.8125 435.09064 403.17188 434.59064Q402.54688 434.075 402.375 433.09064ZM411.96875 432.2625L411.96875 431.41876L418.65625 431.41876L418.65625 432.2625L411.96875 432.2625ZM426.46875 434.95L425.42188 434.95L425.42188 428.23126Q425.03125 428.59064 424.40625 428.96564Q423.79688 429.325 423.3125 429.4969L423.3125 428.48126Q424.1875 428.0594 424.84375 427.48126Q425.51562 426.8875 425.79688 426.325L426.46875 426.325L426.46875 434.95ZM429.5 432.7L430.60938 432.60626Q430.73438 433.41876 431.17188 433.825Q431.625 434.23126 432.26562 434.23126Q433.01562 434.23126 433.54688 433.65314Q434.07812 433.075 434.07812 432.1375Q434.07812 431.23126 433.5625 430.71564Q433.0625 430.1844 432.23438 430.1844Q431.73438 430.1844 431.3125 430.41876Q430.90625 430.65314 430.67188 431.0125L429.6875 430.8875L430.51562 426.48126L434.79688 426.48126L434.79688 427.48126L431.35938 427.48126L430.90625 429.79376Q431.67188 429.2469 432.51562 429.2469Q433.64062 429.2469 434.40625 430.02814Q435.1875 430.8094 435.1875 432.04376Q435.1875 433.2 434.51562 434.0594Q433.6875 435.09064 432.26562 435.09064Q431.09375 435.09064 430.34375 434.4344Q429.60938 433.77814 429.5 432.7ZM436.5 430.71564Q436.5 429.1844 436.8125 428.2625Q437.125 427.325 437.73438 426.825Q438.35938 426.325 439.29688 426.325Q439.98438 426.325 440.5 426.60626Q441.03125 426.8875 441.375 427.41876Q441.71875 427.9344 441.90625 428.6844Q442.09375 429.4344 442.09375 430.71564Q442.09375 432.23126 441.78125 433.15314Q441.48438 434.075 440.85938 434.59064Q440.25 435.09064 439.29688 435.09064Q438.0625 435.09064 437.34375 434.2Q436.5 433.1375 436.5 430.71564ZM437.57812 430.71564Q437.57812 432.825 438.07812 433.52814Q438.57812 434.23126 439.29688 434.23126Q440.03125 434.23126 440.51562 433.52814Q441.01562 432.825 441.01562 430.71564Q441.01562 428.59064 440.51562 427.90314Q440.03125 427.2 439.28125 427.2Q438.5625 427.2 438.125 427.8094Q437.57812 428.59064 437.57812 430.71564ZM443.5 430.71564Q443.5 429.1844 443.8125 428.2625Q444.125 427.325 444.73438 426.825Q445.35938 426.325 446.29688 426.325Q446.98438 426.325 447.5 426.60626Q448.03125 426.8875 448.375 427.41876Q448.71875 427.9344 448.90625 428.6844Q449.09375 429.4344 449.09375 430.71564Q449.09375 432.23126 448.78125 433.15314Q448.48438 434.075 447.85938 434.59064Q447.25 435.09064 446.29688 435.09064Q445.0625 435.09064 444.34375 434.2Q443.5 433.1375 443.5 430.71564ZM444.57812 430.71564Q444.57812 432.825 445.07812 433.52814Q445.57812 434.23126 446.29688 434.23126Q447.03125 434.23126 447.51562 433.52814Q448.01562 432.825 448.01562 430.71564Q448.01562 428.59064 447.51562 427.90314Q447.03125 427.2 446.28125 427.2Q445.5625 427.2 445.125 427.8094Q444.57812 428.59064 444.57812 430.71564ZM453.89062 434.95L453.89062 426.35626L455.60938 426.35626L457.64062 432.4344Q457.92188 433.29376 458.04688 433.71564Q458.1875 433.2469 458.5 432.34064L460.5625 426.35626L462.09375 426.35626L462.09375 434.95L461.0 434.95L461.0 427.7625L458.5 434.95L457.46875 434.95L454.98438 427.6375L454.98438 434.95L453.89062 434.95ZM465.10938 434.95L465.10938 427.3719L462.28125 427.3719L462.28125 426.35626L469.09375 426.35626L469.09375 427.3719L466.25 427.3719L466.25 434.95L465.10938 434.95ZM475.5625 426.35626L476.70312 426.35626L476.70312 431.325Q476.70312 432.6219 476.40625 433.3875Q476.10938 434.1375 475.34375 434.6219Q474.57812 435.09064 473.34375 435.09064Q472.14062 435.09064 471.35938 434.6844Q470.59375 434.2625 470.26562 433.48126Q469.9375 432.6844 469.9375 431.325L469.9375 426.35626L471.07812 426.35626L471.07812 431.3094Q471.07812 432.4344 471.28125 432.96564Q471.5 433.4969 472.0 433.79376Q472.51562 434.075 473.25 434.075Q474.5 434.075 475.03125 433.5125Q475.5625 432.9344 475.5625 431.3094L475.5625 426.35626Z" fill-rule="nonzero"/><path fill="#000000" d="M44.55 385.71564Q44.55 384.1844 44.8625 383.2625Q45.175 382.325 45.784374 381.825Q46.409374 381.325 47.346874 381.325Q48.034374 381.325 48.55 381.60626Q49.08125 381.8875 49.425 382.41876Q49.76875 382.9344 49.95625 383.6844Q50.14375 384.4344 50.14375 385.71564Q50.14375 387.23126 49.83125 388.15314Q49.534374 389.075 48.909374 389.59064Q48.3 390.09064 47.346874 390.09064Q46.1125 390.09064 45.39375 389.2Q44.55 388.1375 44.55 385.71564ZM45.628124 385.71564Q45.628124 387.825 46.128124 388.52814Q46.628124 389.23126 47.346874 389.23126Q48.08125 389.23126 48.565624 388.52814Q49.065624 387.825 49.065624 385.71564Q49.065624 383.59064 48.565624 382.90314Q48.08125 382.2 47.33125 382.2Q46.6125 382.2 46.175 382.8094Q45.628124 383.59064 45.628124 385.71564Z" fill-rule="nonzero"/><path fill="#000000" d="M36.096874 317.1427L36.096874 318.15833L30.409374 318.15833Q30.409374 317.78333 30.534374 317.42395Q30.753124 316.84583 31.221874 316.28333Q31.70625 315.72083 32.6125 314.98645Q34.01875 313.8302 34.503124 313.15833Q35.003124 312.48645 35.003124 311.8927Q35.003124 311.2677 34.55 310.84583Q34.096874 310.40833 33.378124 310.40833Q32.6125 310.40833 32.159374 310.86145Q31.70625 311.31458 31.690624 312.12708L30.6125 312.0177Q30.721874 310.79895 31.440624 310.17395Q32.175 309.53333 33.409374 309.53333Q34.64375 309.53333 35.3625 310.22083Q36.08125 310.90833 36.08125 311.92395Q36.08125 312.43958 35.8625 312.93958Q35.659374 313.42395 35.159374 313.98645Q34.675 314.53333 33.55 315.48645Q32.596874 316.28333 32.315624 316.5802Q32.05 316.86145 31.878124 317.1427L36.096874 317.1427ZM37.55 315.90833L38.659374 315.81458Q38.784374 316.62708 39.221874 317.03333Q39.675 317.43958 40.315624 317.43958Q41.065624 317.43958 41.596874 316.86145Q42.128124 316.28333 42.128124 315.34583Q42.128124 314.43958 41.6125 313.92395Q41.1125 313.3927 40.284374 313.3927Q39.784374 313.3927 39.3625 313.62708Q38.95625 313.86145 38.721874 314.22083L37.7375 314.09583L38.565624 309.68958L42.846874 309.68958L42.846874 310.68958L39.409374 310.68958L38.95625 313.00208Q39.721874 312.4552 40.565624 312.4552Q41.690624 312.4552 42.45625 313.23645Q43.2375 314.0177 43.2375 315.25208Q43.2375 316.40833 42.565624 317.2677Q41.7375 318.29895 40.315624 318.29895Q39.14375 318.29895 38.39375 317.6427Q37.659374 316.98645 37.55 315.90833ZM44.55 313.92395Q44.55 312.3927 44.8625 311.47083Q45.175 310.53333 45.784374 310.03333Q46.409374 309.53333 47.346874 309.53333Q48.034374 309.53333 48.55 309.81458Q49.08125 310.09583 49.425 310.62708Q49.76875 311.1427 49.95625 311.8927Q50.14375 312.6427 50.14375 313.92395Q50.14375 315.43958 49.83125 316.36145Q49.534374 317.28333 48.909374 317.79895Q48.3 318.29895 47.346874 318.29895Q46.1125 318.29895 45.39375 317.40833Q44.55 316.34583 44.55 313.92395ZM45.628124 313.92395Q45.628124 316.03333 46.128124 316.73645Q46.628124 317.43958 47.346874 317.43958Q48.08125 317.43958 48.565624 316.73645Q49.065624 316.03333 49.065624 313.92395Q49.065624 311.79895 48.565624 311.11145Q48.08125 310.40833 47.33125 310.40833Q46.6125 310.40833 46.175 311.0177Q45.628124 311.79895 45.628124 313.92395Z" fill-rule="nonzero"/><path fill="#000000" d="M30.55 244.11667L31.659374 244.02292Q31.784374 244.83542 32.221874 245.24167Q32.675 245.64792 33.315624 245.64792Q34.065624 245.64792 34.596874 245.0698Q35.128124 244.49167 35.128124 243.55417Q35.128124 242.64792 34.6125 242.1323Q34.1125 241.60104 33.284374 241.60104Q32.784374 241.60104 32.3625 241.83542Q31.95625 242.0698 31.721874 242.42917L30.7375 242.30417L31.565624 237.89792L35.846874 237.89792L35.846874 238.89792L32.409374 238.89792L31.95625 241.21042Q32.721874 240.66354 33.565624 240.66354Q34.690624 240.66354 35.45625 241.4448Q36.2375 242.22604 36.2375 243.46042Q36.2375 244.61667 35.565624 245.47604Q34.7375 246.5073 33.315624 246.5073Q32.14375 246.5073 31.39375 245.85104Q30.659374 245.1948 30.55 244.11667ZM37.55 242.1323Q37.55 240.60104 37.8625 239.67917Q38.175 238.74167 38.784374 238.24167Q39.409374 237.74167 40.346874 237.74167Q41.034374 237.74167 41.55 238.02292Q42.08125 238.30417 42.425 238.83542Q42.76875 239.35104 42.95625 240.10104Q43.14375 240.85104 43.14375 242.1323Q43.14375 243.64792 42.83125 244.5698Q42.534374 245.49167 41.909374 246.0073Q41.3 246.5073 40.346874 246.5073Q39.1125 246.5073 38.39375 245.61667Q37.55 244.55417 37.55 242.1323ZM38.628124 242.1323Q38.628124 244.24167 39.128124 244.9448Q39.628124 245.64792 40.346874 245.64792Q41.08125 245.64792 41.565624 244.9448Q42.065624 244.24167 42.065624 242.1323Q42.065624 240.0073 41.565624 239.3198Q41.08125 238.61667 40.33125 238.61667Q39.6125 238.61667 39.175 239.22604Q38.628124 240.0073 38.628124 242.1323ZM44.55 242.1323Q44.55 240.60104 44.8625 239.67917Q45.175 238.74167 45.784374 238.24167Q46.409374 237.74167 47.346874 237.74167Q48.034374 237.74167 48.55 238.02292Q49.08125 238.30417 49.425 238.83542Q49.76875 239.35104 49.95625 240.10104Q50.14375 240.85104 50.14375 242.1323Q50.14375 243.64792 49.83125 244.5698Q49.534374 245.49167 48.909374 246.0073Q48.3 246.5073 47.346874 246.5073Q46.1125 246.5073 45.39375 245.61667Q44.55 244.55417 44.55 242.1323ZM45.628124 242.1323Q45.628124 244.24167 46.128124 244.9448Q46.628124 245.64792 47.346874 245.64792Q48.08125 245.64792 48.565624 244.9448Q49.065624 244.24167 49.065624 242.1323Q49.065624 240.0073 48.565624 239.3198Q48.08125 238.61667 47.33125 238.61667Q46.6125 238.61667 46.175 239.22604Q45.628124 240.0073 45.628124 242.1323Z" fill-rule="nonzero"/><path fill="#000000" d="M30.6125 167.10625L30.6125 166.09062L36.175 166.09062L36.175 166.91875Q35.3625 167.79375 34.55 169.24687Q33.753124 170.68437 33.315624 172.21562Q32.9875 173.29375 32.909374 174.575L31.815624 174.575Q31.83125 173.55937 32.20625 172.12187Q32.596874 170.68437 33.3 169.35625Q34.01875 168.02812 34.83125 167.10625L30.6125 167.10625ZM37.55 172.325L38.659374 172.23125Q38.784374 173.04375 39.221874 173.45Q39.675 173.85625 40.315624 173.85625Q41.065624 173.85625 41.596874 173.27812Q42.128124 172.7 42.128124 171.7625Q42.128124 170.85625 41.6125 170.34062Q41.1125 169.80937 40.284374 169.80937Q39.784374 169.80937 39.3625 170.04375Q38.95625 170.27812 38.721874 170.6375L37.7375 170.5125L38.565624 166.10625L42.846874 166.10625L42.846874 167.10625L39.409374 167.10625L38.95625 169.41875Q39.721874 168.87187 40.565624 168.87187Q41.690624 168.87187 42.45625 169.65312Q43.2375 170.43437 43.2375 171.66875Q43.2375 172.825 42.565624 173.68437Q41.7375 174.71562 40.315624 174.71562Q39.14375 174.71562 38.39375 174.05937Q37.659374 173.40312 37.55 172.325ZM44.55 170.34062Q44.55 168.80937 44.8625 167.8875Q45.175 166.95 45.784374 166.45Q46.409374 165.95 47.346874 165.95Q48.034374 165.95 48.55 166.23125Q49.08125 166.5125 49.425 167.04375Q49.76875 167.55937 49.95625 168.30937Q50.14375 169.05937 50.14375 170.34062Q50.14375 171.85625 49.83125 172.77812Q49.534374 173.7 48.909374 174.21562Q48.3 174.71562 47.346874 174.71562Q46.1125 174.71562 45.39375 173.825Q44.55 172.7625 44.55 170.34062ZM45.628124 170.34062Q45.628124 172.45 46.128124 173.15312Q46.628124 173.85625 47.346874 173.85625Q48.08125 173.85625 48.565624 173.15312Q49.065624 172.45 49.065624 170.34062Q49.065624 168.21562 48.565624 167.52812Q48.08125 166.825 47.33125 166.825Q46.6125 166.825 46.175 167.43437Q45.628124 168.21562 45.628124 170.34062Z" fill-rule="nonzero"/><path fill="#000000" d="M27.51875 102.78333L26.471874 102.78333L26.471874 96.06458Q26.08125 96.42396 25.45625 96.79896Q24.846874 97.15833 24.3625 97.33021L24.3625 96.31458Q25.2375 95.89271 25.89375 95.31458Q26.565624 94.72083 26.846874 94.15833L27.51875 94.15833L27.51875 102.78333ZM30.55 98.54896Q30.55 97.01771 30.8625 96.09583Q31.175 95.15833 31.784374 94.65833Q32.409374 94.15833 33.346874 94.15833Q34.034374 94.15833 34.55 94.43958Q35.08125 94.72083 35.425 95.25208Q35.76875 95.76771 35.95625 96.51771Q36.14375 97.26771 36.14375 98.54896Q36.14375 100.06458 35.83125 100.98646Q35.534374 101.90833 34.909374 102.42396Q34.3 102.92396 33.346874 102.92396Q32.1125 102.92396 31.39375 102.03333Q30.55 100.97083 30.55 98.54896ZM31.628124 98.54896Q31.628124 100.65833 32.128124 101.36146Q32.628124 102.06458 33.346874 102.06458Q34.08125 102.06458 34.565624 101.36146Q35.065624 100.65833 35.065624 98.54896Q35.065624 96.42396 34.565624 95.73646Q34.08125 95.03333 33.33125 95.03333Q32.6125 95.03333 32.175 95.64271Q31.628124 96.42396 31.628124 98.54896ZM37.55 98.54896Q37.55 97.01771 37.8625 96.09583Q38.175 95.15833 38.784374 94.65833Q39.409374 94.15833 40.346874 94.15833Q41.034374 94.15833 41.55 94.43958Q42.08125 94.72083 42.425 95.25208Q42.76875 95.76771 42.95625 96.51771Q43.14375 97.26771 43.14375 98.54896Q43.14375 100.06458 42.83125 100.98646Q42.534374 101.90833 41.909374 102.42396Q41.3 102.92396 40.346874 102.92396Q39.1125 102.92396 38.39375 102.03333Q37.55 100.97083 37.55 98.54896ZM38.628124 98.54896Q38.628124 100.65833 39.128124 101.36146Q39.628124 102.06458 40.346874 102.06458Q41.08125 102.06458 41.565624 101.36146Q42.065624 100.65833 42.065624 98.54896Q42.065624 96.42396 41.565624 95.73646Q41.08125 95.03333 40.33125 95.03333Q39.6125 95.03333 39.175 95.64271Q38.628124 96.42396 38.628124 98.54896ZM44.55 98.54896Q44.55 97.01771 44.8625 96.09583Q45.175 95.15833 45.784374 94.65833Q46.409374 94.15833 47.346874 94.15833Q48.034374 94.15833 48.55 94.43958Q49.08125 94.72083 49.425 95.25208Q49.76875 95.76771 49.95625 96.51771Q50.14375 97.26771 50.14375 98.54896Q50.14375 100.06458 49.83125 100.98646Q49.534374 101.90833 48.909374 102.42396Q48.3 102.92396 47.346874 102.92396Q46.1125 102.92396 45.39375 102.03333Q44.55 100.97083 44.55 98.54896ZM45.628124 98.54896Q45.628124 100.65833 46.128124 101.36146Q46.628124 102.06458 47.346874 102.06458Q48.08125 102.06458 48.565624 101.36146Q49.065624 100.65833 49.065624 98.54896Q49.065624 96.42396 48.565624 95.73646Q48.08125 95.03333 47.33125 95.03333Q46.6125 95.03333 46.175 95.64271Q45.628124 96.42396 45.628124 98.54896Z" fill-rule="nonzero"/><path fill="#000000" d="M235.68217 402.95L235.68217 394.35626L239.49467 394.35626Q240.65092 394.35626 241.24467 394.59064Q241.83842 394.825 242.1978 395.41876Q242.55717 395.9969 242.55717 396.7Q242.55717 397.6219 241.96342 398.2469Q241.36967 398.8719 240.1353 399.04376Q240.58842 399.2625 240.8228 399.46564Q241.3228 399.91876 241.7603 400.60626L243.2603 402.95L241.8228 402.95L240.6978 401.16876Q240.1978 400.3875 239.86967 399.98126Q239.55717 399.575 239.29155 399.41876Q239.04155 399.2469 238.77592 399.16876Q238.58842 399.1375 238.15092 399.1375L236.8228 399.1375L236.8228 402.95L235.68217 402.95ZM236.8228 398.15314L239.27592 398.15314Q240.04155 398.15314 240.47905 397.9969Q240.93217 397.825 241.15092 397.48126Q241.3853 397.1219 241.3853 396.7Q241.3853 396.09064 240.93217 395.7Q240.49467 395.3094 239.54155 395.3094L236.8228 395.3094L236.8228 398.15314ZM248.79155 400.95L249.8853 401.075Q249.6353 402.02814 248.93217 402.5594Q248.22905 403.09064 247.15092 403.09064Q245.79155 403.09064 244.97905 402.2469Q244.18217 401.40314 244.18217 399.8875Q244.18217 398.325 244.99467 397.46564Q245.80717 396.59064 247.08842 396.59064Q248.33842 396.59064 249.11967 397.4344Q249.91655 398.27814 249.91655 399.825Q249.91655 399.91876 249.91655 400.10626L245.27592 400.10626Q245.33842 401.1375 245.85405 401.6844Q246.36967 402.21564 247.15092 402.21564Q247.72905 402.21564 248.1353 401.91876Q248.55717 401.60626 248.79155 400.95ZM245.33842 399.2469L248.80717 399.2469Q248.74467 398.45 248.41655 398.0594Q247.90092 397.45 247.10405 397.45Q246.36967 397.45 245.86967 397.9344Q245.3853 398.41876 245.33842 399.2469ZM255.60405 402.1844Q255.0103 402.6844 254.46342 402.8875Q253.93217 403.09064 253.30717 403.09064Q252.27592 403.09064 251.72905 402.59064Q251.18217 402.09064 251.18217 401.3094Q251.18217 400.85626 251.3853 400.48126Q251.58842 400.09064 251.93217 399.8719Q252.27592 399.6375 252.6978 399.52814Q252.99467 399.4344 253.6353 399.35626Q254.90092 399.21564 255.5103 398.9969Q255.5103 398.77814 255.5103 398.73126Q255.5103 398.075 255.21342 397.8094Q254.80717 397.46564 254.0103 397.46564Q253.27592 397.46564 252.91655 397.73126Q252.55717 397.98126 252.3853 398.6375L251.35405 398.4969Q251.49467 397.84064 251.8228 397.4344Q252.15092 397.02814 252.7603 396.8094Q253.36967 396.59064 254.16655 396.59064Q254.96342 396.59064 255.46342 396.77814Q255.96342 396.96564 256.1978 397.2469Q256.4322 397.52814 256.52594 397.96564Q256.5728 398.23126 256.5728 398.9344L256.5728 400.34064Q256.5728 401.8094 256.6353 402.2Q256.71344 402.59064 256.91656 402.95L255.80717 402.95Q255.65092 402.6219 255.60405 402.1844ZM255.5103 399.825Q254.93217 400.0594 253.79155 400.23126Q253.1353 400.325 252.86967 400.45Q252.60405 400.5594 252.4478 400.77814Q252.30717 400.9969 252.30717 401.27814Q252.30717 401.7 252.61967 401.98126Q252.9478 402.2625 253.55717 402.2625Q254.16655 402.2625 254.6353 401.9969Q255.11967 401.73126 255.33842 401.2625Q255.5103 400.90314 255.5103 400.21564L255.5103 399.825ZM258.5103 402.95L258.5103 394.35626L259.5728 394.35626L259.5728 402.95L258.5103 402.95Z" fill-rule="nonzero"/><path fill="#000000" d="M516.6303 402.95L513.3022 394.35626L514.53656 394.35626L516.77094 400.60626Q517.03656 401.35626 517.22406 402.0125Q517.4272 401.3094 517.6928 400.60626L520.0053 394.35626L521.16156 394.35626L517.8022 402.95L516.6303 402.95ZM521.0522 395.575L521.0522 394.35626L522.1147 394.35626L522.1147 395.575L521.0522 395.575ZM521.0522 402.95L521.0522 396.73126L522.1147 396.73126L522.1147 402.95L521.0522 402.95ZM524.03656 402.95L524.03656 396.73126L524.9897 396.73126L524.9897 397.66876Q525.34906 397.0125 525.64594 396.8094Q525.95844 396.59064 526.33344 396.59064Q526.8647 396.59064 527.41156 396.91876L527.0522 397.90314Q526.66156 397.66876 526.28656 397.66876Q525.9272 397.66876 525.64594 397.8875Q525.3803 398.09064 525.27094 398.46564Q525.08344 399.02814 525.08344 399.6844L525.08344 402.95L524.03656 402.95ZM530.34906 402.0125L530.5053 402.9344Q530.0522 403.02814 529.70844 403.02814Q529.1303 403.02814 528.8178 402.85626Q528.5053 402.66876 528.3647 402.3719Q528.2397 402.075 528.2397 401.1219L528.2397 397.54376L527.47406 397.54376L527.47406 396.73126L528.2397 396.73126L528.2397 395.1844L529.28656 394.5594L529.28656 396.73126L530.34906 396.73126L530.34906 397.54376L529.28656 397.54376L529.28656 401.1844Q529.28656 401.6375 529.33344 401.7625Q529.39594 401.8875 529.52094 401.96564Q529.64594 402.04376 529.8803 402.04376Q530.0678 402.04376 530.34906 402.0125ZM535.1303 402.95L535.1303 402.02814Q534.39594 403.09064 533.14594 403.09064Q532.59906 403.09064 532.1147 402.8875Q531.64594 402.66876 531.41156 402.35626Q531.1772 402.02814 531.08344 401.5594Q531.02094 401.2625 531.02094 400.575L531.02094 396.73126L532.08344 396.73126L532.08344 400.1844Q532.08344 400.9969 532.14594 401.29376Q532.2397 401.7 532.5522 401.95Q532.8803 402.1844 533.3647 402.1844Q533.83344 402.1844 534.2397 401.95Q534.66156 401.7 534.83344 401.27814Q535.02094 400.85626 535.02094 400.0594L535.02094 396.73126L536.0678 396.73126L536.0678 402.95L535.1303 402.95ZM542.1147 402.1844Q541.52094 402.6844 540.97406 402.8875Q540.4428 403.09064 539.8178 403.09064Q538.78656 403.09064 538.2397 402.59064Q537.6928 402.09064 537.6928 401.3094Q537.6928 400.85626 537.89594 400.48126Q538.09906 400.09064 538.4428 399.8719Q538.78656 399.6375 539.20844 399.52814Q539.5053 399.4344 540.14594 399.35626Q541.41156 399.21564 542.02094 398.9969Q542.02094 398.77814 542.02094 398.73126Q542.02094 398.075 541.72406 397.8094Q541.3178 397.46564 540.52094 397.46564Q539.78656 397.46564 539.4272 397.73126Q539.0678 397.98126 538.89594 398.6375L537.8647 398.4969Q538.0053 397.84064 538.33344 397.4344Q538.66156 397.02814 539.27094 396.8094Q539.8803 396.59064 540.6772 396.59064Q541.47406 396.59064 541.97406 396.77814Q542.47406 396.96564 542.70844 397.2469Q542.9428 397.52814 543.03656 397.96564Q543.08344 398.23126 543.08344 398.9344L543.08344 400.34064Q543.08344 401.8094 543.14594 402.2Q543.22406 402.59064 543.4272 402.95L542.3178 402.95Q542.16156 402.6219 542.1147 402.1844ZM542.02094 399.825Q541.4428 400.0594 540.3022 400.23126Q539.64594 400.325 539.3803 400.45Q539.1147 400.5594 538.95844 400.77814Q538.8178 400.9969 538.8178 401.27814Q538.8178 401.7 539.1303 401.98126Q539.45844 402.2625 540.0678 402.2625Q540.6772 402.2625 541.14594 401.9969Q541.6303 401.73126 541.84906 401.2625Q542.02094 400.90314 542.02094 400.21564L542.02094 399.825ZM545.02094 402.95L545.02094 394.35626L546.08344 394.35626L546.08344 402.95L545.02094 402.95Z" fill-rule="nonzero"/><path fill="#4285f4" d="M319.0 64.416664C319.0 63.864384 319.44772 63.416668 320.0 63.416668L330.0 63.416668C330.55228 63.416668 331.0 63.864384 331.0 64.416664L331.0 74.416664C331.0 74.96895 330.55228 75.416664 330.0 75.416664L320.0 75.416664C319.44772 75.416664 319.0 74.96895 319.0 74.416664Z" fill-rule="nonzero"/><path fill="#1a1a1a" d="M342.10938 73.416664L342.10938 65.83854L339.28125 65.83854L339.28125 64.822914L346.09375 64.822914L346.09375 65.83854L343.25 65.83854L343.25 73.416664L342.10938 73.416664ZM353.0625 70.40104L354.1875 70.697914Q353.82812 72.08854 352.90625 72.822914Q351.98438 73.55729 350.64062 73.55729Q349.25 73.55729 348.375 72.99479Q347.5 72.43229 347.04688 71.36979Q346.59375 70.291664 346.59375 69.05729Q346.59375 67.71354 347.10938 66.71354Q347.625 65.71354 348.5625 65.197914Q349.51562 64.68229 350.65625 64.68229Q351.9375 64.68229 352.8125 65.33854Q353.70312 65.99479 354.04688 67.18229L352.92188 67.447914Q352.625 66.510414 352.04688 66.08854Q351.48438 65.65104 350.625 65.65104Q349.64062 65.65104 348.96875 66.135414Q348.3125 66.604164 348.03125 67.40104Q347.76562 68.197914 347.76562 69.05729Q347.76562 70.15104 348.07812 70.96354Q348.40625 71.77604 349.07812 72.18229Q349.75 72.58854 350.54688 72.58854Q351.5 72.58854 352.15625 72.041664Q352.82812 71.49479 353.0625 70.40104ZM355.92188 73.416664L355.92188 64.822914L359.17188 64.822914Q360.01562 64.822914 360.46875 64.90104Q361.10938 65.010414 361.53125 65.30729Q361.96875 65.604164 362.21875 66.135414Q362.48438 66.666664 362.48438 67.30729Q362.48438 68.40104 361.78125 69.166664Q361.09375 69.916664 359.26562 69.916664L357.0625 69.916664L357.0625 73.416664L355.92188 73.416664ZM357.0625 68.916664L359.28125 68.916664Q360.39062 68.916664 360.84375 68.510414Q361.3125 68.08854 361.3125 67.33854Q361.3125 66.80729 361.03125 66.43229Q360.76562 66.041664 360.32812 65.916664Q360.03125 65.83854 359.26562 65.83854L357.0625 65.83854L357.0625 68.916664Z" fill-rule="nonzero"/><path fill="#ea4335" d="M379.0 64.416664C379.0 63.864384 379.44772 63.416668 380.0 63.416668L390.0 63.416668C390.55228 63.416668 391.0 63.864384 391.0 64.416664L391.0 74.416664C391.0 74.96895 390.55228 75.416664 390.0 75.416664L380.0 75.416664C379.44772 75.416664 379.0 74.96895 379.0 74.416664Z" fill-rule="nonzero"/><path fill="#1a1a1a" d="M405.5625 64.822914L406.70312 64.822914L406.70312 69.791664Q406.70312 71.08854 406.40625 71.854164Q406.10938 72.604164 405.34375 73.08854Q404.57812 73.55729 403.34375 73.55729Q402.14062 73.55729 401.35938 73.15104Q400.59375 72.729164 400.26562 71.947914Q399.9375 71.15104 399.9375 69.791664L399.9375 64.822914L401.07812 64.822914L401.07812 69.77604Q401.07812 70.90104 401.28125 71.43229Q401.5 71.96354 402.0 72.260414Q402.51562 72.541664 403.25 72.541664Q404.5 72.541664 405.03125 71.979164Q405.5625 71.40104 405.5625 69.77604L405.5625 64.822914ZM408.92188 73.416664L408.92188 64.822914L411.89062 64.822914Q412.89062 64.822914 413.42188 64.947914Q414.15625 65.11979 414.67188 65.55729Q415.35938 66.135414 415.6875 67.041664Q416.03125 67.93229 416.03125 69.072914Q416.03125 70.05729 415.79688 70.80729Q415.57812 71.55729 415.21875 72.05729Q414.85938 72.55729 414.42188 72.83854Q414.0 73.11979 413.40625 73.27604Q412.8125 73.416664 412.03125 73.416664L408.92188 73.416664ZM410.0625 72.40104L411.89062 72.40104Q412.75 72.40104 413.23438 72.24479Q413.71875 72.08854 414.0 71.791664Q414.40625 71.40104 414.625 70.71354Q414.85938 70.02604 414.85938 69.05729Q414.85938 67.71354 414.40625 66.99479Q413.96875 66.260414 413.34375 66.010414Q412.875 65.83854 411.875 65.83854L410.0625 65.83854L410.0625 72.40104ZM417.92188 73.416664L417.92188 64.822914L421.17188 64.822914Q422.01562 64.822914 422.46875 64.90104Q423.10938 65.010414 423.53125 65.30729Q423.96875 65.604164 424.21875 66.135414Q424.48438 66.666664 424.48438 67.30729Q424.48438 68.40104 423.78125 69.166664Q423.09375 69.916664 421.26562 69.916664L419.0625 69.916664L419.0625 73.416664L417.92188 73.416664ZM419.0625 68.916664L421.28125 68.916664Q422.39062 68.916664 422.84375 68.510414Q423.3125 68.08854 423.3125 67.33854Q423.3125 66.80729 423.03125 66.43229Q422.76562 66.041664 422.32812 65.916664Q422.03125 65.83854 421.26562 65.83854L419.0625 65.83854L419.0625 68.916664Z" fill-rule="nonzero"/><path fill="#757575" d="M221.95312 40.05L221.95312 25.7375L232.57812 25.7375L232.57812 28.159374L224.84375 28.159374L224.84375 31.33125L232.03125 31.33125L232.03125 33.7375L224.84375 33.7375L224.84375 37.64375L232.84375 37.64375L232.84375 40.05L221.95312 40.05ZM244.375 40.05L241.625 40.05L241.625 34.753124Q241.625 33.08125 241.45312 32.596874Q241.28125 32.096874 240.875 31.83125Q240.48438 31.55 239.92188 31.55Q239.21875 31.55 238.64062 31.940624Q238.07812 32.33125 237.85938 32.971874Q237.65625 33.6125 237.65625 35.346874L237.65625 40.05L234.92188 40.05L234.92188 29.675L237.46875 29.675L237.46875 31.20625Q238.82812 29.440624 240.89062 29.440624Q241.79688 29.440624 242.54688 29.76875Q243.29688 30.096874 243.67188 30.6125Q244.0625 31.1125 244.21875 31.76875Q244.375 32.409374 244.375 33.596874L244.375 40.05ZM246.9375 40.05L246.9375 25.7375L249.6875 25.7375L249.6875 40.05L246.9375 40.05ZM253.98438 32.846874L251.5 32.39375Q251.92188 30.89375 252.9375 30.175Q253.96875 29.440624 255.98438 29.440624Q257.82812 29.440624 258.71875 29.878124Q259.625 30.315624 259.98438 30.9875Q260.35938 31.64375 260.35938 33.440624L260.32812 36.64375Q260.32812 38.003124 260.45312 38.659374Q260.59375 39.3 260.95312 40.05L258.23438 40.05Q258.125 39.76875 257.96875 39.2375Q257.90625 38.9875 257.875 38.909374Q257.17188 39.596874 256.35938 39.940624Q255.5625 40.284374 254.65625 40.284374Q253.0625 40.284374 252.14062 39.425Q251.21875 38.55 251.21875 37.221874Q251.21875 36.33125 251.625 35.64375Q252.04688 34.95625 252.79688 34.596874Q253.5625 34.221874 255.0 33.95625Q256.92188 33.596874 257.65625 33.284374L257.65625 33.003124Q257.65625 32.221874 257.26562 31.89375Q256.875 31.55 255.79688 31.55Q255.0625 31.55 254.64062 31.83125Q254.23438 32.1125 253.98438 32.846874ZM257.65625 35.065624Q257.125 35.2375 255.98438 35.4875Q254.84375 35.7375 254.5 35.971874Q253.95312 36.346874 253.95312 36.940624Q253.95312 37.503124 254.375 37.925Q254.8125 38.346874 255.48438 38.346874Q256.21875 38.346874 256.89062 37.8625Q257.39062 37.4875 257.54688 36.95625Q257.65625 36.596874 257.65625 35.6125L257.65625 35.065624ZM271.98438 32.7375L269.28125 33.2375Q269.14062 32.425 268.65625 32.01875Q268.17188 31.596874 267.40625 31.596874Q266.375 31.596874 265.76562 32.315624Q265.15625 33.01875 265.15625 34.675Q265.15625 36.51875 265.76562 37.284374Q266.39062 38.05 267.4375 38.05Q268.21875 38.05 268.71875 37.6125Q269.21875 37.159374 269.42188 36.08125L272.10938 36.534374Q271.70312 38.39375 270.5 39.346874Q269.3125 40.284374 267.3125 40.284374Q265.03125 40.284374 263.67188 38.846874Q262.32812 37.409374 262.32812 34.878124Q262.32812 32.3 263.6875 30.878124Q265.04688 29.440624 267.35938 29.440624Q269.25 29.440624 270.35938 30.26875Q271.48438 31.08125 271.98438 32.7375ZM279.9375 36.753124L282.67188 37.20625Q282.15625 38.70625 281.01562 39.503124Q279.875 40.284374 278.17188 40.284374Q275.45312 40.284374 274.15625 38.51875Q273.14062 37.096874 273.14062 34.940624Q273.14062 32.3625 274.48438 30.909374Q275.82812 29.440624 277.89062 29.440624Q280.20312 29.440624 281.53125 30.971874Q282.875 32.503124 282.82812 35.659374L275.95312 35.659374Q275.98438 36.878124 276.60938 37.565624Q277.25 38.2375 278.1875 38.2375Q278.84375 38.2375 279.28125 37.89375Q279.71875 37.534374 279.9375 36.753124ZM280.09375 33.971874Q280.0625 32.784374 279.46875 32.175Q278.89062 31.55 278.0625 31.55Q277.15625 31.55 276.57812 32.190624Q275.98438 32.846874 276.0 33.971874L280.09375 33.971874ZM283.96875 37.096874L286.71875 36.675Q286.90625 37.471874 287.4375 37.89375Q287.96875 38.3 288.9375 38.3Q290.0 38.3 290.54688 37.909374Q290.90625 37.64375 290.90625 37.175Q290.90625 36.8625 290.70312 36.659374Q290.5 36.471874 289.79688 36.3Q286.46875 35.565624 285.57812 34.95625Q284.34375 34.128124 284.34375 32.628124Q284.34375 31.284374 285.40625 30.3625Q286.48438 29.440624 288.71875 29.440624Q290.84375 29.440624 291.875 30.14375Q292.92188 30.83125 293.3125 32.190624L290.71875 32.659374Q290.54688 32.065624 290.07812 31.7375Q289.625 31.409374 288.76562 31.409374Q287.6875 31.409374 287.21875 31.721874Q286.90625 31.940624 286.90625 32.26875Q286.90625 32.565624 287.17188 32.76875Q287.54688 33.05 289.73438 33.55Q291.92188 34.05 292.79688 34.76875Q293.65625 35.503124 293.65625 36.8Q293.65625 38.2375 292.46875 39.26875Q291.28125 40.284374 288.9375 40.284374Q286.82812 40.284374 285.57812 39.425Q284.34375 38.565624 283.96875 37.096874ZM308.375 40.05L305.625 40.05L305.625 29.70625Q304.125 31.1125 302.07812 31.784374L302.07812 29.3Q303.15625 28.940624 304.40625 27.971874Q305.67188 26.9875 306.14062 25.675L308.375 25.675L308.375 40.05ZM316.98438 25.675Q319.0625 25.675 320.23438 27.159374Q321.64062 28.909374 321.64062 32.9875Q321.64062 37.05 320.23438 38.83125Q319.0625 40.3 316.98438 40.3Q314.90625 40.3 313.625 38.690624Q312.34375 37.08125 312.34375 32.95625Q312.34375 28.909374 313.75 27.14375Q314.90625 25.675 316.98438 25.675ZM316.98438 27.95625Q316.48438 27.95625 316.09375 28.26875Q315.70312 28.58125 315.5 29.409374Q315.21875 30.471874 315.21875 32.9875Q315.21875 35.503124 315.46875 36.45625Q315.71875 37.39375 316.09375 37.70625Q316.48438 38.01875 316.98438 38.01875Q317.48438 38.01875 317.875 37.70625Q318.26562 37.378124 318.48438 36.565624Q318.76562 35.503124 318.76562 32.9875Q318.76562 30.471874 318.51562 29.534374Q318.26562 28.58125 317.875 28.26875Q317.48438 27.95625 316.98438 27.95625ZM327.98438 25.675Q330.0625 25.675 331.23438 27.159374Q332.64062 28.909374 332.64062 32.9875Q332.64062 37.05 331.23438 38.83125Q330.0625 40.3 327.98438 40.3Q325.90625 40.3 324.625 38.690624Q323.34375 37.08125 323.34375 32.95625Q323.34375 28.909374 324.75 27.14375Q325.90625 25.675 327.98438 25.675ZM327.98438 27.95625Q327.48438 27.95625 327.09375 28.26875Q326.70312 28.58125 326.5 29.409374Q326.21875 30.471874 326.21875 32.9875Q326.21875 35.503124 326.46875 36.45625Q326.71875 37.39375 327.09375 37.70625Q327.48438 38.01875 327.98438 38.01875Q328.48438 38.01875 328.875 37.70625Q329.26562 37.378124 329.48438 36.565624Q329.76562 35.503124 329.76562 32.9875Q329.76562 30.471874 329.51562 29.534374Q329.26562 28.58125 328.875 28.26875Q328.48438 27.95625 327.98438 27.95625ZM338.98438 25.675Q341.0625 25.675 342.23438 27.159374Q343.64062 28.909374 343.64062 32.9875Q343.64062 37.05 342.23438 38.83125Q341.0625 40.3 338.98438 40.3Q336.90625 40.3 335.625 38.690624Q334.34375 37.08125 334.34375 32.95625Q334.34375 28.909374 335.75 27.14375Q336.90625 25.675 338.98438 25.675ZM338.98438 27.95625Q338.48438 27.95625 338.09375 28.26875Q337.70312 28.58125 337.5 29.409374Q337.21875 30.471874 337.21875 32.9875Q337.21875 35.503124 337.46875 36.45625Q337.71875 37.39375 338.09375 37.70625Q338.48438 38.01875 338.98438 38.01875Q339.48438 38.01875 339.875 37.70625Q340.26562 37.378124 340.48438 36.565624Q340.76562 35.503124 340.76562 32.9875Q340.76562 30.471874 340.51562 29.534374Q340.26562 28.58125 339.875 28.26875Q339.48438 27.95625 338.98438 27.95625ZM351.92188 40.05L351.92188 25.7375L356.25 25.7375L358.84375 35.503124L361.40625 25.7375L365.75 25.7375L365.75 40.05L363.0625 40.05L363.0625 28.784374L360.21875 40.05L357.4375 40.05L354.60938 28.784374L354.60938 40.05L351.92188 40.05ZM368.8125 40.05L368.8125 25.7375L371.5625 25.7375L371.5625 30.89375Q372.82812 29.440624 374.57812 29.440624Q376.46875 29.440624 377.70312 30.815624Q378.95312 32.190624 378.95312 34.753124Q378.95312 37.409374 377.6875 38.846874Q376.42188 40.284374 374.60938 40.284374Q373.71875 40.284374 372.85938 39.846874Q372.0 39.39375 371.375 38.51875L371.375 40.05L368.8125 40.05ZM371.54688 34.64375Q371.54688 36.253124 372.04688 37.01875Q372.76562 38.1125 373.95312 38.1125Q374.85938 38.1125 375.5 37.346874Q376.14062 36.565624 376.14062 34.89375Q376.14062 33.1125 375.48438 32.33125Q374.84375 31.55 373.84375 31.55Q372.85938 31.55 372.20312 32.315624Q371.54688 33.08125 371.54688 34.64375ZM380.85938 29.675L383.42188 29.675L383.42188 31.20625Q383.92188 30.425 384.76562 29.940624Q385.60938 29.440624 386.65625 29.440624Q388.45312 29.440624 389.70312 30.8625Q390.96875 32.26875 390.96875 34.8Q390.96875 37.409374 389.70312 38.846874Q388.4375 40.284374 386.625 40.284374Q385.76562 40.284374 385.0625 39.940624Q384.375 39.596874 383.60938 38.76875L383.60938 44.003124L380.85938 44.003124L380.85938 29.675ZM383.57812 34.690624Q383.57812 36.440624 384.26562 37.284374Q384.95312 38.1125 385.95312 38.1125Q386.90625 38.1125 387.54688 37.346874Q388.1875 36.565624 388.1875 34.83125Q388.1875 33.190624 387.53125 32.409374Q386.875 31.6125 385.90625 31.6125Q384.90625 31.6125 384.23438 32.39375Q383.57812 33.159374 383.57812 34.690624ZM391.96875 37.096874L394.71875 36.675Q394.90625 37.471874 395.4375 37.89375Q395.96875 38.3 396.9375 38.3Q398.0 38.3 398.54688 37.909374Q398.90625 37.64375 398.90625 37.175Q398.90625 36.8625 398.70312 36.659374Q398.5 36.471874 397.79688 36.3Q394.46875 35.565624 393.57812 34.95625Q392.34375 34.128124 392.34375 32.628124Q392.34375 31.284374 393.40625 30.3625Q394.48438 29.440624 396.71875 29.440624Q398.84375 29.440624 399.875 30.14375Q400.92188 30.83125 401.3125 32.190624L398.71875 32.659374Q398.54688 32.065624 398.07812 31.7375Q397.625 31.409374 396.76562 31.409374Q395.6875 31.409374 395.21875 31.721874Q394.90625 31.940624 394.90625 32.26875Q394.90625 32.565624 395.17188 32.76875Q395.54688 33.05 397.73438 33.55Q399.92188 34.05 400.79688 34.76875Q401.65625 35.503124 401.65625 36.8Q401.65625 38.2375 400.46875 39.26875Q399.28125 40.284374 396.9375 40.284374Q394.82812 40.284374 393.57812 39.425Q392.34375 38.565624 391.96875 37.096874ZM408.45312 35.89375L408.45312 33.83125L419.57812 33.83125L419.57812 35.89375L408.45312 35.89375ZM433.375 40.05L430.625 40.05L430.625 29.70625Q429.125 31.1125 427.07812 31.784374L427.07812 29.3Q428.15625 28.940624 429.40625 27.971874Q430.67188 26.9875 431.14062 25.675L433.375 25.675L433.375 40.05ZM437.39062 36.3625L440.125 36.08125Q440.23438 37.01875 440.8125 37.565624Q441.39062 38.096874 442.14062 38.096874Q443.0 38.096874 443.59375 37.409374Q444.20312 36.70625 444.20312 35.3Q444.20312 33.971874 443.60938 33.315624Q443.01562 32.659374 442.0625 32.659374Q440.89062 32.659374 439.95312 33.70625L437.71875 33.378124L439.125 25.925L446.39062 25.925L446.39062 28.503124L441.20312 28.503124L440.78125 30.925Q441.70312 30.471874 442.65625 30.471874Q444.48438 30.471874 445.75 31.8Q447.01562 33.128124 447.01562 35.2375Q447.01562 37.01875 446.0 38.39375Q444.59375 40.3 442.10938 40.3Q440.14062 40.3 438.89062 39.2375Q437.64062 38.159374 437.39062 36.3625ZM452.98438 25.675Q455.0625 25.675 456.23438 27.159374Q457.64062 28.909374 457.64062 32.9875Q457.64062 37.05 456.23438 38.83125Q455.0625 40.3 452.98438 40.3Q450.90625 40.3 449.625 38.690624Q448.34375 37.08125 448.34375 32.95625Q448.34375 28.909374 449.75 27.14375Q450.90625 25.675 452.98438 25.675ZM452.98438 27.95625Q452.48438 27.95625 452.09375 28.26875Q451.70312 28.58125 451.5 29.409374Q451.21875 30.471874 451.21875 32.9875Q451.21875 35.503124 451.46875 36.45625Q451.71875 37.39375 452.09375 37.70625Q452.48438 38.01875 452.98438 38.01875Q453.48438 38.01875 453.875 37.70625Q454.26562 37.378124 454.48438 36.565624Q454.76562 35.503124 454.76562 32.9875Q454.76562 30.471874 454.51562 29.534374Q454.26562 28.58125 453.875 28.26875Q453.48438 27.95625 452.98438 27.95625ZM463.98438 25.675Q466.0625 25.675 467.23438 27.159374Q468.64062 28.909374 468.64062 32.9875Q468.64062 37.05 467.23438 38.83125Q466.0625 40.3 463.98438 40.3Q461.90625 40.3 460.625 38.690624Q459.34375 37.08125 459.34375 32.95625Q459.34375 28.909374 460.75 27.14375Q461.90625 25.675 463.98438 25.675ZM463.98438 27.95625Q463.48438 27.95625 463.09375 28.26875Q462.70312 28.58125 462.5 29.409374Q462.21875 30.471874 462.21875 32.9875Q462.21875 35.503124 462.46875 36.45625Q462.71875 37.39375 463.09375 37.70625Q463.48438 38.01875 463.98438 38.01875Q464.48438 38.01875 464.875 37.70625Q465.26562 37.378124 465.48438 36.565624Q465.76562 35.503124 465.76562 32.9875Q465.76562 30.471874 465.51562 29.534374Q465.26562 28.58125 464.875 28.26875Q464.48438 27.95625 463.98438 27.95625ZM476.92188 40.05L476.92188 25.7375L481.25 25.7375L483.84375 35.503124L486.40625 25.7375L490.75 25.7375L490.75 40.05L488.0625 40.05L488.0625 28.784374L485.21875 40.05L482.4375 40.05L479.60938 28.784374L479.60938 40.05L476.92188 40.05ZM497.17188 40.05L497.17188 28.159374L492.9375 28.159374L492.9375 25.7375L504.3125 25.7375L504.3125 28.159374L500.0625 28.159374L500.0625 40.05L497.17188 40.05ZM506.9375 25.7375L509.82812 25.7375L509.82812 33.4875Q509.82812 35.33125 509.9375 35.878124Q510.125 36.753124 510.8125 37.284374Q511.51562 37.815624 512.7344 37.815624Q513.9531 37.815624 514.5781 37.315624Q515.2031 36.815624 515.3281 36.08125Q515.46875 35.346874 515.46875 33.659374L515.46875 25.7375L518.3594 25.7375L518.3594 33.253124Q518.3594 35.83125 518.125 36.89375Q517.8906 37.95625 517.25 38.690624Q516.625 39.425 515.5625 39.8625Q514.5156 40.3 512.8125 40.3Q510.76562 40.3 509.70312 39.83125Q508.64062 39.346874 508.03125 38.596874Q507.42188 37.83125 507.21875 37.003124Q506.9375 35.76875 506.9375 33.3625L506.9375 25.7375Z" fill-rule="nonzero"/></svg>