<svg version="1.1" viewBox="0.0 0.0 736.0 457.0" fill="none" stroke="none" stroke-linecap="square" stroke-miterlimit="10" width="736" height="457" xmlns:xlink="http://www.w3.org/1999/xlink" xmlns="http://www.w3.org/2000/svg"><path fill="#ffffff" d="M0 0L736.0 0L736.0 457.0L0 457.0L0 0Z" fill-rule="nonzero"/><path stroke="#333333" stroke-width="1.0" stroke-linecap="butt" d="M56.5 382.5L713.5 382.5" fill-rule="nonzero"/><path stroke="#cccccc" stroke-width="1.0" stroke-linecap="butt" d="M56.5 311.5L713.5 311.5" fill-rule="nonzero"/><path stroke="#cccccc" stroke-width="1.0" stroke-linecap="butt" d="M56.5 240.5L713.5 240.5" fill-rule="nonzero"/><path stroke="#cccccc" stroke-width="1.0" stroke-linecap="butt" d="M56.5 169.5L713.5 169.5" fill-rule="nonzero"/><path stroke="#cccccc" stroke-width="1.0" stroke-linecap="butt" d="M56.5 98.5L713.5 98.5" fill-rule="nonzero"/><clipPath id="id_0"><path d="M56.85 98.316666L713.15 98.316666L713.15 382.15L56.85 382.15L56.85 98.316666Z" clip-rule="nonzero"/></clipPath><path stroke="#000000" stroke-width="2.0" stroke-linecap="butt" stroke-opacity="0.0" clip-path="url(#id_0)" d="M244.0 382.0L155.0 382.0L155.0 116.0C155.0 114.89543 155.89543 114.0 157.0 114.0L242.0 114.0C243.10457 114.0 244.0 114.89543 244.0 116.0Z" fill-rule="nonzero"/><path fill="#4285f4" clip-path="url(#id_0)" d="M244.0 382.0L155.0 382.0L155.0 116.0C155.0 114.89543 155.89543 114.0 157.0 114.0L242.0 114.0C243.10457 114.0 244.0 114.89543 244.0 116.0Z" fill-rule="nonzero"/><path stroke="#000000" stroke-width="2.0" stroke-linecap="butt" stroke-opacity="0.0" clip-path="url(#id_0)" d="M524.0 382.0L435.0 382.0L435.0 115.0C435.0 113.89543 435.89542 113.0 437.0 113.0L522.0 113.0C523.10455 113.0 524.0 113.89543 524.0 115.0Z" fill-rule="nonzero"/><path fill="#4285f4" clip-path="url(#id_0)" d="M524.0 382.0L435.0 382.0L435.0 115.0C435.0 113.89543 435.89542 113.0 437.0 113.0L522.0 113.0C523.10455 113.0 524.0 113.89543 524.0 115.0Z" fill-rule="nonzero"/><path stroke="#000000" stroke-width="2.0" stroke-linecap="butt" stroke-opacity="0.0" clip-path="url(#id_0)" d="M335.0 382.0L246.0 382.0L246.0 101.0C246.0 99.89543 246.89543 99.0 248.0 99.0L333.0 99.0C334.10458 99.0 335.0 99.89543 335.0 101.0Z" fill-rule="nonzero"/><path fill="#ea4335" clip-path="url(#id_0)" d="M335.0 382.0L246.0 382.0L246.0 101.0C246.0 99.89543 246.89543 99.0 248.0 99.0L333.0 99.0C334.10458 99.0 335.0 99.89543 335.0 101.0Z" fill-rule="nonzero"/><path stroke="#000000" stroke-width="2.0" stroke-linecap="butt" stroke-opacity="0.0" clip-path="url(#id_0)" d="M615.0 382.0L526.0 382.0L526.0 111.0C526.0 109.89543 526.89545 109.0 528.0 109.0L613.0 109.0C614.10455 109.0 615.0 109.89543 615.0 111.0Z" fill-rule="nonzero"/><path fill="#ea4335" clip-path="url(#id_0)" d="M615.0 382.0L526.0 382.0L526.0 111.0C526.0 109.89543 526.89545 109.0 528.0 109.0L613.0 109.0C614.10455 109.0 615.0 109.89543 615.0 111.0Z" fill-rule="nonzero"/><path stroke="#4285f4" stroke-width="3.0" stroke-linejoin="round" stroke-linecap="round" d="M185.85938 126.605675Q185.53125 127.011925 185.04688 127.261925Q184.57812 127.4963 184.01562 127.4963Q183.28125 127.4963 182.73438 127.136925Q182.1875 126.77755 181.89062 126.1213Q181.59375 125.449425 181.59375 124.65255Q181.59375 123.8088 181.90625 123.1213Q182.23438 122.4338 182.82812 122.074425Q183.4375 121.699425 184.23438 121.699425Q185.5 121.699425 186.21875 122.65255Q186.95312 123.605675 186.95312 125.230675L186.95312 125.543175Q186.95312 128.04318 185.96875 129.1838Q184.98438 130.32443 183.0 130.35568L182.78125 130.35568L182.78125 129.44943L183.01562 129.44943Q184.35938 129.41818 185.07812 128.7463Q185.79688 128.07443 185.85938 126.605675ZM184.1875 126.605675Q184.73438 126.605675 185.1875 126.27755Q185.65625 125.9338 185.875 125.449425L185.875 125.011925Q185.875 123.949425 185.40625 123.27755Q184.9375 122.605675 184.23438 122.605675Q183.51562 122.605675 183.07812 123.15255Q182.65625 123.699425 182.65625 124.605675Q182.65625 125.480675 183.0625 126.043175Q183.48438 126.605675 184.1875 126.605675ZM193.28125 127.4963L194.46875 127.4963L194.46875 128.3713L193.28125 128.3713L193.28125 130.35568L192.20312 130.35568L192.20312 128.3713L188.3125 128.3713L188.3125 127.730675L192.125 121.824425L193.28125 121.824425L193.28125 127.4963ZM189.54688 127.4963L192.20312 127.4963L192.20312 123.3088L192.0625 123.543175L189.54688 127.4963ZM199.96875 121.824425L199.96875 122.730675L199.76562 122.730675Q198.5 122.761925 197.75 123.4963Q197.0 124.21505 196.875 125.52755Q197.5625 124.761925 198.71875 124.761925Q199.82812 124.761925 200.5 125.543175Q201.17188 126.324425 201.17188 127.574425Q201.17188 128.88693 200.45312 129.6838Q199.73438 130.48068 198.51562 130.48068Q197.29688 130.48068 196.53125 129.54318Q195.78125 128.59006 195.78125 127.105675L195.78125 126.699425Q195.78125 124.34005 196.78125 123.09005Q197.78125 121.84005 199.76562 121.824425L199.96875 121.824425ZM198.54688 125.668175Q197.98438 125.668175 197.51562 125.9963Q197.04688 126.324425 196.85938 126.84005L196.85938 127.230675Q196.85938 128.29318 197.32812 128.9338Q197.8125 129.57443 198.51562 129.57443Q199.25 129.57443 199.67188 129.04318Q200.09375 128.4963 200.09375 127.6213Q200.09375 126.7463 199.67188 126.21505Q199.25 125.668175 198.54688 125.668175ZM202.78125 132.0588L202.17188 131.63693Q202.71875 130.8713 202.75 130.04318L202.75 129.07443L203.8125 129.07443L203.8125 129.91818Q203.8125 130.51193 203.51562 131.10568Q203.21875 131.69943 202.78125 132.0588ZM206.28125 125.5588L207.09375 125.5588Q207.875 125.543175 208.3125 125.15255Q208.75 124.761925 208.75 124.09005Q208.75 122.59005 207.25 122.59005Q206.54688 122.59005 206.125 122.9963Q205.71875 123.40255 205.71875 124.0588L204.625 124.0588Q204.625 123.043175 205.35938 122.3713Q206.10938 121.699425 207.25 121.699425Q208.45312 121.699425 209.14062 122.34005Q209.82812 122.980675 209.82812 124.1213Q209.82812 124.6838 209.46875 125.199425Q209.10938 125.71505 208.48438 125.980675Q209.1875 126.199425 209.5625 126.71505Q209.95312 127.230675 209.95312 127.980675Q209.95312 129.1213 209.20312 129.8088Q208.45312 130.48068 207.25 130.48068Q206.0625 130.48068 205.29688 129.82443Q204.54688 129.16818 204.54688 128.10568L205.64062 128.10568Q205.64062 128.77756 206.07812 129.1838Q206.51562 129.59006 207.26562 129.59006Q208.04688 129.59006 208.45312 129.1838Q208.875 128.76193 208.875 127.9963Q208.875 127.261925 208.42188 126.8713Q207.96875 126.46505 207.09375 126.449425L206.28125 126.449425L206.28125 125.5588ZM215.26562 130.35568L214.1875 130.35568L214.1875 123.136925L212.0 123.9338L212.0 122.949425L215.10938 121.77755L215.26562 121.77755L215.26562 130.35568Z" fill-rule="nonzero"/><path fill="#ffffff" d="M185.85938 126.60568Q185.53125 127.01193 185.04688 127.26193Q184.57812 127.49631 184.01562 127.49631Q183.28125 127.49631 182.73438 127.13693Q182.1875 126.77756 181.89062 126.12131Q181.59375 125.44943 181.59375 124.65256Q181.59375 123.80881 181.90625 123.12131Q182.23438 122.43381 182.82812 122.07443Q183.4375 121.69943 184.23438 121.69943Q185.5 121.69943 186.21875 122.65256Q186.95312 123.60568 186.95312 125.23068L186.95312 125.54318Q186.95312 128.04318 185.96875 129.1838Q184.98438 130.32443 183.0 130.35568L182.78125 130.35568L182.78125 129.44943L183.01562 129.44943Q184.35938 129.41818 185.07812 128.7463Q185.79688 128.07443 185.85938 126.60568ZM184.1875 126.60568Q184.73438 126.60568 185.1875 126.27756Q185.65625 125.93381 185.875 125.44943L185.875 125.01193Q185.875 123.94943 185.40625 123.27756Q184.9375 122.60568 184.23438 122.60568Q183.51562 122.60568 183.07812 123.15256Q182.65625 123.69943 182.65625 124.60568Q182.65625 125.48068 183.0625 126.04318Q183.48438 126.60568 184.1875 126.60568ZM193.28125 127.49631L194.46875 127.49631L194.46875 128.3713L193.28125 128.3713L193.28125 130.35568L192.20312 130.35568L192.20312 128.3713L188.3125 128.3713L188.3125 127.73068L192.125 121.82443L193.28125 121.82443L193.28125 127.49631ZM189.54688 127.49631L192.20312 127.49631L192.20312 123.30881L192.0625 123.54318L189.54688 127.49631ZM199.96875 121.82443L199.96875 122.73068L199.76562 122.73068Q198.5 122.76193 197.75 123.49631Q197.0 124.21506 196.875 125.52756Q197.5625 124.76193 198.71875 124.76193Q199.82812 124.76193 200.5 125.54318Q201.17188 126.32443 201.17188 127.57443Q201.17188 128.88693 200.45312 129.6838Q199.73438 130.48068 198.51562 130.48068Q197.29688 130.48068 196.53125 129.54318Q195.78125 128.59006 195.78125 127.10568L195.78125 126.69943Q195.78125 124.34006 196.78125 123.09006Q197.78125 121.84006 199.76562 121.82443L199.96875 121.82443ZM198.54688 125.66818Q197.98438 125.66818 197.51562 125.99631Q197.04688 126.32443 196.85938 126.84006L196.85938 127.23068Q196.85938 128.29318 197.32812 128.9338Q197.8125 129.57443 198.51562 129.57443Q199.25 129.57443 199.67188 129.04318Q200.09375 128.4963 200.09375 127.62131Q200.09375 126.74631 199.67188 126.21506Q199.25 125.66818 198.54688 125.66818ZM202.78125 132.0588L202.17188 131.63693Q202.71875 130.8713 202.75 130.04318L202.75 129.07443L203.8125 129.07443L203.8125 129.91818Q203.8125 130.51193 203.51562 131.10568Q203.21875 131.69943 202.78125 132.0588ZM206.28125 125.55881L207.09375 125.55881Q207.875 125.54318 208.3125 125.15256Q208.75 124.76193 208.75 124.09006Q208.75 122.59006 207.25 122.59006Q206.54688 122.59006 206.125 122.99631Q205.71875 123.40256 205.71875 124.05881L204.625 124.05881Q204.625 123.04318 205.35938 122.37131Q206.10938 121.69943 207.25 121.69943Q208.45312 121.69943 209.14062 122.34006Q209.82812 122.98068 209.82812 124.12131Q209.82812 124.68381 209.46875 125.19943Q209.10938 125.71506 208.48438 125.98068Q209.1875 126.19943 209.5625 126.71506Q209.95312 127.23068 209.95312 127.98068Q209.95312 129.1213 209.20312 129.8088Q208.45312 130.48068 207.25 130.48068Q206.0625 130.48068 205.29688 129.82443Q204.54688 129.16818 204.54688 128.10568L205.64062 128.10568Q205.64062 128.77756 206.07812 129.1838Q206.51562 129.59006 207.26562 129.59006Q208.04688 129.59006 208.45312 129.1838Q208.875 128.76193 208.875 127.99631Q208.875 127.26193 208.42188 126.87131Q207.96875 126.46506 207.09375 126.44943L206.28125 126.44943L206.28125 125.55881ZM215.26562 130.35568L214.1875 130.35568L214.1875 123.13693L212.0 123.93381L212.0 122.94943L215.10938 121.77756L215.26562 121.77756L215.26562 130.35568Z" fill-rule="nonzero"/><path stroke="#4285f4" stroke-width="3.0" stroke-linejoin="round" stroke-linecap="round" d="M473.85938 126.126Q473.53125 126.53225 473.04688 126.78225Q472.57812 127.016624 472.01562 127.016624Q471.28125 127.016624 470.73438 126.65725Q470.1875 126.297874 469.89062 125.641624Q469.59375 124.96975 469.59375 124.172874Q469.59375 123.329124 469.90625 122.641624Q470.23438 121.954124 470.82812 121.59475Q471.4375 121.21975 472.23438 121.21975Q473.5 121.21975 474.21875 122.172874Q474.95312 123.126 474.95312 124.751L474.95312 125.0635Q474.95312 127.5635 473.96875 128.70413Q472.98438 129.84476 471.0 129.876L470.78125 129.876L470.78125 128.96976L471.01562 128.96976Q472.35938 128.9385 473.07812 128.26663Q473.79688 127.59475 473.85938 126.126ZM472.1875 126.126Q472.73438 126.126 473.1875 125.797874Q473.65625 125.454124 473.875 124.96975L473.875 124.53225Q473.875 123.46975 473.40625 122.797874Q472.9375 122.126 472.23438 122.126Q471.51562 122.126 471.07812 122.672874Q470.65625 123.21975 470.65625 124.126Q470.65625 125.001 471.0625 125.5635Q471.48438 126.126 472.1875 126.126ZM481.28125 127.016624L482.46875 127.016624L482.46875 127.891624L481.28125 127.891624L481.28125 129.876L480.20312 129.876L480.20312 127.891624L476.3125 127.891624L476.3125 127.251L480.125 121.34475L481.28125 121.34475L481.28125 127.016624ZM477.54688 127.016624L480.20312 127.016624L480.20312 122.829124L480.0625 123.0635L477.54688 127.016624ZM488.89062 123.5635Q488.89062 124.204124 488.54688 124.704124Q488.20312 125.204124 487.64062 125.485374Q488.29688 125.766624 488.6875 126.329124Q489.07812 126.876 489.07812 127.579124Q489.07812 128.67288 488.32812 129.34476Q487.59375 130.001 486.375 130.001Q485.14062 130.001 484.39062 129.34476Q483.65625 128.67288 483.65625 127.579124Q483.65625 126.876 484.03125 126.329124Q484.40625 125.766624 485.07812 125.485374Q484.51562 125.204124 484.1875 124.704124Q483.85938 124.204124 483.85938 123.5635Q483.85938 122.485374 484.54688 121.860374Q485.23438 121.21975 486.375 121.21975Q487.5 121.21975 488.1875 121.860374Q488.89062 122.485374 488.89062 123.5635ZM488.0 127.547874Q488.0 126.829124 487.54688 126.391624Q487.09375 125.9385 486.35938 125.9385Q485.625 125.9385 485.17188 126.391624Q484.73438 126.829124 484.73438 127.5635Q484.73438 128.28226 485.17188 128.70413Q485.60938 129.11038 486.375 129.11038Q487.125 129.11038 487.5625 128.6885Q488.0 128.26663 488.0 127.547874ZM486.375 122.110374Q485.73438 122.110374 485.32812 122.516624Q484.9375 122.90725 484.9375 123.59475Q484.9375 124.235374 485.32812 124.641624Q485.71875 125.047874 486.35938 125.047874Q487.01562 125.047874 487.40625 124.641624Q487.79688 124.235374 487.79688 123.59475Q487.79688 122.9385 487.39062 122.53225Q486.98438 122.110374 486.375 122.110374Z" fill-rule="nonzero"/><path fill="#ffffff" d="M473.85938 126.12601Q473.53125 126.53226 473.04688 126.78226Q472.57812 127.01663 472.01562 127.01663Q471.28125 127.01663 470.73438 126.65726Q470.1875 126.29788 469.89062 125.64163Q469.59375 124.96976 469.59375 124.17288Q469.59375 123.32913 469.90625 122.64163Q470.23438 121.95413 470.82812 121.59476Q471.4375 121.21976 472.23438 121.21976Q473.5 121.21976 474.21875 122.17288Q474.95312 123.12601 474.95312 124.75101L474.95312 125.06351Q474.95312 127.56351 473.96875 128.70413Q472.98438 129.84476 471.0 129.876L470.78125 129.876L470.78125 128.96976L471.01562 128.96976Q472.35938 128.9385 473.07812 128.26663Q473.79688 127.59476 473.85938 126.12601ZM472.1875 126.12601Q472.73438 126.12601 473.1875 125.79788Q473.65625 125.45413 473.875 124.96976L473.875 124.53226Q473.875 123.46976 473.40625 122.79788Q472.9375 122.12601 472.23438 122.12601Q471.51562 122.12601 471.07812 122.67288Q470.65625 123.21976 470.65625 124.12601Q470.65625 125.00101 471.0625 125.56351Q471.48438 126.12601 472.1875 126.12601ZM481.28125 127.01663L482.46875 127.01663L482.46875 127.89163L481.28125 127.89163L481.28125 129.876L480.20312 129.876L480.20312 127.89163L476.3125 127.89163L476.3125 127.25101L480.125 121.34476L481.28125 121.34476L481.28125 127.01663ZM477.54688 127.01663L480.20312 127.01663L480.20312 122.82913L480.0625 123.06351L477.54688 127.01663ZM488.89062 123.56351Q488.89062 124.20413 488.54688 124.70413Q488.20312 125.20413 487.64062 125.48538Q488.29688 125.76663 488.6875 126.32913Q489.07812 126.87601 489.07812 127.57913Q489.07812 128.67288 488.32812 129.34476Q487.59375 130.001 486.375 130.001Q485.14062 130.001 484.39062 129.34476Q483.65625 128.67288 483.65625 127.57913Q483.65625 126.87601 484.03125 126.32913Q484.40625 125.76663 485.07812 125.48538Q484.51562 125.20413 484.1875 124.70413Q483.85938 124.20413 483.85938 123.56351Q483.85938 122.48538 484.54688 121.86038Q485.23438 121.21976 486.375 121.21976Q487.5 121.21976 488.1875 121.86038Q488.89062 122.48538 488.89062 123.56351ZM488.0 127.54788Q488.0 126.82913 487.54688 126.39163Q487.09375 125.93851 486.35938 125.93851Q485.625 125.93851 485.17188 126.39163Q484.73438 126.82913 484.73438 127.56351Q484.73438 128.28226 485.17188 128.70413Q485.60938 129.11038 486.375 129.11038Q487.125 129.11038 487.5625 128.6885Q488.0 128.26663 488.0 127.54788ZM486.375 122.11038Q485.73438 122.11038 485.32812 122.51663Q484.9375 122.90726 484.9375 123.59476Q484.9375 124.23538 485.32812 124.64163Q485.71875 125.04788 486.35938 125.04788Q487.01562 125.04788 487.40625 124.64163Q487.79688 124.23538 487.79688 123.59476Q487.79688 122.93851 487.39062 122.53226Q486.98438 122.11038 486.375 122.11038Z" fill-rule="nonzero"/><path stroke="#ea4335" stroke-width="3.0" stroke-linejoin="round" stroke-linecap="round" d="M276.85938 112.138695Q276.53125 112.544945 276.04688 112.794945Q275.57812 113.02932 275.01562 113.02932Q274.28125 113.02932 273.73438 112.669945Q273.1875 112.31057 272.89062 111.65432Q272.59375 110.982445 272.59375 110.18557Q272.59375 109.34182 272.90625 108.65432Q273.23438 107.96682 273.82812 107.607445Q274.4375 107.232445 275.23438 107.232445Q276.5 107.232445 277.21875 108.18557Q277.95312 109.138695 277.95312 110.763695L277.95312 111.076195Q277.95312 113.576195 276.96875 114.71682Q275.98438 115.857445 274.0 115.888695L273.78125 115.888695L273.78125 114.982445L274.01562 114.982445Q275.35938 114.951195 276.07812 114.27932Q276.79688 113.607445 276.85938 112.138695ZM275.1875 112.138695Q275.73438 112.138695 276.1875 111.81057Q276.65625 111.46682 276.875 110.982445L276.875 110.544945Q276.875 109.482445 276.40625 108.81057Q275.9375 108.138695 275.23438 108.138695Q274.51562 108.138695 274.07812 108.68557Q273.65625 109.232445 273.65625 110.138695Q273.65625 111.013695 274.0625 111.576195Q274.48438 112.138695 275.1875 112.138695ZM283.85938 112.138695Q283.53125 112.544945 283.04688 112.794945Q282.57812 113.02932 282.01562 113.02932Q281.28125 113.02932 280.73438 112.669945Q280.1875 112.31057 279.89062 111.65432Q279.59375 110.982445 279.59375 110.18557Q279.59375 109.34182 279.90625 108.65432Q280.23438 107.96682 280.82812 107.607445Q281.4375 107.232445 282.23438 107.232445Q283.5 107.232445 284.21875 108.18557Q284.95312 109.138695 284.95312 110.763695L284.95312 111.076195Q284.95312 113.576195 283.96875 114.71682Q282.98438 115.857445 281.0 115.888695L280.78125 115.888695L280.78125 114.982445L281.01562 114.982445Q282.35938 114.951195 283.07812 114.27932Q283.79688 113.607445 283.85938 112.138695ZM282.1875 112.138695Q282.73438 112.138695 283.1875 111.81057Q283.65625 111.46682 283.875 110.982445L283.875 110.544945Q283.875 109.482445 283.40625 108.81057Q282.9375 108.138695 282.23438 108.138695Q281.51562 108.138695 281.07812 108.68557Q280.65625 109.232445 280.65625 110.138695Q280.65625 111.013695 281.0625 111.576195Q281.48438 112.138695 282.1875 112.138695ZM292.21875 107.96682L288.6875 115.888695L287.54688 115.888695L291.0625 108.24807L286.45312 108.24807L286.45312 107.357445L292.21875 107.357445L292.21875 107.96682ZM293.78125 117.59182L293.17188 117.169945Q293.71875 116.40432 293.75 115.576195L293.75 114.607445L294.8125 114.607445L294.8125 115.451195Q294.8125 116.044945 294.51562 116.638695Q294.21875 117.232445 293.78125 117.59182ZM301.29688 115.888695L295.70312 115.888695L295.70312 115.107445L298.65625 111.826195Q299.3125 111.076195 299.5625 110.62307Q299.8125 110.15432 299.8125 109.65432Q299.8125 108.982445 299.40625 108.56057Q299.01562 108.12307 298.32812 108.12307Q297.53125 108.12307 297.07812 108.59182Q296.625 109.044945 296.625 109.87307L295.54688 109.87307Q295.54688 108.68557 296.29688 107.96682Q297.0625 107.232445 298.32812 107.232445Q299.53125 107.232445 300.21875 107.857445Q300.90625 108.482445 300.90625 109.52932Q300.90625 110.77932 299.29688 112.52932L297.01562 114.99807L301.29688 114.99807L301.29688 115.888695ZM307.89062 109.576195Q307.89062 110.21682 307.54688 110.71682Q307.20312 111.21682 306.64062 111.49807Q307.29688 111.77932 307.6875 112.34182Q308.07812 112.888695 308.07812 113.59182Q308.07812 114.68557 307.32812 115.357445Q306.59375 116.013695 305.375 116.013695Q304.14062 116.013695 303.39062 115.357445Q302.65625 114.68557 302.65625 113.59182Q302.65625 112.888695 303.03125 112.34182Q303.40625 111.77932 304.07812 111.49807Q303.51562 111.21682 303.1875 110.71682Q302.85938 110.21682 302.85938 109.576195Q302.85938 108.49807 303.54688 107.87307Q304.23438 107.232445 305.375 107.232445Q306.5 107.232445 307.1875 107.87307Q307.89062 108.49807 307.89062 109.576195ZM307.0 113.56057Q307.0 112.84182 306.54688 112.40432Q306.09375 111.951195 305.35938 111.951195Q304.625 111.951195 304.17188 112.40432Q303.73438 112.84182 303.73438 113.576195Q303.73438 114.294945 304.17188 114.71682Q304.60938 115.12307 305.375 115.12307Q306.125 115.12307 306.5625 114.701195Q307.0 114.27932 307.0 113.56057ZM305.375 108.12307Q304.73438 108.12307 304.32812 108.52932Q303.9375 108.919945 303.9375 109.607445Q303.9375 110.24807 304.32812 110.65432Q304.71875 111.06057 305.35938 111.06057Q306.01562 111.06057 306.40625 110.65432Q306.79688 110.24807 306.79688 109.607445Q306.79688 108.951195 306.39062 108.544945Q305.98438 108.12307 305.375 108.12307Z" fill-rule="nonzero"/><path fill="#ffffff" d="M276.85938 112.138695Q276.53125 112.544945 276.04688 112.794945Q275.57812 113.02932 275.01562 113.02932Q274.28125 113.02932 273.73438 112.669945Q273.1875 112.31057 272.89062 111.65432Q272.59375 110.982445 272.59375 110.18557Q272.59375 109.34182 272.90625 108.65432Q273.23438 107.96682 273.82812 107.607445Q274.4375 107.232445 275.23438 107.232445Q276.5 107.232445 277.21875 108.18557Q277.95312 109.138695 277.95312 110.763695L277.95312 111.076195Q277.95312 113.576195 276.96875 114.71682Q275.98438 115.857445 274.0 115.888695L273.78125 115.888695L273.78125 114.982445L274.01562 114.982445Q275.35938 114.951195 276.07812 114.27932Q276.79688 113.607445 276.85938 112.138695ZM275.1875 112.138695Q275.73438 112.138695 276.1875 111.81057Q276.65625 111.46682 276.875 110.982445L276.875 110.544945Q276.875 109.482445 276.40625 108.81057Q275.9375 108.138695 275.23438 108.138695Q274.51562 108.138695 274.07812 108.68557Q273.65625 109.232445 273.65625 110.138695Q273.65625 111.013695 274.0625 111.576195Q274.48438 112.138695 275.1875 112.138695ZM283.85938 112.138695Q283.53125 112.544945 283.04688 112.794945Q282.57812 113.02932 282.01562 113.02932Q281.28125 113.02932 280.73438 112.669945Q280.1875 112.31057 279.89062 111.65432Q279.59375 110.982445 279.59375 110.18557Q279.59375 109.34182 279.90625 108.65432Q280.23438 107.96682 280.82812 107.607445Q281.4375 107.232445 282.23438 107.232445Q283.5 107.232445 284.21875 108.18557Q284.95312 109.138695 284.95312 110.763695L284.95312 111.076195Q284.95312 113.576195 283.96875 114.71682Q282.98438 115.857445 281.0 115.888695L280.78125 115.888695L280.78125 114.982445L281.01562 114.982445Q282.35938 114.951195 283.07812 114.27932Q283.79688 113.607445 283.85938 112.138695ZM282.1875 112.138695Q282.73438 112.138695 283.1875 111.81057Q283.65625 111.46682 283.875 110.982445L283.875 110.544945Q283.875 109.482445 283.40625 108.81057Q282.9375 108.138695 282.23438 108.138695Q281.51562 108.138695 281.07812 108.68557Q280.65625 109.232445 280.65625 110.138695Q280.65625 111.013695 281.0625 111.576195Q281.48438 112.138695 282.1875 112.138695ZM292.21875 107.96682L288.6875 115.888695L287.54688 115.888695L291.0625 108.24807L286.45312 108.24807L286.45312 107.357445L292.21875 107.357445L292.21875 107.96682ZM293.78125 117.59182L293.17188 117.169945Q293.71875 116.40432 293.75 115.576195L293.75 114.607445L294.8125 114.607445L294.8125 115.451195Q294.8125 116.044945 294.51562 116.638695Q294.21875 117.232445 293.78125 117.59182ZM301.29688 115.888695L295.70312 115.888695L295.70312 115.107445L298.65625 111.826195Q299.3125 111.076195 299.5625 110.62307Q299.8125 110.15432 299.8125 109.65432Q299.8125 108.982445 299.40625 108.56057Q299.01562 108.12307 298.32812 108.12307Q297.53125 108.12307 297.07812 108.59182Q296.625 109.044945 296.625 109.87307L295.54688 109.87307Q295.54688 108.68557 296.29688 107.96682Q297.0625 107.232445 298.32812 107.232445Q299.53125 107.232445 300.21875 107.857445Q300.90625 108.482445 300.90625 109.52932Q300.90625 110.77932 299.29688 112.52932L297.01562 114.99807L301.29688 114.99807L301.29688 115.888695ZM307.89062 109.576195Q307.89062 110.21682 307.54688 110.71682Q307.20312 111.21682 306.64062 111.49807Q307.29688 111.77932 307.6875 112.34182Q308.07812 112.888695 308.07812 113.59182Q308.07812 114.68557 307.32812 115.357445Q306.59375 116.013695 305.375 116.013695Q304.14062 116.013695 303.39062 115.357445Q302.65625 114.68557 302.65625 113.59182Q302.65625 112.888695 303.03125 112.34182Q303.40625 111.77932 304.07812 111.49807Q303.51562 111.21682 303.1875 110.71682Q302.85938 110.21682 302.85938 109.576195Q302.85938 108.49807 303.54688 107.87307Q304.23438 107.232445 305.375 107.232445Q306.5 107.232445 307.1875 107.87307Q307.89062 108.49807 307.89062 109.576195ZM307.0 113.56057Q307.0 112.84182 306.54688 112.40432Q306.09375 111.951195 305.35938 111.951195Q304.625 111.951195 304.17188 112.40432Q303.73438 112.84182 303.73438 113.576195Q303.73438 114.294945 304.17188 114.71682Q304.60938 115.12307 305.375 115.12307Q306.125 115.12307 306.5625 114.701195Q307.0 114.27932 307.0 113.56057ZM305.375 108.12307Q304.73438 108.12307 304.32812 108.52932Q303.9375 108.919945 303.9375 109.607445Q303.9375 110.24807 304.32812 110.65432Q304.71875 111.06057 305.35938 111.06057Q306.01562 111.06057 306.40625 110.65432Q306.79688 110.24807 306.79688 109.607445Q306.79688 108.951195 306.39062 108.544945Q305.98438 108.12307 305.375 108.12307Z" fill-rule="nonzero"/><path stroke="#ea4335" stroke-width="3.0" stroke-linejoin="round" stroke-linecap="round" d="M564.8594 121.8685Q564.53125 122.27475 564.0469 122.52475Q563.5781 122.759125 563.0156 122.759125Q562.28125 122.759125 561.7344 122.39975Q561.1875 122.040375 560.8906 121.384125Q560.59375 120.71225 560.59375 119.915375Q560.59375 119.071625 560.90625 118.384125Q561.2344 117.696625 561.8281 117.33725Q562.4375 116.96225 563.2344 116.96225Q564.5 116.96225 565.21875 117.915375Q565.9531 118.8685 565.9531 120.4935L565.9531 120.806Q565.9531 123.306 564.96875 124.446625Q563.9844 125.58725 562.0 125.6185L561.78125 125.6185L561.78125 124.71225L562.0156 124.71225Q563.3594 124.681 564.0781 124.009125Q564.7969 123.33725 564.8594 121.8685ZM563.1875 121.8685Q563.7344 121.8685 564.1875 121.540375Q564.65625 121.196625 564.875 120.71225L564.875 120.27475Q564.875 119.21225 564.40625 118.540375Q563.9375 117.8685 563.2344 117.8685Q562.5156 117.8685 562.0781 118.415375Q561.65625 118.96225 561.65625 119.8685Q561.65625 120.7435 562.0625 121.306Q562.4844 121.8685 563.1875 121.8685ZM571.96875 117.08725L571.96875 117.9935L571.7656 117.9935Q570.5 118.02475 569.75 118.759125Q569.0 119.477875 568.875 120.790375Q569.5625 120.02475 570.71875 120.02475Q571.8281 120.02475 572.5 120.806Q573.1719 121.58725 573.1719 122.83725Q573.1719 124.14975 572.4531 124.946625Q571.7344 125.7435 570.5156 125.7435Q569.2969 125.7435 568.53125 124.806Q567.78125 123.852875 567.78125 122.3685L567.78125 121.96225Q567.78125 119.602875 568.78125 118.352875Q569.78125 117.102875 571.7656 117.08725L571.96875 117.08725ZM570.5469 120.931Q569.9844 120.931 569.5156 121.259125Q569.0469 121.58725 568.8594 122.102875L568.8594 122.4935Q568.8594 123.556 569.3281 124.196625Q569.8125 124.83725 570.5156 124.83725Q571.25 124.83725 571.6719 124.306Q572.09375 123.759125 572.09375 122.884125Q572.09375 122.009125 571.6719 121.477875Q571.25 120.931 570.5469 120.931ZM576.28125 120.821625L577.09375 120.821625Q577.875 120.806 578.3125 120.415375Q578.75 120.02475 578.75 119.352875Q578.75 117.852875 577.25 117.852875Q576.5469 117.852875 576.125 118.259125Q575.71875 118.665375 575.71875 119.321625L574.625 119.321625Q574.625 118.306 575.3594 117.634125Q576.1094 116.96225 577.25 116.96225Q578.4531 116.96225 579.1406 117.602875Q579.8281 118.2435 579.8281 119.384125Q579.8281 119.946625 579.46875 120.46225Q579.1094 120.977875 578.4844 121.2435Q579.1875 121.46225 579.5625 121.977875Q579.9531 122.4935 579.9531 123.2435Q579.9531 124.384125 579.2031 125.071625Q578.4531 125.7435 577.25 125.7435Q576.0625 125.7435 575.2969 125.08725Q574.5469 124.431 574.5469 123.3685L575.6406 123.3685Q575.6406 124.040375 576.0781 124.446625Q576.5156 124.852875 577.2656 124.852875Q578.0469 124.852875 578.4531 124.446625Q578.875 124.02475 578.875 123.259125Q578.875 122.52475 578.4219 122.134125Q577.96875 121.727875 577.09375 121.71225L576.28125 121.71225L576.28125 120.821625Z" fill-rule="nonzero"/><path fill="#ffffff" d="M564.8594 121.8685Q564.53125 122.27475 564.0469 122.52475Q563.5781 122.759125 563.0156 122.759125Q562.28125 122.759125 561.7344 122.39975Q561.1875 122.040375 560.8906 121.384125Q560.59375 120.71225 560.59375 119.915375Q560.59375 119.071625 560.90625 118.384125Q561.2344 117.696625 561.8281 117.33725Q562.4375 116.96225 563.2344 116.96225Q564.5 116.96225 565.21875 117.915375Q565.9531 118.8685 565.9531 120.4935L565.9531 120.806Q565.9531 123.306 564.96875 124.446625Q563.9844 125.58725 562.0 125.6185L561.78125 125.6185L561.78125 124.71225L562.0156 124.71225Q563.3594 124.681 564.0781 124.009125Q564.7969 123.33725 564.8594 121.8685ZM563.1875 121.8685Q563.7344 121.8685 564.1875 121.540375Q564.65625 121.196625 564.875 120.71225L564.875 120.27475Q564.875 119.21225 564.40625 118.540375Q563.9375 117.8685 563.2344 117.8685Q562.5156 117.8685 562.0781 118.415375Q561.65625 118.96225 561.65625 119.8685Q561.65625 120.7435 562.0625 121.306Q562.4844 121.8685 563.1875 121.8685ZM571.96875 117.08725L571.96875 117.9935L571.7656 117.9935Q570.5 118.02475 569.75 118.759125Q569.0 119.477875 568.875 120.790375Q569.5625 120.02475 570.71875 120.02475Q571.8281 120.02475 572.5 120.806Q573.1719 121.58725 573.1719 122.83725Q573.1719 124.14975 572.4531 124.946625Q571.7344 125.7435 570.5156 125.7435Q569.2969 125.7435 568.53125 124.806Q567.78125 123.852875 567.78125 122.3685L567.78125 121.96225Q567.78125 119.602875 568.78125 118.352875Q569.78125 117.102875 571.7656 117.08725L571.96875 117.08725ZM570.5469 120.931Q569.9844 120.931 569.5156 121.259125Q569.0469 121.58725 568.8594 122.102875L568.8594 122.4935Q568.8594 123.556 569.3281 124.196625Q569.8125 124.83725 570.5156 124.83725Q571.25 124.83725 571.6719 124.306Q572.09375 123.759125 572.09375 122.884125Q572.09375 122.009125 571.6719 121.477875Q571.25 120.931 570.5469 120.931ZM576.28125 120.821625L577.09375 120.821625Q577.875 120.806 578.3125 120.415375Q578.75 120.02475 578.75 119.352875Q578.75 117.852875 577.25 117.852875Q576.5469 117.852875 576.125 118.259125Q575.71875 118.665375 575.71875 119.321625L574.625 119.321625Q574.625 118.306 575.3594 117.634125Q576.1094 116.96225 577.25 116.96225Q578.4531 116.96225 579.1406 117.602875Q579.8281 118.2435 579.8281 119.384125Q579.8281 119.946625 579.46875 120.46225Q579.1094 120.977875 578.4844 121.2435Q579.1875 121.46225 579.5625 121.977875Q579.9531 122.4935 579.9531 123.2435Q579.9531 124.384125 579.2031 125.071625Q578.4531 125.7435 577.25 125.7435Q576.0625 125.7435 575.2969 125.08725Q574.5469 124.431 574.5469 123.3685L575.6406 123.3685Q575.6406 124.040375 576.0781 124.446625Q576.5156 124.852875 577.2656 124.852875Q578.0469 124.852875 578.4531 124.446625Q578.875 124.02475 578.875 123.259125Q578.875 122.52475 578.4219 122.134125Q577.96875 121.727875 577.09375 121.71225L576.28125 121.71225L576.28125 120.821625Z" fill-rule="nonzero"/><path fill="#000000" d="M296.95312 431.15L296.95312 422.55624L303.15625 422.55624L303.15625 423.57187L298.09375 423.57187L298.09375 426.19687L302.84375 426.19687L302.84375 427.2125L298.09375 427.2125L298.09375 430.13437L303.35938 430.13437L303.35938 431.15L296.95312 431.15ZM304.79688 431.15L304.79688 424.93124L305.73438 424.93124L305.73438 425.80624Q306.42188 424.79062 307.71875 424.79062Q308.28125 424.79062 308.75 424.99374Q309.23438 425.19687 309.46875 425.525Q309.70312 425.85312 309.79688 426.29062Q309.84375 426.5875 309.84375 427.32187L309.84375 431.15L308.79688 431.15L308.79688 427.36874Q308.79688 426.7125 308.67188 426.4Q308.54688 426.0875 308.23438 425.9Q307.92188 425.69687 307.5 425.69687Q306.82812 425.69687 306.32812 426.13437Q305.84375 426.55624 305.84375 427.74374L305.84375 431.15L304.79688 431.15ZM311.76562 431.15L311.76562 422.55624L312.82812 422.55624L312.82812 431.15L311.76562 431.15ZM318.85938 430.38437Q318.26562 430.88437 317.71875 431.0875Q317.1875 431.29062 316.5625 431.29062Q315.53125 431.29062 314.98438 430.79062Q314.4375 430.29062 314.4375 429.50937Q314.4375 429.05624 314.64062 428.68124Q314.84375 428.29062 315.1875 428.07187Q315.53125 427.8375 315.95312 427.72812Q316.25 427.63437 316.89062 427.55624Q318.15625 427.41562 318.76562 427.19687Q318.76562 426.97812 318.76562 426.93124Q318.76562 426.275 318.46875 426.00937Q318.0625 425.66562 317.26562 425.66562Q316.53125 425.66562 316.17188 425.93124Q315.8125 426.18124 315.64062 426.8375L314.60938 426.69687Q314.75 426.04062 315.07812 425.63437Q315.40625 425.22812 316.01562 425.00937Q316.625 424.79062 317.42188 424.79062Q318.21875 424.79062 318.71875 424.97812Q319.21875 425.16562 319.45312 425.44687Q319.6875 425.72812 319.78125 426.16562Q319.82812 426.43124 319.82812 427.13437L319.82812 428.54062Q319.82812 430.00937 319.89062 430.4Q319.96875 430.79062 320.17188 431.15L319.0625 431.15Q318.90625 430.82187 318.85938 430.38437ZM318.76562 428.025Q318.1875 428.25937 317.04688 428.43124Q316.39062 428.525 316.125 428.65Q315.85938 428.75937 315.70312 428.97812Q315.5625 429.19687 315.5625 429.47812Q315.5625 429.9 315.875 430.18124Q316.20312 430.4625 316.8125 430.4625Q317.42188 430.4625 317.89062 430.19687Q318.375 429.93124 318.59375 429.4625Q318.76562 429.10312 318.76562 428.41562L318.76562 428.025ZM325.85938 428.86874L326.89062 429.00937Q326.71875 430.07187 326.01562 430.68124Q325.3125 431.29062 324.29688 431.29062Q323.01562 431.29062 322.23438 430.4625Q321.46875 429.61874 321.46875 428.05624Q321.46875 427.05624 321.79688 426.30624Q322.14062 425.54062 322.8125 425.16562Q323.5 424.79062 324.3125 424.79062Q325.3125 424.79062 325.95312 425.30624Q326.60938 425.80624 326.79688 426.75937L325.76562 426.91562Q325.625 426.29062 325.25 425.97812Q324.875 425.65 324.34375 425.65Q323.54688 425.65 323.04688 426.22812Q322.54688 426.79062 322.54688 428.025Q322.54688 429.29062 323.03125 429.85312Q323.51562 430.41562 324.28125 430.41562Q324.90625 430.41562 325.3125 430.04062Q325.73438 429.66562 325.85938 428.86874ZM332.04688 429.15L333.14062 429.275Q332.89062 430.22812 332.1875 430.75937Q331.48438 431.29062 330.40625 431.29062Q329.04688 431.29062 328.23438 430.44687Q327.4375 429.60312 327.4375 428.0875Q327.4375 426.525 328.25 425.66562Q329.0625 424.79062 330.34375 424.79062Q331.59375 424.79062 332.375 425.63437Q333.17188 426.47812 333.17188 428.025Q333.17188 428.11874 333.17188 428.30624L328.53125 428.30624Q328.59375 429.3375 329.10938 429.88437Q329.625 430.41562 330.40625 430.41562Q330.98438 430.41562 331.39062 430.11874Q331.8125 429.80624 332.04688 429.15ZM328.59375 427.44687L332.0625 427.44687Q332.0 426.65 331.67188 426.25937Q331.15625 425.65 330.35938 425.65Q329.625 425.65 329.125 426.13437Q328.64062 426.61874 328.59375 427.44687ZM334.375 429.29062L335.40625 429.13437Q335.5 429.75937 335.89062 430.0875Q336.29688 430.41562 337.03125 430.41562Q337.75 430.41562 338.09375 430.13437Q338.45312 429.8375 338.45312 429.43124Q338.45312 429.07187 338.14062 428.86874Q337.92188 428.72812 337.0625 428.50937Q335.90625 428.2125 335.45312 428.00937Q335.01562 427.79062 334.78125 427.41562Q334.54688 427.04062 334.54688 426.57187Q334.54688 426.16562 334.73438 425.80624Q334.92188 425.44687 335.25 425.2125Q335.5 425.04062 335.92188 424.91562Q336.34375 424.79062 336.84375 424.79062Q337.5625 424.79062 338.10938 425.00937Q338.67188 425.2125 338.9375 425.57187Q339.20312 425.93124 339.29688 426.525L338.26562 426.66562Q338.20312 426.19687 337.85938 425.93124Q337.53125 425.65 336.90625 425.65Q336.1875 425.65 335.875 425.9Q335.5625 426.13437 335.5625 426.4625Q335.5625 426.66562 335.6875 426.82187Q335.82812 426.99374 336.09375 427.10312Q336.25 427.16562 337.03125 427.36874Q338.15625 427.68124 338.59375 427.86874Q339.03125 428.05624 339.28125 428.41562Q339.53125 428.775 339.53125 429.32187Q339.53125 429.85312 339.21875 430.32187Q338.92188 430.775 338.34375 431.04062Q337.76562 431.29062 337.03125 431.29062Q335.8125 431.29062 335.17188 430.79062Q334.54688 430.275 334.375 429.29062ZM348.46875 431.15L347.42188 431.15L347.42188 424.43124Q347.03125 424.79062 346.40625 425.16562Q345.79688 425.525 345.3125 425.69687L345.3125 424.68124Q346.1875 424.25937 346.84375 423.68124Q347.51562 423.0875 347.79688 422.525L348.46875 422.525L348.46875 431.15ZM351.5 426.91562Q351.5 425.38437 351.8125 424.4625Q352.125 423.525 352.73438 423.025Q353.35938 422.525 354.29688 422.525Q354.98438 422.525 355.5 422.80624Q356.03125 423.0875 356.375 423.61874Q356.71875 424.13437 356.90625 424.88437Q357.09375 425.63437 357.09375 426.91562Q357.09375 428.43124 356.78125 429.35312Q356.48438 430.275 355.85938 430.79062Q355.25 431.29062 354.29688 431.29062Q353.0625 431.29062 352.34375 430.4Q351.5 429.3375 351.5 426.91562ZM352.57812 426.91562Q352.57812 429.025 353.07812 429.72812Q353.57812 430.43124 354.29688 430.43124Q355.03125 430.43124 355.51562 429.72812Q356.01562 429.025 356.01562 426.91562Q356.01562 424.79062 355.51562 424.10312Q355.03125 423.4 354.28125 423.4Q353.5625 423.4 353.125 424.00937Q352.57812 424.79062 352.57812 426.91562ZM358.5 426.91562Q358.5 425.38437 358.8125 424.4625Q359.125 423.525 359.73438 423.025Q360.35938 422.525 361.29688 422.525Q361.98438 422.525 362.5 422.80624Q363.03125 423.0875 363.375 423.61874Q363.71875 424.13437 363.90625 424.88437Q364.09375 425.63437 364.09375 426.91562Q364.09375 428.43124 363.78125 429.35312Q363.48438 430.275 362.85938 430.79062Q362.25 431.29062 361.29688 431.29062Q360.0625 431.29062 359.34375 430.4Q358.5 429.3375 358.5 426.91562ZM359.57812 426.91562Q359.57812 429.025 360.07812 429.72812Q360.57812 430.43124 361.29688 430.43124Q362.03125 430.43124 362.51562 429.72812Q363.01562 429.025 363.01562 426.91562Q363.01562 424.79062 362.51562 424.10312Q362.03125 423.4 361.28125 423.4Q360.5625 423.4 360.125 424.00937Q359.57812 424.79062 359.57812 426.91562ZM365.5 426.91562Q365.5 425.38437 365.8125 424.4625Q366.125 423.525 366.73438 423.025Q367.35938 422.525 368.29688 422.525Q368.98438 422.525 369.5 422.80624Q370.03125 423.0875 370.375 423.61874Q370.71875 424.13437 370.90625 424.88437Q371.09375 425.63437 371.09375 426.91562Q371.09375 428.43124 370.78125 429.35312Q370.48438 430.275 369.85938 430.79062Q369.25 431.29062 368.29688 431.29062Q367.0625 431.29062 366.34375 430.4Q365.5 429.3375 365.5 426.91562ZM366.57812 426.91562Q366.57812 429.025 367.07812 429.72812Q367.57812 430.43124 368.29688 430.43124Q369.03125 430.43124 369.51562 429.72812Q370.01562 429.025 370.01562 426.91562Q370.01562 424.79062 369.51562 424.10312Q369.03125 423.4 368.28125 423.4Q367.5625 423.4 367.125 424.00937Q366.57812 424.79062 366.57812 426.91562ZM375.89062 431.15L375.89062 422.55624L377.60938 422.55624L379.64062 428.63437Q379.92188 429.49374 380.04688 429.91562Q380.1875 429.44687 380.5 428.54062L382.5625 422.55624L384.09375 422.55624L384.09375 431.15L383.0 431.15L383.0 423.9625L380.5 431.15L379.46875 431.15L376.98438 423.8375L376.98438 431.15L375.89062 431.15ZM385.76562 431.15L384.78125 431.15L384.78125 422.55624L385.84375 422.55624L385.84375 425.61874Q386.51562 424.79062 387.54688 424.79062Q388.125 424.79062 388.625 425.025Q389.14062 425.24374 389.46875 425.66562Q389.8125 426.0875 390.0 426.68124Q390.1875 427.275 390.1875 427.94687Q390.1875 429.54062 389.39062 430.41562Q388.59375 431.29062 387.5 431.29062Q386.39062 431.29062 385.76562 430.36874L385.76562 431.15ZM385.75 427.99374Q385.75 429.10312 386.0625 429.60312Q386.5625 430.41562 387.40625 430.41562Q388.09375 430.41562 388.59375 429.82187Q389.10938 429.22812 389.10938 428.025Q389.10938 426.80624 388.625 426.22812Q388.14062 425.65 387.45312 425.65Q386.76562 425.65 386.25 426.25937Q385.75 426.85312 385.75 427.99374ZM391.79688 433.54062L391.79688 424.93124L392.75 424.93124L392.75 425.72812Q393.09375 425.25937 393.51562 425.025Q393.95312 424.79062 394.5625 424.79062Q395.35938 424.79062 395.96875 425.19687Q396.57812 425.60312 396.875 426.35312Q397.1875 427.10312 397.1875 427.99374Q397.1875 428.94687 396.84375 429.7125Q396.51562 430.47812 395.85938 430.88437Q395.20312 431.29062 394.48438 431.29062Q393.95312 431.29062 393.53125 431.07187Q393.10938 430.8375 392.84375 430.50937L392.84375 433.54062L391.79688 433.54062ZM392.75 428.07187Q392.75 429.275 393.23438 429.85312Q393.71875 430.41562 394.40625 430.41562Q395.10938 430.41562 395.60938 429.82187Q396.10938 429.22812 396.10938 427.97812Q396.10938 426.79062 395.625 426.2125Q395.14062 425.61874 394.45312 425.61874Q393.78125 425.61874 393.26562 426.24374Q392.75 426.86874 392.75 428.07187ZM398.375 429.29062L399.40625 429.13437Q399.5 429.75937 399.89062 430.0875Q400.29688 430.41562 401.03125 430.41562Q401.75 430.41562 402.09375 430.13437Q402.45312 429.8375 402.45312 429.43124Q402.45312 429.07187 402.14062 428.86874Q401.92188 428.72812 401.0625 428.50937Q399.90625 428.2125 399.45312 428.00937Q399.01562 427.79062 398.78125 427.41562Q398.54688 427.04062 398.54688 426.57187Q398.54688 426.16562 398.73438 425.80624Q398.92188 425.44687 399.25 425.2125Q399.5 425.04062 399.92188 424.91562Q400.34375 424.79062 400.84375 424.79062Q401.5625 424.79062 402.10938 425.00937Q402.67188 425.2125 402.9375 425.57187Q403.20312 425.93124 403.29688 426.525L402.26562 426.66562Q402.20312 426.19687 401.85938 425.93124Q401.53125 425.65 400.90625 425.65Q400.1875 425.65 399.875 425.9Q399.5625 426.13437 399.5625 426.4625Q399.5625 426.66562 399.6875 426.82187Q399.82812 426.99374 400.09375 427.10312Q400.25 427.16562 401.03125 427.36874Q402.15625 427.68124 402.59375 427.86874Q403.03125 428.05624 403.28125 428.41562Q403.53125 428.775 403.53125 429.32187Q403.53125 429.85312 403.21875 430.32187Q402.92188 430.775 402.34375 431.04062Q401.76562 431.29062 401.03125 431.29062Q399.8125 431.29062 399.17188 430.79062Q398.54688 430.275 398.375 429.29062ZM407.96875 428.4625L407.96875 427.61874L414.65625 427.61874L414.65625 428.4625L407.96875 428.4625ZM418.65625 429.16562L419.67188 429.07187Q419.79688 429.79062 420.15625 430.11874Q420.53125 430.43124 421.09375 430.43124Q421.57812 430.43124 421.9375 430.2125Q422.3125 429.97812 422.54688 429.61874Q422.78125 429.24374 422.9375 428.61874Q423.09375 427.97812 423.09375 427.32187Q423.09375 427.24374 423.09375 427.10312Q422.78125 427.60312 422.23438 427.93124Q421.6875 428.24374 421.04688 428.24374Q419.96875 428.24374 419.23438 427.47812Q418.5 426.69687 418.5 425.43124Q418.5 424.11874 419.26562 423.32187Q420.04688 422.525 421.20312 422.525Q422.03125 422.525 422.71875 422.97812Q423.42188 423.43124 423.78125 424.275Q424.14062 425.10312 424.14062 426.68124Q424.14062 428.32187 423.78125 429.30624Q423.4375 430.275 422.71875 430.79062Q422.01562 431.29062 421.07812 431.29062Q420.0625 431.29062 419.42188 430.74374Q418.78125 430.18124 418.65625 429.16562ZM422.96875 425.36874Q422.96875 424.4625 422.48438 423.93124Q422.01562 423.4 421.32812 423.4Q420.625 423.4 420.09375 423.97812Q419.57812 424.54062 419.57812 425.4625Q419.57812 426.275 420.07812 426.79062Q420.57812 427.30624 421.29688 427.30624Q422.03125 427.30624 422.5 426.79062Q422.96875 426.275 422.96875 425.36874ZM425.5 426.91562Q425.5 425.38437 425.8125 424.4625Q426.125 423.525 426.73438 423.025Q427.35938 422.525 428.29688 422.525Q428.98438 422.525 429.5 422.80624Q430.03125 423.0875 430.375 423.61874Q430.71875 424.13437 430.90625 424.88437Q431.09375 425.63437 431.09375 426.91562Q431.09375 428.43124 430.78125 429.35312Q430.48438 430.275 429.85938 430.79062Q429.25 431.29062 428.29688 431.29062Q427.0625 431.29062 426.34375 430.4Q425.5 429.3375 425.5 426.91562ZM426.57812 426.91562Q426.57812 429.025 427.07812 429.72812Q427.57812 430.43124 428.29688 430.43124Q429.03125 430.43124 429.51562 429.72812Q430.01562 429.025 430.01562 426.91562Q430.01562 424.79062 429.51562 424.10312Q429.03125 423.4 428.28125 423.4Q427.5625 423.4 427.125 424.00937Q426.57812 424.79062 426.57812 426.91562ZM432.5 426.91562Q432.5 425.38437 432.8125 424.4625Q433.125 423.525 433.73438 423.025Q434.35938 422.525 435.29688 422.525Q435.98438 422.525 436.5 422.80624Q437.03125 423.0875 437.375 423.61874Q437.71875 424.13437 437.90625 424.88437Q438.09375 425.63437 438.09375 426.91562Q438.09375 428.43124 437.78125 429.35312Q437.48438 430.275 436.85938 430.79062Q436.25 431.29062 435.29688 431.29062Q434.0625 431.29062 433.34375 430.4Q432.5 429.3375 432.5 426.91562ZM433.57812 426.91562Q433.57812 429.025 434.07812 429.72812Q434.57812 430.43124 435.29688 430.43124Q436.03125 430.43124 436.51562 429.72812Q437.01562 429.025 437.01562 426.91562Q437.01562 424.79062 436.51562 424.10312Q436.03125 423.4 435.28125 423.4Q434.5625 423.4 434.125 424.00937Q433.57812 424.79062 433.57812 426.91562ZM439.5 426.91562Q439.5 425.38437 439.8125 424.4625Q440.125 423.525 440.73438 423.025Q441.35938 422.525 442.29688 422.525Q442.98438 422.525 443.5 422.80624Q444.03125 423.0875 444.375 423.61874Q444.71875 424.13437 444.90625 424.88437Q445.09375 425.63437 445.09375 426.91562Q445.09375 428.43124 444.78125 429.35312Q444.48438 430.275 443.85938 430.79062Q443.25 431.29062 442.29688 431.29062Q441.0625 431.29062 440.34375 430.4Q439.5 429.3375 439.5 426.91562ZM440.57812 426.91562Q440.57812 429.025 441.07812 429.72812Q441.57812 430.43124 442.29688 430.43124Q443.03125 430.43124 443.51562 429.72812Q444.01562 429.025 444.01562 426.91562Q444.01562 424.79062 443.51562 424.10312Q443.03125 423.4 442.28125 423.4Q441.5625 423.4 441.125 424.00937Q440.57812 424.79062 440.57812 426.91562ZM449.89062 431.15L449.89062 422.55624L451.60938 422.55624L453.64062 428.63437Q453.92188 429.49374 454.04688 429.91562Q454.1875 429.44687 454.5 428.54062L456.5625 422.55624L458.09375 422.55624L458.09375 431.15L457.0 431.15L457.0 423.9625L454.5 431.15L453.46875 431.15L450.98438 423.8375L450.98438 431.15L449.89062 431.15ZM461.10938 431.15L461.10938 423.57187L458.28125 423.57187L458.28125 422.55624L465.09375 422.55624L465.09375 423.57187L462.25 423.57187L462.25 431.15L461.10938 431.15ZM471.5625 422.55624L472.70312 422.55624L472.70312 427.525Q472.70312 428.82187 472.40625 429.5875Q472.10938 430.3375 471.34375 430.82187Q470.57812 431.29062 469.34375 431.29062Q468.14062 431.29062 467.35938 430.88437Q466.59375 430.4625 466.26562 429.68124Q465.9375 428.88437 465.9375 427.525L465.9375 422.55624L467.07812 422.55624L467.07812 427.50937Q467.07812 428.63437 467.28125 429.16562Q467.5 429.69687 468.0 429.99374Q468.51562 430.275 469.25 430.275Q470.5 430.275 471.03125 429.7125Q471.5625 429.13437 471.5625 427.50937L471.5625 422.55624Z" fill-rule="nonzero"/><path fill="#000000" d="M44.35 381.91562Q44.35 380.38437 44.6625 379.4625Q44.975 378.525 45.584373 378.025Q46.209373 377.525 47.146873 377.525Q47.834373 377.525 48.35 377.80624Q48.88125 378.0875 49.225 378.61874Q49.56875 379.13437 49.75625 379.88437Q49.94375 380.63437 49.94375 381.91562Q49.94375 383.43124 49.63125 384.35312Q49.334373 385.275 48.709373 385.79062Q48.1 386.29062 47.146873 386.29062Q45.9125 386.29062 45.19375 385.4Q44.35 384.3375 44.35 381.91562ZM45.428123 381.91562Q45.428123 384.025 45.928123 384.72812Q46.428123 385.43124 47.146873 385.43124Q47.88125 385.43124 48.365623 384.72812Q48.865623 384.025 48.865623 381.91562Q48.865623 379.79062 48.365623 379.10312Q47.88125 378.4 47.13125 378.4Q46.4125 378.4 45.975 379.00937Q45.428123 379.79062 45.428123 381.91562Z" fill-rule="nonzero"/><path fill="#000000" d="M35.896873 314.17606L35.896873 315.19168L30.209375 315.19168Q30.209375 314.81668 30.334375 314.4573Q30.553125 313.87918 31.021875 313.31668Q31.50625 312.75418 32.4125 312.0198Q33.81875 310.86356 34.303123 310.19168Q34.803123 309.5198 34.803123 308.92606Q34.803123 308.30106 34.35 307.87918Q33.896873 307.44168 33.178123 307.44168Q32.4125 307.44168 31.959375 307.8948Q31.50625 308.34793 31.490625 309.16043L30.4125 309.05106Q30.521875 307.8323 31.240625 307.2073Q31.975 306.56668 33.209373 306.56668Q34.44375 306.56668 35.1625 307.25418Q35.88125 307.94168 35.88125 308.9573Q35.88125 309.47293 35.6625 309.97293Q35.459373 310.4573 34.959373 311.0198Q34.475 311.56668 33.35 312.5198Q32.396873 313.31668 32.115623 313.61356Q31.85 313.8948 31.678125 314.17606L35.896873 314.17606ZM37.35 312.94168L38.459373 312.84793Q38.584373 313.66043 39.021873 314.06668Q39.475 314.47293 40.115623 314.47293Q40.865623 314.47293 41.396873 313.8948Q41.928123 313.31668 41.928123 312.37918Q41.928123 311.47293 41.4125 310.9573Q40.9125 310.42606 40.084373 310.42606Q39.584373 310.42606 39.1625 310.66043Q38.75625 310.8948 38.521873 311.25418L37.5375 311.12918L38.365623 306.72293L42.646873 306.72293L42.646873 307.72293L39.209373 307.72293L38.75625 310.03543Q39.521873 309.48856 40.365623 309.48856Q41.490623 309.48856 42.25625 310.2698Q43.0375 311.05106 43.0375 312.28543Q43.0375 313.44168 42.365623 314.30106Q41.5375 315.3323 40.115623 315.3323Q38.94375 315.3323 38.19375 314.67606Q37.459373 314.0198 37.35 312.94168ZM44.35 310.9573Q44.35 309.42606 44.6625 308.50418Q44.975 307.56668 45.584373 307.06668Q46.209373 306.56668 47.146873 306.56668Q47.834373 306.56668 48.35 306.84793Q48.88125 307.12918 49.225 307.66043Q49.56875 308.17606 49.75625 308.92606Q49.94375 309.67606 49.94375 310.9573Q49.94375 312.47293 49.63125 313.3948Q49.334373 314.31668 48.709373 314.8323Q48.1 315.3323 47.146873 315.3323Q45.9125 315.3323 45.19375 314.44168Q44.35 313.37918 44.35 310.9573ZM45.428123 310.9573Q45.428123 313.06668 45.928123 313.7698Q46.428123 314.47293 47.146873 314.47293Q47.88125 314.47293 48.365623 313.7698Q48.865623 313.06668 48.865623 310.9573Q48.865623 308.8323 48.365623 308.1448Q47.88125 307.44168 47.13125 307.44168Q46.4125 307.44168 45.975 308.05106Q45.428123 308.8323 45.428123 310.9573Z" fill-rule="nonzero"/><path fill="#000000" d="M30.35 241.98334L31.459375 241.88959Q31.584375 242.70209 32.021873 243.10834Q32.475 243.51459 33.115623 243.51459Q33.865623 243.51459 34.396873 242.93646Q34.928123 242.35834 34.928123 241.42084Q34.928123 240.51459 34.4125 239.99896Q33.9125 239.46771 33.084373 239.46771Q32.584373 239.46771 32.1625 239.70209Q31.75625 239.93646 31.521875 240.29584L30.5375 240.17084L31.365625 235.76459L35.646873 235.76459L35.646873 236.76459L32.209373 236.76459L31.75625 239.07709Q32.521873 238.53021 33.365623 238.53021Q34.490623 238.53021 35.25625 239.31146Q36.0375 240.09271 36.0375 241.32709Q36.0375 242.48334 35.365623 243.34271Q34.5375 244.37396 33.115623 244.37396Q31.94375 244.37396 31.19375 243.71771Q30.459375 243.06146 30.35 241.98334ZM37.35 239.99896Q37.35 238.46771 37.6625 237.54584Q37.975 236.60834 38.584373 236.10834Q39.209373 235.60834 40.146873 235.60834Q40.834373 235.60834 41.35 235.88959Q41.88125 236.17084 42.225 236.70209Q42.56875 237.21771 42.75625 237.96771Q42.94375 238.71771 42.94375 239.99896Q42.94375 241.51459 42.63125 242.43646Q42.334373 243.35834 41.709373 243.87396Q41.1 244.37396 40.146873 244.37396Q38.9125 244.37396 38.19375 243.48334Q37.35 242.42084 37.35 239.99896ZM38.428123 239.99896Q38.428123 242.10834 38.928123 242.81146Q39.428123 243.51459 40.146873 243.51459Q40.88125 243.51459 41.365623 242.81146Q41.865623 242.10834 41.865623 239.99896Q41.865623 237.87396 41.365623 237.18646Q40.88125 236.48334 40.13125 236.48334Q39.4125 236.48334 38.975 237.09271Q38.428123 237.87396 38.428123 239.99896ZM44.35 239.99896Q44.35 238.46771 44.6625 237.54584Q44.975 236.60834 45.584373 236.10834Q46.209373 235.60834 47.146873 235.60834Q47.834373 235.60834 48.35 235.88959Q48.88125 236.17084 49.225 236.70209Q49.56875 237.21771 49.75625 237.96771Q49.94375 238.71771 49.94375 239.99896Q49.94375 241.51459 49.63125 242.43646Q49.334373 243.35834 48.709373 243.87396Q48.1 244.37396 47.146873 244.37396Q45.9125 244.37396 45.19375 243.48334Q44.35 242.42084 44.35 239.99896ZM45.428123 239.99896Q45.428123 242.10834 45.928123 242.81146Q46.428123 243.51459 47.146873 243.51459Q47.88125 243.51459 48.365623 242.81146Q48.865623 242.10834 48.865623 239.99896Q48.865623 237.87396 48.365623 237.18646Q47.88125 236.48334 47.13125 236.48334Q46.4125 236.48334 45.975 237.09271Q45.428123 237.87396 45.428123 239.99896Z" fill-rule="nonzero"/><path fill="#000000" d="M30.4125 165.80624L30.4125 164.79062L35.975 164.79062L35.975 165.61874Q35.1625 166.49374 34.35 167.94687Q33.553123 169.38437 33.115623 170.91562Q32.7875 171.99374 32.709373 173.275L31.615625 173.275Q31.63125 172.25937 32.00625 170.82187Q32.396873 169.38437 33.1 168.05624Q33.81875 166.72812 34.63125 165.80624L30.4125 165.80624ZM37.35 171.025L38.459373 170.93124Q38.584373 171.74374 39.021873 172.15Q39.475 172.55624 40.115623 172.55624Q40.865623 172.55624 41.396873 171.97812Q41.928123 171.4 41.928123 170.4625Q41.928123 169.55624 41.4125 169.04062Q40.9125 168.50937 40.084373 168.50937Q39.584373 168.50937 39.1625 168.74374Q38.75625 168.97812 38.521873 169.3375L37.5375 169.2125L38.365623 164.80624L42.646873 164.80624L42.646873 165.80624L39.209373 165.80624L38.75625 168.11874Q39.521873 167.57187 40.365623 167.57187Q41.490623 167.57187 42.25625 168.35312Q43.0375 169.13437 43.0375 170.36874Q43.0375 171.525 42.365623 172.38437Q41.5375 173.41562 40.115623 173.41562Q38.94375 173.41562 38.19375 172.75937Q37.459373 172.10312 37.35 171.025ZM44.35 169.04062Q44.35 167.50937 44.6625 166.5875Q44.975 165.65 45.584373 165.15Q46.209373 164.65 47.146873 164.65Q47.834373 164.65 48.35 164.93124Q48.88125 165.2125 49.225 165.74374Q49.56875 166.25937 49.75625 167.00937Q49.94375 167.75937 49.94375 169.04062Q49.94375 170.55624 49.63125 171.47812Q49.334373 172.4 48.709373 172.91562Q48.1 173.41562 47.146873 173.41562Q45.9125 173.41562 45.19375 172.525Q44.35 171.4625 44.35 169.04062ZM45.428123 169.04062Q45.428123 171.15 45.928123 171.85312Q46.428123 172.55624 47.146873 172.55624Q47.88125 172.55624 48.365623 171.85312Q48.865623 171.15 48.865623 169.04062Q48.865623 166.91562 48.365623 166.22812Q47.88125 165.525 47.13125 165.525Q46.4125 165.525 45.975 166.13437Q45.428123 166.91562 45.428123 169.04062Z" fill-rule="nonzero"/><path fill="#000000" d="M27.31875 102.316666L26.271875 102.316666L26.271875 95.597916Q25.88125 95.95729 25.25625 96.33229Q24.646875 96.691666 24.1625 96.86354L24.1625 95.847916Q25.0375 95.42604 25.69375 94.847916Q26.365625 94.254166 26.646875 93.691666L27.31875 93.691666L27.31875 102.316666ZM30.35 98.08229Q30.35 96.55104 30.6625 95.629166Q30.975 94.691666 31.584375 94.191666Q32.209373 93.691666 33.146873 93.691666Q33.834373 93.691666 34.35 93.972916Q34.88125 94.254166 35.225 94.785416Q35.56875 95.30104 35.75625 96.05104Q35.94375 96.80104 35.94375 98.08229Q35.94375 99.597916 35.63125 100.51979Q35.334373 101.441666 34.709373 101.95729Q34.1 102.45729 33.146873 102.45729Q31.9125 102.45729 31.19375 101.566666Q30.35 100.504166 30.35 98.08229ZM31.428125 98.08229Q31.428125 100.191666 31.928125 100.89479Q32.428123 101.597916 33.146873 101.597916Q33.88125 101.597916 34.365623 100.89479Q34.865623 100.191666 34.865623 98.08229Q34.865623 95.95729 34.365623 95.26979Q33.88125 94.566666 33.13125 94.566666Q32.4125 94.566666 31.975 95.17604Q31.428125 95.95729 31.428125 98.08229ZM37.35 98.08229Q37.35 96.55104 37.6625 95.629166Q37.975 94.691666 38.584373 94.191666Q39.209373 93.691666 40.146873 93.691666Q40.834373 93.691666 41.35 93.972916Q41.88125 94.254166 42.225 94.785416Q42.56875 95.30104 42.75625 96.05104Q42.94375 96.80104 42.94375 98.08229Q42.94375 99.597916 42.63125 100.51979Q42.334373 101.441666 41.709373 101.95729Q41.1 102.45729 40.146873 102.45729Q38.9125 102.45729 38.19375 101.566666Q37.35 100.504166 37.35 98.08229ZM38.428123 98.08229Q38.428123 100.191666 38.928123 100.89479Q39.428123 101.597916 40.146873 101.597916Q40.88125 101.597916 41.365623 100.89479Q41.865623 100.191666 41.865623 98.08229Q41.865623 95.95729 41.365623 95.26979Q40.88125 94.566666 40.13125 94.566666Q39.4125 94.566666 38.975 95.17604Q38.428123 95.95729 38.428123 98.08229ZM44.35 98.08229Q44.35 96.55104 44.6625 95.629166Q44.975 94.691666 45.584373 94.191666Q46.209373 93.691666 47.146873 93.691666Q47.834373 93.691666 48.35 93.972916Q48.88125 94.254166 49.225 94.785416Q49.56875 95.30104 49.75625 96.05104Q49.94375 96.80104 49.94375 98.08229Q49.94375 99.597916 49.63125 100.51979Q49.334373 101.441666 48.709373 101.95729Q48.1 102.45729 47.146873 102.45729Q45.9125 102.45729 45.19375 101.566666Q44.35 100.504166 44.35 98.08229ZM45.428123 98.08229Q45.428123 100.191666 45.928123 100.89479Q46.428123 101.597916 47.146873 101.597916Q47.88125 101.597916 48.365623 100.89479Q48.865623 100.191666 48.865623 98.08229Q48.865623 95.95729 48.365623 95.26979Q47.88125 94.566666 47.13125 94.566666Q46.4125 94.566666 45.975 95.17604Q45.428123 95.95729 45.428123 98.08229Z" fill-rule="nonzero"/><path fill="#000000" d="M233.29921 399.15L233.29921 390.55624L237.11171 390.55624Q238.26796 390.55624 238.86171 390.79062Q239.45546 391.025 239.81483 391.61874Q240.17421 392.19687 240.17421 392.9Q240.17421 393.82187 239.58046 394.44687Q238.98671 395.07187 237.75233 395.24374Q238.20546 395.4625 238.43983 395.66562Q238.93983 396.11874 239.37733 396.80624L240.87733 399.15L239.43983 399.15L238.31483 397.36874Q237.81483 396.5875 237.48671 396.18124Q237.17421 395.775 236.90858 395.61874Q236.65858 395.44687 236.39296 395.36874Q236.20546 395.3375 235.76796 395.3375L234.43983 395.3375L234.43983 399.15L233.29921 399.15ZM234.43983 394.35312L236.89296 394.35312Q237.65858 394.35312 238.09608 394.19687Q238.54921 394.025 238.76796 393.68124Q239.00233 393.32187 239.00233 392.9Q239.00233 392.29062 238.54921 391.9Q238.11171 391.50937 237.15858 391.50937L234.43983 391.50937L234.43983 394.35312ZM246.40858 397.15L247.50233 397.275Q247.25233 398.22812 246.54921 398.75937Q245.84608 399.29062 244.76796 399.29062Q243.40858 399.29062 242.59608 398.44687Q241.79921 397.60312 241.79921 396.0875Q241.79921 394.525 242.61171 393.66562Q243.42421 392.79062 244.70546 392.79062Q245.95546 392.79062 246.73671 393.63437Q247.53358 394.47812 247.53358 396.025Q247.53358 396.11874 247.53358 396.30624L242.89296 396.30624Q242.95546 397.3375 243.47108 397.88437Q243.98671 398.41562 244.76796 398.41562Q245.34608 398.41562 245.75233 398.11874Q246.17421 397.80624 246.40858 397.15ZM242.95546 395.44687L246.42421 395.44687Q246.36171 394.65 246.03358 394.25937Q245.51796 393.65 244.72108 393.65Q243.98671 393.65 243.48671 394.13437Q243.00233 394.61874 242.95546 395.44687ZM253.22108 398.38437Q252.62733 398.88437 252.08046 399.0875Q251.54921 399.29062 250.92421 399.29062Q249.89296 399.29062 249.34608 398.79062Q248.79921 398.29062 248.79921 397.50937Q248.79921 397.05624 249.00233 396.68124Q249.20546 396.29062 249.54921 396.07187Q249.89296 395.8375 250.31483 395.72812Q250.61171 395.63437 251.25233 395.55624Q252.51796 395.41562 253.12733 395.19687Q253.12733 394.97812 253.12733 394.93124Q253.12733 394.275 252.83046 394.00937Q252.42421 393.66562 251.62733 393.66562Q250.89296 393.66562 250.53358 393.93124Q250.17421 394.18124 250.00233 394.8375L248.97108 394.69687Q249.11171 394.04062 249.43983 393.63437Q249.76796 393.22812 250.37733 393.00937Q250.98671 392.79062 251.78358 392.79062Q252.58046 392.79062 253.08046 392.97812Q253.58046 393.16562 253.81483 393.44687Q254.04921 393.72812 254.14296 394.16562Q254.18983 394.43124 254.18983 395.13437L254.18983 396.54062Q254.18983 398.00937 254.25233 398.4Q254.33046 398.79062 254.53358 399.15L253.42421 399.15Q253.26796 398.82187 253.22108 398.38437ZM253.12733 396.025Q252.54921 396.25937 251.40858 396.43124Q250.75233 396.525 250.48671 396.65Q250.22108 396.75937 250.06483 396.97812Q249.92421 397.19687 249.92421 397.47812Q249.92421 397.9 250.23671 398.18124Q250.56483 398.4625 251.17421 398.4625Q251.78358 398.4625 252.25233 398.19687Q252.73671 397.93124 252.95546 397.4625Q253.12733 397.10312 253.12733 396.41562L253.12733 396.025ZM256.12732 399.15L256.12732 390.55624L257.18982 390.55624L257.18982 399.15L256.12732 399.15Z" fill-rule="nonzero"/><path fill="#000000" d="M511.0133 399.15L507.68518 390.55624L508.91956 390.55624L511.15393 396.80624Q511.41956 397.55624 511.60706 398.2125Q511.81018 397.50937 512.0758 396.80624L514.3883 390.55624L515.54456 390.55624L512.1852 399.15L511.0133 399.15ZM515.4352 391.775L515.4352 390.55624L516.4977 390.55624L516.4977 391.775L515.4352 391.775ZM515.4352 399.15L515.4352 392.93124L516.4977 392.93124L516.4977 399.15L515.4352 399.15ZM518.41956 399.15L518.41956 392.93124L519.3727 392.93124L519.3727 393.86874Q519.73206 393.2125 520.02893 393.00937Q520.34143 392.79062 520.71643 392.79062Q521.2477 392.79062 521.79456 393.11874L521.4352 394.10312Q521.04456 393.86874 520.66956 393.86874Q520.3102 393.86874 520.02893 394.0875Q519.7633 394.29062 519.65393 394.66562Q519.46643 395.22812 519.46643 395.88437L519.46643 399.15L518.41956 399.15ZM524.73206 398.2125L524.8883 399.13437Q524.4352 399.22812 524.09143 399.22812Q523.5133 399.22812 523.2008 399.05624Q522.8883 398.86874 522.7477 398.57187Q522.6227 398.275 522.6227 397.32187L522.6227 393.74374L521.85706 393.74374L521.85706 392.93124L522.6227 392.93124L522.6227 391.38437L523.66956 390.75937L523.66956 392.93124L524.73206 392.93124L524.73206 393.74374L523.66956 393.74374L523.66956 397.38437Q523.66956 397.8375 523.71643 397.9625Q523.77893 398.0875 523.90393 398.16562Q524.02893 398.24374 524.2633 398.24374Q524.4508 398.24374 524.73206 398.2125ZM529.5133 399.15L529.5133 398.22812Q528.77893 399.29062 527.52893 399.29062Q526.98206 399.29062 526.4977 399.0875Q526.02893 398.86874 525.79456 398.55624Q525.5602 398.22812 525.46643 397.75937Q525.40393 397.4625 525.40393 396.775L525.40393 392.93124L526.46643 392.93124L526.46643 396.38437Q526.46643 397.19687 526.52893 397.49374Q526.6227 397.9 526.9352 398.15Q527.2633 398.38437 527.7477 398.38437Q528.21643 398.38437 528.6227 398.15Q529.04456 397.9 529.21643 397.47812Q529.40393 397.05624 529.40393 396.25937L529.40393 392.93124L530.4508 392.93124L530.4508 399.15L529.5133 399.15ZM536.4977 398.38437Q535.90393 398.88437 535.35706 399.0875Q534.8258 399.29062 534.2008 399.29062Q533.16956 399.29062 532.6227 398.79062Q532.0758 398.29062 532.0758 397.50937Q532.0758 397.05624 532.27893 396.68124Q532.48206 396.29062 532.8258 396.07187Q533.16956 395.8375 533.59143 395.72812Q533.8883 395.63437 534.52893 395.55624Q535.79456 395.41562 536.40393 395.19687Q536.40393 394.97812 536.40393 394.93124Q536.40393 394.275 536.10706 394.00937Q535.7008 393.66562 534.90393 393.66562Q534.16956 393.66562 533.8102 393.93124Q533.4508 394.18124 533.27893 394.8375L532.2477 394.69687Q532.3883 394.04062 532.71643 393.63437Q533.04456 393.22812 533.65393 393.00937Q534.2633 392.79062 535.0602 392.79062Q535.85706 392.79062 536.35706 392.97812Q536.85706 393.16562 537.09143 393.44687Q537.3258 393.72812 537.41956 394.16562Q537.46643 394.43124 537.46643 395.13437L537.46643 396.54062Q537.46643 398.00937 537.52893 398.4Q537.60706 398.79062 537.8102 399.15L536.7008 399.15Q536.54456 398.82187 536.4977 398.38437ZM536.40393 396.025Q535.8258 396.25937 534.6852 396.43124Q534.02893 396.525 533.7633 396.65Q533.4977 396.75937 533.34143 396.97812Q533.2008 397.19687 533.2008 397.47812Q533.2008 397.9 533.5133 398.18124Q533.84143 398.4625 534.4508 398.4625Q535.0602 398.4625 535.52893 398.19687Q536.0133 397.93124 536.23206 397.4625Q536.40393 397.10312 536.40393 396.41562L536.40393 396.025ZM539.40393 399.15L539.40393 390.55624L540.46643 390.55624L540.46643 399.15L539.40393 399.15Z" fill-rule="nonzero"/><path fill="#4285f4" d="M315.0 64.083336C315.0 63.531048 315.44772 63.083332 316.0 63.083332L326.0 63.083332C326.55228 63.083332 327.0 63.531048 327.0 64.083336L327.0 74.083336C327.0 74.63562 326.55228 75.083336 326.0 75.083336L316.0 75.083336C315.44772 75.083336 315.0 74.63562 315.0 74.083336Z" fill-rule="nonzero"/><path fill="#1a1a1a" d="M338.10938 73.083336L338.10938 65.50521L335.28125 65.50521L335.28125 64.489586L342.09375 64.489586L342.09375 65.50521L339.25 65.50521L339.25 73.083336L338.10938 73.083336ZM349.0625 70.06771L350.1875 70.364586Q349.82812 71.75521 348.90625 72.489586Q347.98438 73.22396 346.64062 73.22396Q345.25 73.22396 344.375 72.66146Q343.5 72.09896 343.04688 71.03646Q342.59375 69.958336 342.59375 68.72396Q342.59375 67.38021 343.10938 66.38021Q343.625 65.38021 344.5625 64.864586Q345.51562 64.34896 346.65625 64.34896Q347.9375 64.34896 348.8125 65.00521Q349.70312 65.66146 350.04688 66.84896L348.92188 67.114586Q348.625 66.177086 348.04688 65.75521Q347.48438 65.31771 346.625 65.31771Q345.64062 65.31771 344.96875 65.802086Q344.3125 66.270836 344.03125 67.06771Q343.76562 67.864586 343.76562 68.72396Q343.76562 69.81771 344.07812 70.63021Q344.40625 71.44271 345.07812 71.84896Q345.75 72.25521 346.54688 72.25521Q347.5 72.25521 348.15625 71.708336Q348.82812 71.16146 349.0625 70.06771ZM351.92188 73.083336L351.92188 64.489586L355.17188 64.489586Q356.01562 64.489586 356.46875 64.56771Q357.10938 64.677086 357.53125 64.97396Q357.96875 65.270836 358.21875 65.802086Q358.48438 66.333336 358.48438 66.97396Q358.48438 68.06771 357.78125 68.833336Q357.09375 69.583336 355.26562 69.583336L353.0625 69.583336L353.0625 73.083336L351.92188 73.083336ZM353.0625 68.583336L355.28125 68.583336Q356.39062 68.583336 356.84375 68.177086Q357.3125 67.75521 357.3125 67.00521Q357.3125 66.47396 357.03125 66.09896Q356.76562 65.708336 356.32812 65.583336Q356.03125 65.50521 355.26562 65.50521L353.0625 65.50521L353.0625 68.583336Z" fill-rule="nonzero"/><path fill="#ea4335" d="M375.0 64.083336C375.0 63.531048 375.44772 63.083332 376.0 63.083332L386.0 63.083332C386.55228 63.083332 387.0 63.531048 387.0 64.083336L387.0 74.083336C387.0 74.63562 386.55228 75.083336 386.0 75.083336L376.0 75.083336C375.44772 75.083336 375.0 74.63562 375.0 74.083336Z" fill-rule="nonzero"/><path fill="#1a1a1a" d="M401.5625 64.489586L402.70312 64.489586L402.70312 69.458336Q402.70312 70.75521 402.40625 71.520836Q402.10938 72.270836 401.34375 72.75521Q400.57812 73.22396 399.34375 73.22396Q398.14062 73.22396 397.35938 72.81771Q396.59375 72.395836 396.26562 71.614586Q395.9375 70.81771 395.9375 69.458336L395.9375 64.489586L397.07812 64.489586L397.07812 69.44271Q397.07812 70.56771 397.28125 71.09896Q397.5 71.63021 398.0 71.927086Q398.51562 72.208336 399.25 72.208336Q400.5 72.208336 401.03125 71.645836Q401.5625 71.06771 401.5625 69.44271L401.5625 64.489586ZM404.92188 73.083336L404.92188 64.489586L407.89062 64.489586Q408.89062 64.489586 409.42188 64.614586Q410.15625 64.78646 410.67188 65.22396Q411.35938 65.802086 411.6875 66.708336Q412.03125 67.59896 412.03125 68.739586Q412.03125 69.72396 411.79688 70.47396Q411.57812 71.22396 411.21875 71.72396Q410.85938 72.22396 410.42188 72.50521Q410.0 72.78646 409.40625 72.94271Q408.8125 73.083336 408.03125 73.083336L404.92188 73.083336ZM406.0625 72.06771L407.89062 72.06771Q408.75 72.06771 409.23438 71.91146Q409.71875 71.75521 410.0 71.458336Q410.40625 71.06771 410.625 70.38021Q410.85938 69.69271 410.85938 68.72396Q410.85938 67.38021 410.40625 66.66146Q409.96875 65.927086 409.34375 65.677086Q408.875 65.50521 407.875 65.50521L406.0625 65.50521L406.0625 72.06771ZM413.92188 73.083336L413.92188 64.489586L417.17188 64.489586Q418.01562 64.489586 418.46875 64.56771Q419.10938 64.677086 419.53125 64.97396Q419.96875 65.270836 420.21875 65.802086Q420.48438 66.333336 420.48438 66.97396Q420.48438 68.06771 419.78125 68.833336Q419.09375 69.583336 417.26562 69.583336L415.0625 69.583336L415.0625 73.083336L413.92188 73.083336ZM415.0625 68.583336L417.28125 68.583336Q418.39062 68.583336 418.84375 68.177086Q419.3125 67.75521 419.3125 67.00521Q419.3125 66.47396 419.03125 66.09896Q418.76562 65.708336 418.32812 65.583336Q418.03125 65.50521 417.26562 65.50521L415.0625 65.50521L415.0625 68.583336Z" fill-rule="nonzero"/><path fill="#757575" d="M219.95312 41.85L219.95312 27.537498L230.57812 27.537498L230.57812 29.959373L222.84375 29.959373L222.84375 33.13125L230.03125 33.13125L230.03125 35.5375L222.84375 35.5375L222.84375 39.44375L230.84375 39.44375L230.84375 41.85L219.95312 41.85ZM242.375 41.85L239.625 41.85L239.625 36.553123Q239.625 34.88125 239.45312 34.396873Q239.28125 33.896873 238.875 33.63125Q238.48438 33.35 237.92188 33.35Q237.21875 33.35 236.64062 33.740623Q236.07812 34.13125 235.85938 34.771873Q235.65625 35.4125 235.65625 37.146873L235.65625 41.85L232.92188 41.85L232.92188 31.474998L235.46875 31.474998L235.46875 33.00625Q236.82812 31.240623 238.89062 31.240623Q239.79688 31.240623 240.54688 31.568748Q241.29688 31.896873 241.67188 32.4125Q242.0625 32.9125 242.21875 33.56875Q242.375 34.209373 242.375 35.396873L242.375 41.85ZM244.9375 41.85L244.9375 27.537498L247.6875 27.537498L247.6875 41.85L244.9375 41.85ZM251.98438 34.646873L249.5 34.19375Q249.92188 32.69375 250.9375 31.974998Q251.96875 31.240623 253.98438 31.240623Q255.82812 31.240623 256.71875 31.678123Q257.625 32.115623 257.98438 32.7875Q258.35938 33.44375 258.35938 35.240623L258.32812 38.44375Q258.32812 39.803123 258.45312 40.459373Q258.59375 41.1 258.95312 41.85L256.23438 41.85Q256.125 41.56875 255.96875 41.0375Q255.90625 40.7875 255.875 40.709373Q255.17188 41.396873 254.35938 41.740623Q253.5625 42.084373 252.65625 42.084373Q251.0625 42.084373 250.14062 41.225Q249.21875 40.35 249.21875 39.021873Q249.21875 38.13125 249.625 37.44375Q250.04688 36.75625 250.79688 36.396873Q251.5625 36.021873 253.0 35.75625Q254.92188 35.396873 255.65625 35.084373L255.65625 34.803123Q255.65625 34.021873 255.26562 33.69375Q254.875 33.35 253.79688 33.35Q253.0625 33.35 252.64062 33.63125Q252.23438 33.9125 251.98438 34.646873ZM255.65625 36.865623Q255.125 37.0375 253.98438 37.2875Q252.84375 37.5375 252.5 37.771873Q251.95312 38.146873 251.95312 38.740623Q251.95312 39.303123 252.375 39.725Q252.8125 40.146873 253.48438 40.146873Q254.21875 40.146873 254.89062 39.6625Q255.39062 39.2875 255.54688 38.75625Q255.65625 38.396873 255.65625 37.4125L255.65625 36.865623ZM269.98438 34.5375L267.28125 35.0375Q267.14062 34.225 266.65625 33.81875Q266.17188 33.396873 265.40625 33.396873Q264.375 33.396873 263.76562 34.115623Q263.15625 34.81875 263.15625 36.475Q263.15625 38.31875 263.76562 39.084373Q264.39062 39.85 265.4375 39.85Q266.21875 39.85 266.71875 39.4125Q267.21875 38.959373 267.42188 37.88125L270.10938 38.334373Q269.70312 40.19375 268.5 41.146873Q267.3125 42.084373 265.3125 42.084373Q263.03125 42.084373 261.67188 40.646873Q260.32812 39.209373 260.32812 36.678123Q260.32812 34.1 261.6875 32.678123Q263.04688 31.240623 265.35938 31.240623Q267.25 31.240623 268.35938 32.06875Q269.48438 32.88125 269.98438 34.5375ZM277.9375 38.553123L280.67188 39.00625Q280.15625 40.50625 279.01562 41.303123Q277.875 42.084373 276.17188 42.084373Q273.45312 42.084373 272.15625 40.31875Q271.14062 38.896873 271.14062 36.740623Q271.14062 34.1625 272.48438 32.709373Q273.82812 31.240623 275.89062 31.240623Q278.20312 31.240623 279.53125 32.771873Q280.875 34.303123 280.82812 37.459373L273.95312 37.459373Q273.98438 38.678123 274.60938 39.365623Q275.25 40.0375 276.1875 40.0375Q276.84375 40.0375 277.28125 39.69375Q277.71875 39.334373 277.9375 38.553123ZM278.09375 35.771873Q278.0625 34.584373 277.46875 33.975Q276.89062 33.35 276.0625 33.35Q275.15625 33.35 274.57812 33.990623Q273.98438 34.646873 274.0 35.771873L278.09375 35.771873ZM281.96875 38.896873L284.71875 38.475Q284.90625 39.271873 285.4375 39.69375Q285.96875 40.1 286.9375 40.1Q288.0 40.1 288.54688 39.709373Q288.90625 39.44375 288.90625 38.975Q288.90625 38.6625 288.70312 38.459373Q288.5 38.271873 287.79688 38.1Q284.46875 37.365623 283.57812 36.75625Q282.34375 35.928123 282.34375 34.428123Q282.34375 33.084373 283.40625 32.1625Q284.48438 31.240623 286.71875 31.240623Q288.84375 31.240623 289.875 31.943748Q290.92188 32.63125 291.3125 33.990623L288.71875 34.459373Q288.54688 33.865623 288.07812 33.5375Q287.625 33.209373 286.76562 33.209373Q285.6875 33.209373 285.21875 33.521873Q284.90625 33.740623 284.90625 34.06875Q284.90625 34.365623 285.17188 34.56875Q285.54688 34.85 287.73438 35.35Q289.92188 35.85 290.79688 36.56875Q291.65625 37.303123 291.65625 38.6Q291.65625 40.0375 290.46875 41.06875Q289.28125 42.084373 286.9375 42.084373Q284.82812 42.084373 283.57812 41.225Q282.34375 40.365623 281.96875 38.896873ZM306.375 41.85L303.625 41.85L303.625 31.506248Q302.125 32.9125 300.07812 33.584373L300.07812 31.099998Q301.15625 30.740623 302.40625 29.771873Q303.67188 28.787498 304.14062 27.474998L306.375 27.474998L306.375 41.85ZM314.98438 27.474998Q317.0625 27.474998 318.23438 28.959373Q319.64062 30.709373 319.64062 34.7875Q319.64062 38.85 318.23438 40.63125Q317.0625 42.1 314.98438 42.1Q312.90625 42.1 311.625 40.490623Q310.34375 38.88125 310.34375 34.75625Q310.34375 30.709373 311.75 28.943748Q312.90625 27.474998 314.98438 27.474998ZM314.98438 29.756248Q314.48438 29.756248 314.09375 30.068748Q313.70312 30.381248 313.5 31.209373Q313.21875 32.271873 313.21875 34.7875Q313.21875 37.303123 313.46875 38.25625Q313.71875 39.19375 314.09375 39.50625Q314.48438 39.81875 314.98438 39.81875Q315.48438 39.81875 315.875 39.50625Q316.26562 39.178123 316.48438 38.365623Q316.76562 37.303123 316.76562 34.7875Q316.76562 32.271873 316.51562 31.334373Q316.26562 30.381248 315.875 30.068748Q315.48438 29.756248 314.98438 29.756248ZM325.98438 27.474998Q328.0625 27.474998 329.23438 28.959373Q330.64062 30.709373 330.64062 34.7875Q330.64062 38.85 329.23438 40.63125Q328.0625 42.1 325.98438 42.1Q323.90625 42.1 322.625 40.490623Q321.34375 38.88125 321.34375 34.75625Q321.34375 30.709373 322.75 28.943748Q323.90625 27.474998 325.98438 27.474998ZM325.98438 29.756248Q325.48438 29.756248 325.09375 30.068748Q324.70312 30.381248 324.5 31.209373Q324.21875 32.271873 324.21875 34.7875Q324.21875 37.303123 324.46875 38.25625Q324.71875 39.19375 325.09375 39.50625Q325.48438 39.81875 325.98438 39.81875Q326.48438 39.81875 326.875 39.50625Q327.26562 39.178123 327.48438 38.365623Q327.76562 37.303123 327.76562 34.7875Q327.76562 32.271873 327.51562 31.334373Q327.26562 30.381248 326.875 30.068748Q326.48438 29.756248 325.98438 29.756248ZM336.98438 27.474998Q339.0625 27.474998 340.23438 28.959373Q341.64062 30.709373 341.64062 34.7875Q341.64062 38.85 340.23438 40.63125Q339.0625 42.1 336.98438 42.1Q334.90625 42.1 333.625 40.490623Q332.34375 38.88125 332.34375 34.75625Q332.34375 30.709373 333.75 28.943748Q334.90625 27.474998 336.98438 27.474998ZM336.98438 29.756248Q336.48438 29.756248 336.09375 30.068748Q335.70312 30.381248 335.5 31.209373Q335.21875 32.271873 335.21875 34.7875Q335.21875 37.303123 335.46875 38.25625Q335.71875 39.19375 336.09375 39.50625Q336.48438 39.81875 336.98438 39.81875Q337.48438 39.81875 337.875 39.50625Q338.26562 39.178123 338.48438 38.365623Q338.76562 37.303123 338.76562 34.7875Q338.76562 32.271873 338.51562 31.334373Q338.26562 30.381248 337.875 30.068748Q337.48438 29.756248 336.98438 29.756248ZM349.92188 41.85L349.92188 27.537498L354.25 27.537498L356.84375 37.303123L359.40625 27.537498L363.75 27.537498L363.75 41.85L361.0625 41.85L361.0625 30.584373L358.21875 41.85L355.4375 41.85L352.60938 30.584373L352.60938 41.85L349.92188 41.85ZM366.8125 41.85L366.8125 27.537498L369.5625 27.537498L369.5625 32.69375Q370.82812 31.240623 372.57812 31.240623Q374.46875 31.240623 375.70312 32.615623Q376.95312 33.990623 376.95312 36.553123Q376.95312 39.209373 375.6875 40.646873Q374.42188 42.084373 372.60938 42.084373Q371.71875 42.084373 370.85938 41.646873Q370.0 41.19375 369.375 40.31875L369.375 41.85L366.8125 41.85ZM369.54688 36.44375Q369.54688 38.053123 370.04688 38.81875Q370.76562 39.9125 371.95312 39.9125Q372.85938 39.9125 373.5 39.146873Q374.14062 38.365623 374.14062 36.69375Q374.14062 34.9125 373.48438 34.13125Q372.84375 33.35 371.84375 33.35Q370.85938 33.35 370.20312 34.115623Q369.54688 34.88125 369.54688 36.44375ZM378.85938 31.474998L381.42188 31.474998L381.42188 33.00625Q381.92188 32.225 382.76562 31.740623Q383.60938 31.240623 384.65625 31.240623Q386.45312 31.240623 387.70312 32.6625Q388.96875 34.06875 388.96875 36.6Q388.96875 39.209373 387.70312 40.646873Q386.4375 42.084373 384.625 42.084373Q383.76562 42.084373 383.0625 41.740623Q382.375 41.396873 381.60938 40.56875L381.60938 45.803123L378.85938 45.803123L378.85938 31.474998ZM381.57812 36.490623Q381.57812 38.240623 382.26562 39.084373Q382.95312 39.9125 383.95312 39.9125Q384.90625 39.9125 385.54688 39.146873Q386.1875 38.365623 386.1875 36.63125Q386.1875 34.990623 385.53125 34.209373Q384.875 33.4125 383.90625 33.4125Q382.90625 33.4125 382.23438 34.19375Q381.57812 34.959373 381.57812 36.490623ZM389.96875 38.896873L392.71875 38.475Q392.90625 39.271873 393.4375 39.69375Q393.96875 40.1 394.9375 40.1Q396.0 40.1 396.54688 39.709373Q396.90625 39.44375 396.90625 38.975Q396.90625 38.6625 396.70312 38.459373Q396.5 38.271873 395.79688 38.1Q392.46875 37.365623 391.57812 36.75625Q390.34375 35.928123 390.34375 34.428123Q390.34375 33.084373 391.40625 32.1625Q392.48438 31.240623 394.71875 31.240623Q396.84375 31.240623 397.875 31.943748Q398.92188 32.63125 399.3125 33.990623L396.71875 34.459373Q396.54688 33.865623 396.07812 33.5375Q395.625 33.209373 394.76562 33.209373Q393.6875 33.209373 393.21875 33.521873Q392.90625 33.740623 392.90625 34.06875Q392.90625 34.365623 393.17188 34.56875Q393.54688 34.85 395.73438 35.35Q397.92188 35.85 398.79688 36.56875Q399.65625 37.303123 399.65625 38.6Q399.65625 40.0375 398.46875 41.06875Q397.28125 42.084373 394.9375 42.084373Q392.82812 42.084373 391.57812 41.225Q390.34375 40.365623 389.96875 38.896873ZM406.45312 37.69375L406.45312 35.63125L417.57812 35.63125L417.57812 37.69375L406.45312 37.69375ZM424.40625 38.5375L427.0625 38.240623Q427.15625 39.053123 427.5625 39.44375Q427.98438 39.834373 428.65625 39.834373Q429.5 39.834373 430.09375 39.053123Q430.70312 38.271873 430.85938 35.81875Q429.82812 37.021873 428.28125 37.021873Q426.59375 37.021873 425.35938 35.725Q424.14062 34.4125 424.14062 32.31875Q424.14062 30.146873 425.42188 28.818748Q426.71875 27.474998 428.71875 27.474998Q430.90625 27.474998 432.29688 29.162498Q433.70312 30.849998 433.70312 34.69375Q433.70312 38.63125 432.23438 40.365623Q430.78125 42.1 428.45312 42.1Q426.76562 42.1 425.73438 41.209373Q424.70312 40.31875 424.40625 38.5375ZM430.625 32.5375Q430.625 31.209373 430.01562 30.490623Q429.40625 29.756248 428.59375 29.756248Q427.84375 29.756248 427.32812 30.349998Q426.82812 30.943748 426.82812 32.31875Q426.82812 33.709373 427.375 34.365623Q427.92188 35.00625 428.75 35.00625Q429.53125 35.00625 430.07812 34.38125Q430.625 33.75625 430.625 32.5375ZM439.98438 27.474998Q442.0625 27.474998 443.23438 28.959373Q444.64062 30.709373 444.64062 34.7875Q444.64062 38.85 443.23438 40.63125Q442.0625 42.1 439.98438 42.1Q437.90625 42.1 436.625 40.490623Q435.34375 38.88125 435.34375 34.75625Q435.34375 30.709373 436.75 28.943748Q437.90625 27.474998 439.98438 27.474998ZM439.98438 29.756248Q439.48438 29.756248 439.09375 30.068748Q438.70312 30.381248 438.5 31.209373Q438.21875 32.271873 438.21875 34.7875Q438.21875 37.303123 438.46875 38.25625Q438.71875 39.19375 439.09375 39.50625Q439.48438 39.81875 439.98438 39.81875Q440.48438 39.81875 440.875 39.50625Q441.26562 39.178123 441.48438 38.365623Q441.76562 37.303123 441.76562 34.7875Q441.76562 32.271873 441.51562 31.334373Q441.26562 30.381248 440.875 30.068748Q440.48438 29.756248 439.98438 29.756248ZM450.98438 27.474998Q453.0625 27.474998 454.23438 28.959373Q455.64062 30.709373 455.64062 34.7875Q455.64062 38.85 454.23438 40.63125Q453.0625 42.1 450.98438 42.1Q448.90625 42.1 447.625 40.490623Q446.34375 38.88125 446.34375 34.75625Q446.34375 30.709373 447.75 28.943748Q448.90625 27.474998 450.98438 27.474998ZM450.98438 29.756248Q450.48438 29.756248 450.09375 30.068748Q449.70312 30.381248 449.5 31.209373Q449.21875 32.271873 449.21875 34.7875Q449.21875 37.303123 449.46875 38.25625Q449.71875 39.19375 450.09375 39.50625Q450.48438 39.81875 450.98438 39.81875Q451.48438 39.81875 451.875 39.50625Q452.26562 39.178123 452.48438 38.365623Q452.76562 37.303123 452.76562 34.7875Q452.76562 32.271873 452.51562 31.334373Q452.26562 30.381248 451.875 30.068748Q451.48438 29.756248 450.98438 29.756248ZM461.98438 27.474998Q464.0625 27.474998 465.23438 28.959373Q466.64062 30.709373 466.64062 34.7875Q466.64062 38.85 465.23438 40.63125Q464.0625 42.1 461.98438 42.1Q459.90625 42.1 458.625 40.490623Q457.34375 38.88125 457.34375 34.75625Q457.34375 30.709373 458.75 28.943748Q459.90625 27.474998 461.98438 27.474998ZM461.98438 29.756248Q461.48438 29.756248 461.09375 30.068748Q460.70312 30.381248 460.5 31.209373Q460.21875 32.271873 460.21875 34.7875Q460.21875 37.303123 460.46875 38.25625Q460.71875 39.19375 461.09375 39.50625Q461.48438 39.81875 461.98438 39.81875Q462.48438 39.81875 462.875 39.50625Q463.26562 39.178123 463.48438 38.365623Q463.76562 37.303123 463.76562 34.7875Q463.76562 32.271873 463.51562 31.334373Q463.26562 30.381248 462.875 30.068748Q462.48438 29.756248 461.98438 29.756248ZM474.92188 41.85L474.92188 27.537498L479.25 27.537498L481.84375 37.303123L484.40625 27.537498L488.75 27.537498L488.75 41.85L486.0625 41.85L486.0625 30.584373L483.21875 41.85L480.4375 41.85L477.60938 30.584373L477.60938 41.85L474.92188 41.85ZM495.17188 41.85L495.17188 29.959373L490.9375 29.959373L490.9375 27.537498L502.3125 27.537498L502.3125 29.959373L498.0625 29.959373L498.0625 41.85L495.17188 41.85ZM504.9375 27.537498L507.82812 27.537498L507.82812 35.2875Q507.82812 37.13125 507.9375 37.678123Q508.125 38.553123 508.8125 39.084373Q509.51562 39.615623 510.73438 39.615623Q511.95312 39.615623 512.5781 39.115623Q513.2031 38.615623 513.3281 37.88125Q513.46875 37.146873 513.46875 35.459373L513.46875 27.537498L516.3594 27.537498L516.3594 35.053123Q516.3594 37.63125 516.125 38.69375Q515.8906 39.75625 515.25 40.490623Q514.625 41.225 513.5625 41.6625Q512.5156 42.1 510.8125 42.1Q508.76562 42.1 507.70312 41.63125Q506.64062 41.146873 506.03125 40.396873Q505.42188 39.63125 505.21875 38.803123Q504.9375 37.56875 504.9375 35.1625L504.9375 27.537498Z" fill-rule="nonzero"/></svg>