<svg version="1.1" viewBox="0.0 0.0 706.0 435.0" fill="none" stroke="none" stroke-linecap="square" stroke-miterlimit="10" width="706" height="435" xmlns:xlink="http://www.w3.org/1999/xlink" xmlns="http://www.w3.org/2000/svg"><path fill="#ffffff" d="M0 0L706.0 0L706.0 435.0L0 435.0L0 0Z" fill-rule="nonzero"/><path stroke="#333333" stroke-width="1.0" stroke-linecap="butt" d="M48.5 361.5L684.5 361.5" fill-rule="nonzero"/><path stroke="#cccccc" stroke-width="1.0" stroke-linecap="butt" d="M48.5 272.5L684.5 272.5" fill-rule="nonzero"/><path stroke="#cccccc" stroke-width="1.0" stroke-linecap="butt" d="M48.5 184.5L684.5 184.5" fill-rule="nonzero"/><path stroke="#cccccc" stroke-width="1.0" stroke-linecap="butt" d="M48.5 95.5L684.5 95.5" fill-rule="nonzero"/><path stroke="#e6e6e6" stroke-width="1.0" stroke-linecap="butt" d="M48.5 331.5L684.5 331.5" fill-rule="nonzero"/><path stroke="#e6e6e6" stroke-width="1.0" stroke-linecap="butt" d="M48.5 302.5L684.5 302.5" fill-rule="nonzero"/><path stroke="#e6e6e6" stroke-width="1.0" stroke-linecap="butt" d="M48.5 243.5L684.5 243.5" fill-rule="nonzero"/><path stroke="#e6e6e6" stroke-width="1.0" stroke-linecap="butt" d="M48.5 213.5L684.5 213.5" fill-rule="nonzero"/><path stroke="#e6e6e6" stroke-width="1.0" stroke-linecap="butt" d="M48.5 154.5L684.5 154.5" fill-rule="nonzero"/><path stroke="#e6e6e6" stroke-width="1.0" stroke-linecap="butt" d="M48.5 125.5L684.5 125.5" fill-rule="nonzero"/><clipPath id="id_0"><path d="M48.75 95.75L684.25 95.75L684.25 361.25L48.75 361.25L48.75 95.75Z" clip-rule="nonzero"/></clipPath><path stroke="#000000" stroke-width="2.0" stroke-linecap="butt" stroke-opacity="0.0" clip-path="url(#id_0)" d="M230.0 361.0L144.0 361.0L144.0 142.0C144.0 140.89543 144.89543 140.0 146.0 140.0L228.0 140.0C229.10457 140.0 230.0 140.89543 230.0 142.0Z" fill-rule="nonzero"/><path fill="#4285f4" clip-path="url(#id_0)" d="M230.0 361.0L144.0 361.0L144.0 142.0C144.0 140.89543 144.89543 140.0 146.0 140.0L228.0 140.0C229.10457 140.0 230.0 140.89543 230.0 142.0Z" fill-rule="nonzero"/><path stroke="#000000" stroke-width="2.0" stroke-linecap="butt" stroke-opacity="0.0" clip-path="url(#id_0)" d="M501.0 361.0L415.0 361.0L415.0 153.0C415.0 151.89543 415.89542 151.0 417.0 151.0L499.0 151.0C500.10458 151.0 501.0 151.89543 501.0 153.0Z" fill-rule="nonzero"/><path fill="#4285f4" clip-path="url(#id_0)" d="M501.0 361.0L415.0 361.0L415.0 153.0C415.0 151.89543 415.89542 151.0 417.0 151.0L499.0 151.0C500.10458 151.0 501.0 151.89543 501.0 153.0Z" fill-rule="nonzero"/><path stroke="#000000" stroke-width="2.0" stroke-linecap="butt" stroke-opacity="0.0" clip-path="url(#id_0)" d="M318.0 361.0L232.0 361.0L232.0 142.0C232.0 140.89543 232.89543 140.0 234.0 140.0L316.0 140.0C317.10458 140.0 318.0 140.89543 318.0 142.0Z" fill-rule="nonzero"/><path fill="#ea4335" clip-path="url(#id_0)" d="M318.0 361.0L232.0 361.0L232.0 142.0C232.0 140.89543 232.89543 140.0 234.0 140.0L316.0 140.0C317.10458 140.0 318.0 140.89543 318.0 142.0Z" fill-rule="nonzero"/><path stroke="#000000" stroke-width="2.0" stroke-linecap="butt" stroke-opacity="0.0" clip-path="url(#id_0)" d="M589.0 361.0L503.0 361.0L503.0 150.0C503.0 148.89543 503.89542 148.0 505.0 148.0L587.0 148.0C588.10455 148.0 589.0 148.89543 589.0 150.0Z" fill-rule="nonzero"/><path fill="#ea4335" clip-path="url(#id_0)" d="M589.0 361.0L503.0 361.0L503.0 150.0C503.0 148.89543 503.89542 148.0 505.0 148.0L587.0 148.0C588.10455 148.0 589.0 148.89543 589.0 150.0Z" fill-rule="nonzero"/><path stroke="#4285f4" stroke-width="3.0" stroke-linejoin="round" stroke-linecap="round" d="M173.78125 154.08223L174.96875 154.08223L174.96875 154.95723L173.78125 154.95723L173.78125 156.9416L172.70312 156.9416L172.70312 154.95723L168.8125 154.95723L168.8125 154.3166L172.625 148.41035L173.78125 148.41035L173.78125 154.08223ZM170.04688 154.08223L172.70312 154.08223L172.70312 149.89473L172.5625 150.1291L170.04688 154.08223ZM180.35938 153.1916Q180.03125 153.59785 179.54688 153.84785Q179.07812 154.08223 178.51562 154.08223Q177.78125 154.08223 177.23438 153.72285Q176.6875 153.36348 176.39062 152.70723Q176.09375 152.03535 176.09375 151.23848Q176.09375 150.39473 176.40625 149.70723Q176.73438 149.01973 177.32812 148.66035Q177.9375 148.28535 178.73438 148.28535Q180.0 148.28535 180.71875 149.23848Q181.45312 150.1916 181.45312 151.8166L181.45312 152.1291Q181.45312 154.6291 180.46875 155.76973Q179.48438 156.91035 177.5 156.9416L177.28125 156.9416L177.28125 156.03535L177.51562 156.03535Q178.85938 156.0041 179.57812 155.33223Q180.29688 154.66035 180.35938 153.1916ZM178.6875 153.1916Q179.23438 153.1916 179.6875 152.86348Q180.15625 152.51973 180.375 152.03535L180.375 151.59785Q180.375 150.53535 179.90625 149.86348Q179.4375 149.1916 178.73438 149.1916Q178.01562 149.1916 177.57812 149.73848Q177.15625 150.28535 177.15625 151.1916Q177.15625 152.0666 177.5625 152.6291Q177.98438 153.1916 178.6875 153.1916ZM187.35938 153.1916Q187.03125 153.59785 186.54688 153.84785Q186.07812 154.08223 185.51562 154.08223Q184.78125 154.08223 184.23438 153.72285Q183.6875 153.36348 183.39062 152.70723Q183.09375 152.03535 183.09375 151.23848Q183.09375 150.39473 183.40625 149.70723Q183.73438 149.01973 184.32812 148.66035Q184.9375 148.28535 185.73438 148.28535Q187.0 148.28535 187.71875 149.23848Q188.45312 150.1916 188.45312 151.8166L188.45312 152.1291Q188.45312 154.6291 187.46875 155.76973Q186.48438 156.91035 184.5 156.9416L184.28125 156.9416L184.28125 156.03535L184.51562 156.03535Q185.85938 156.0041 186.57812 155.33223Q187.29688 154.66035 187.35938 153.1916ZM185.6875 153.1916Q186.23438 153.1916 186.6875 152.86348Q187.15625 152.51973 187.375 152.03535L187.375 151.59785Q187.375 150.53535 186.90625 149.86348Q186.4375 149.1916 185.73438 149.1916Q185.01562 149.1916 184.57812 149.73848Q184.15625 150.28535 184.15625 151.1916Q184.15625 152.0666 184.5625 152.6291Q184.98438 153.1916 185.6875 153.1916ZM190.28125 158.64473L189.67188 158.22285Q190.21875 157.45723 190.25 156.6291L190.25 155.66035L191.3125 155.66035L191.3125 156.5041Q191.3125 157.09785 191.01562 157.6916Q190.71875 158.28535 190.28125 158.64473ZM196.46875 148.41035L196.46875 149.3166L196.26562 149.3166Q195.0 149.34785 194.25 150.08223Q193.5 150.80098 193.375 152.11348Q194.0625 151.34785 195.21875 151.34785Q196.32812 151.34785 197.0 152.1291Q197.67188 152.91035 197.67188 154.16035Q197.67188 155.47285 196.95312 156.26973Q196.23438 157.0666 195.01562 157.0666Q193.79688 157.0666 193.03125 156.1291Q192.28125 155.17598 192.28125 153.6916L192.28125 153.28535Q192.28125 150.92598 193.28125 149.67598Q194.28125 148.42598 196.26562 148.41035L196.46875 148.41035ZM195.04688 152.2541Q194.48438 152.2541 194.01562 152.58223Q193.54688 152.91035 193.35938 153.42598L193.35938 153.8166Q193.35938 154.8791 193.82812 155.51973Q194.3125 156.16035 195.01562 156.16035Q195.75 156.16035 196.17188 155.6291Q196.59375 155.08223 196.59375 154.20723Q196.59375 153.33223 196.17188 152.80098Q195.75 152.2541 195.04688 152.2541ZM204.39062 150.6291Q204.39062 151.26973 204.04688 151.76973Q203.70312 152.26973 203.14062 152.55098Q203.79688 152.83223 204.1875 153.39473Q204.57812 153.9416 204.57812 154.64473Q204.57812 155.73848 203.82812 156.41035Q203.09375 157.0666 201.875 157.0666Q200.64062 157.0666 199.89062 156.41035Q199.15625 155.73848 199.15625 154.64473Q199.15625 153.9416 199.53125 153.39473Q199.90625 152.83223 200.57812 152.55098Q200.01562 152.26973 199.6875 151.76973Q199.35938 151.26973 199.35938 150.6291Q199.35938 149.55098 200.04688 148.92598Q200.73438 148.28535 201.875 148.28535Q203.0 148.28535 203.6875 148.92598Q204.39062 149.55098 204.39062 150.6291ZM203.5 154.61348Q203.5 153.89473 203.04688 153.45723Q202.59375 153.0041 201.85938 153.0041Q201.125 153.0041 200.67188 153.45723Q200.23438 153.89473 200.23438 154.6291Q200.23438 155.34785 200.67188 155.76973Q201.10938 156.17598 201.875 156.17598Q202.625 156.17598 203.0625 155.7541Q203.5 155.33223 203.5 154.61348ZM201.875 149.17598Q201.23438 149.17598 200.82812 149.58223Q200.4375 149.97285 200.4375 150.66035Q200.4375 151.30098 200.82812 151.70723Q201.21875 152.11348 201.85938 152.11348Q202.51562 152.11348 202.90625 151.70723Q203.29688 151.30098 203.29688 150.66035Q203.29688 150.0041 202.89062 149.59785Q202.48438 149.17598 201.875 149.17598Z" fill-rule="nonzero"/><path fill="#ffffff" d="M173.78125 154.08223L174.96875 154.08223L174.96875 154.95723L173.78125 154.95723L173.78125 156.9416L172.70312 156.9416L172.70312 154.95723L168.8125 154.95723L168.8125 154.3166L172.625 148.41035L173.78125 148.41035L173.78125 154.08223ZM170.04688 154.08223L172.70312 154.08223L172.70312 149.89473L172.5625 150.1291L170.04688 154.08223ZM180.35938 153.1916Q180.03125 153.59785 179.54688 153.84785Q179.07812 154.08223 178.51562 154.08223Q177.78125 154.08223 177.23438 153.72285Q176.6875 153.36348 176.39062 152.70723Q176.09375 152.03535 176.09375 151.23848Q176.09375 150.39473 176.40625 149.70723Q176.73438 149.01973 177.32812 148.66035Q177.9375 148.28535 178.73438 148.28535Q180.0 148.28535 180.71875 149.23848Q181.45312 150.1916 181.45312 151.8166L181.45312 152.1291Q181.45312 154.6291 180.46875 155.76973Q179.48438 156.91035 177.5 156.9416L177.28125 156.9416L177.28125 156.03535L177.51562 156.03535Q178.85938 156.0041 179.57812 155.33223Q180.29688 154.66035 180.35938 153.1916ZM178.6875 153.1916Q179.23438 153.1916 179.6875 152.86348Q180.15625 152.51973 180.375 152.03535L180.375 151.59785Q180.375 150.53535 179.90625 149.86348Q179.4375 149.1916 178.73438 149.1916Q178.01562 149.1916 177.57812 149.73848Q177.15625 150.28535 177.15625 151.1916Q177.15625 152.0666 177.5625 152.6291Q177.98438 153.1916 178.6875 153.1916ZM187.35938 153.1916Q187.03125 153.59785 186.54688 153.84785Q186.07812 154.08223 185.51562 154.08223Q184.78125 154.08223 184.23438 153.72285Q183.6875 153.36348 183.39062 152.70723Q183.09375 152.03535 183.09375 151.23848Q183.09375 150.39473 183.40625 149.70723Q183.73438 149.01973 184.32812 148.66035Q184.9375 148.28535 185.73438 148.28535Q187.0 148.28535 187.71875 149.23848Q188.45312 150.1916 188.45312 151.8166L188.45312 152.1291Q188.45312 154.6291 187.46875 155.76973Q186.48438 156.91035 184.5 156.9416L184.28125 156.9416L184.28125 156.03535L184.51562 156.03535Q185.85938 156.0041 186.57812 155.33223Q187.29688 154.66035 187.35938 153.1916ZM185.6875 153.1916Q186.23438 153.1916 186.6875 152.86348Q187.15625 152.51973 187.375 152.03535L187.375 151.59785Q187.375 150.53535 186.90625 149.86348Q186.4375 149.1916 185.73438 149.1916Q185.01562 149.1916 184.57812 149.73848Q184.15625 150.28535 184.15625 151.1916Q184.15625 152.0666 184.5625 152.6291Q184.98438 153.1916 185.6875 153.1916ZM190.28125 158.64473L189.67188 158.22285Q190.21875 157.45723 190.25 156.6291L190.25 155.66035L191.3125 155.66035L191.3125 156.5041Q191.3125 157.09785 191.01562 157.6916Q190.71875 158.28535 190.28125 158.64473ZM196.46875 148.41035L196.46875 149.3166L196.26562 149.3166Q195.0 149.34785 194.25 150.08223Q193.5 150.80098 193.375 152.11348Q194.0625 151.34785 195.21875 151.34785Q196.32812 151.34785 197.0 152.1291Q197.67188 152.91035 197.67188 154.16035Q197.67188 155.47285 196.95312 156.26973Q196.23438 157.0666 195.01562 157.0666Q193.79688 157.0666 193.03125 156.1291Q192.28125 155.17598 192.28125 153.6916L192.28125 153.28535Q192.28125 150.92598 193.28125 149.67598Q194.28125 148.42598 196.26562 148.41035L196.46875 148.41035ZM195.04688 152.2541Q194.48438 152.2541 194.01562 152.58223Q193.54688 152.91035 193.35938 153.42598L193.35938 153.8166Q193.35938 154.8791 193.82812 155.51973Q194.3125 156.16035 195.01562 156.16035Q195.75 156.16035 196.17188 155.6291Q196.59375 155.08223 196.59375 154.20723Q196.59375 153.33223 196.17188 152.80098Q195.75 152.2541 195.04688 152.2541ZM204.39062 150.6291Q204.39062 151.26973 204.04688 151.76973Q203.70312 152.26973 203.14062 152.55098Q203.79688 152.83223 204.1875 153.39473Q204.57812 153.9416 204.57812 154.64473Q204.57812 155.73848 203.82812 156.41035Q203.09375 157.0666 201.875 157.0666Q200.64062 157.0666 199.89062 156.41035Q199.15625 155.73848 199.15625 154.64473Q199.15625 153.9416 199.53125 153.39473Q199.90625 152.83223 200.57812 152.55098Q200.01562 152.26973 199.6875 151.76973Q199.35938 151.26973 199.35938 150.6291Q199.35938 149.55098 200.04688 148.92598Q200.73438 148.28535 201.875 148.28535Q203.0 148.28535 203.6875 148.92598Q204.39062 149.55098 204.39062 150.6291ZM203.5 154.61348Q203.5 153.89473 203.04688 153.45723Q202.59375 153.0041 201.85938 153.0041Q201.125 153.0041 200.67188 153.45723Q200.23438 153.89473 200.23438 154.6291Q200.23438 155.34785 200.67188 155.76973Q201.10938 156.17598 201.875 156.17598Q202.625 156.17598 203.0625 155.7541Q203.5 155.33223 203.5 154.61348ZM201.875 149.17598Q201.23438 149.17598 200.82812 149.58223Q200.4375 149.97285 200.4375 150.66035Q200.4375 151.30098 200.82812 151.70723Q201.21875 152.11348 201.85938 152.11348Q202.51562 152.11348 202.90625 151.70723Q203.29688 151.30098 203.29688 150.66035Q203.29688 150.0041 202.89062 149.59785Q202.48438 149.17598 201.875 149.17598Z" fill-rule="nonzero"/><path stroke="#4285f4" stroke-width="3.0" stroke-linejoin="round" stroke-linecap="round" d="M452.78125 165.00313L453.96875 165.00313L453.96875 165.87813L452.78125 165.87813L452.78125 167.8625L451.70312 167.8625L451.70312 165.87813L447.8125 165.87813L447.8125 165.2375L451.625 159.33125L452.78125 159.33125L452.78125 165.00313ZM449.04688 165.00313L451.70312 165.00313L451.70312 160.81563L451.5625 161.05L449.04688 165.00313ZM460.71875 159.94063L457.1875 167.8625L456.04688 167.8625L459.5625 160.22188L454.95312 160.22188L454.95312 159.33125L460.71875 159.33125L460.71875 159.94063ZM462.70312 163.58125L463.14062 159.33125L467.51562 159.33125L467.51562 160.33125L464.0625 160.33125L463.79688 162.65938Q464.4375 162.28438 465.23438 162.28438Q466.39062 162.28438 467.07812 163.06563Q467.76562 163.83125 467.76562 165.14375Q467.76562 166.45625 467.04688 167.22188Q466.34375 167.9875 465.0625 167.9875Q463.9375 167.9875 463.21875 167.3625Q462.5 166.72188 462.40625 165.6125L463.42188 165.6125Q463.53125 166.34688 463.95312 166.72188Q464.375 167.09688 465.0625 167.09688Q465.8125 167.09688 466.25 166.58125Q466.6875 166.06563 466.6875 165.15938Q466.6875 164.3 466.21875 163.78438Q465.75 163.26875 464.96875 163.26875Q464.26562 163.26875 463.85938 163.56563L463.57812 163.8L462.70312 163.58125Z" fill-rule="nonzero"/><path fill="#ffffff" d="M452.78125 165.00313L453.96875 165.00313L453.96875 165.87813L452.78125 165.87813L452.78125 167.8625L451.70312 167.8625L451.70312 165.87813L447.8125 165.87813L447.8125 165.2375L451.625 159.33125L452.78125 159.33125L452.78125 165.00313ZM449.04688 165.00313L451.70312 165.00313L451.70312 160.81563L451.5625 161.05L449.04688 165.00313ZM460.71875 159.94063L457.1875 167.8625L456.04688 167.8625L459.5625 160.22188L454.95312 160.22188L454.95312 159.33125L460.71875 159.33125L460.71875 159.94063ZM462.70312 163.58125L463.14062 159.33125L467.51562 159.33125L467.51562 160.33125L464.0625 160.33125L463.79688 162.65938Q464.4375 162.28438 465.23438 162.28438Q466.39062 162.28438 467.07812 163.06563Q467.76562 163.83125 467.76562 165.14375Q467.76562 166.45625 467.04688 167.22188Q466.34375 167.9875 465.0625 167.9875Q463.9375 167.9875 463.21875 167.3625Q462.5 166.72188 462.40625 165.6125L463.42188 165.6125Q463.53125 166.34688 463.95312 166.72188Q464.375 167.09688 465.0625 167.09688Q465.8125 167.09688 466.25 166.58125Q466.6875 166.06563 466.6875 165.15938Q466.6875 164.3 466.21875 163.78438Q465.75 163.26875 464.96875 163.26875Q464.26562 163.26875 463.85938 163.56563L463.57812 163.8L462.70312 163.58125Z" fill-rule="nonzero"/><path stroke="#ea4335" stroke-width="3.0" stroke-linejoin="round" stroke-linecap="round" d="M257.70312 152.49663L258.14062 148.24663L262.51562 148.24663L262.51562 149.24663L259.0625 149.24663L258.79688 151.57475Q259.4375 151.19975 260.23438 151.19975Q261.39062 151.19975 262.07812 151.981Q262.76562 152.74663 262.76562 154.05913Q262.76562 155.37163 262.04688 156.13725Q261.34375 156.90288 260.0625 156.90288Q258.9375 156.90288 258.21875 156.27788Q257.5 155.63725 257.40625 154.52788L258.42188 154.52788Q258.53125 155.26225 258.95312 155.63725Q259.375 156.01225 260.0625 156.01225Q260.8125 156.01225 261.25 155.49663Q261.6875 154.981 261.6875 154.07475Q261.6875 153.21538 261.21875 152.69975Q260.75 152.18413 259.96875 152.18413Q259.26562 152.18413 258.85938 152.481L258.57812 152.71538L257.70312 152.49663ZM269.5625 153.13725Q269.5625 155.0435 268.90625 155.981Q268.26562 156.90288 266.875 156.90288Q265.51562 156.90288 264.85938 155.99663Q264.20312 155.09038 264.17188 153.27788L264.17188 151.84038Q264.17188 149.94975 264.8125 149.0435Q265.46875 148.12163 266.85938 148.12163Q268.23438 148.12163 268.89062 149.01225Q269.54688 149.88725 269.5625 151.731L269.5625 153.13725ZM268.46875 151.65288Q268.46875 150.27788 268.07812 149.65288Q267.70312 149.01225 266.85938 149.01225Q266.03125 149.01225 265.64062 149.65288Q265.26562 150.27788 265.26562 151.57475L265.26562 153.30913Q265.26562 154.68413 265.65625 155.356Q266.0625 156.01225 266.875 156.01225Q267.67188 156.01225 268.0625 155.38725Q268.45312 154.76225 268.46875 153.43413L268.46875 151.65288ZM276.5625 153.13725Q276.5625 155.0435 275.90625 155.981Q275.26562 156.90288 273.875 156.90288Q272.51562 156.90288 271.85938 155.99663Q271.20312 155.09038 271.17188 153.27788L271.17188 151.84038Q271.17188 149.94975 271.8125 149.0435Q272.46875 148.12163 273.85938 148.12163Q275.23438 148.12163 275.89062 149.01225Q276.54688 149.88725 276.5625 151.731L276.5625 153.13725ZM275.46875 151.65288Q275.46875 150.27788 275.07812 149.65288Q274.70312 149.01225 273.85938 149.01225Q273.03125 149.01225 272.64062 149.65288Q272.26562 150.27788 272.26562 151.57475L272.26562 153.30913Q272.26562 154.68413 272.65625 155.356Q273.0625 156.01225 273.875 156.01225Q274.67188 156.01225 275.0625 155.38725Q275.45312 154.76225 275.46875 153.43413L275.46875 151.65288ZM278.28125 158.481L277.67188 158.05913Q278.21875 157.2935 278.25 156.46538L278.25 155.49663L279.3125 155.49663L279.3125 156.34038Q279.3125 156.93413 279.01562 157.52788Q278.71875 158.12163 278.28125 158.481ZM285.5625 153.13725Q285.5625 155.0435 284.90625 155.981Q284.26562 156.90288 282.875 156.90288Q281.51562 156.90288 280.85938 155.99663Q280.20312 155.09038 280.17188 153.27788L280.17188 151.84038Q280.17188 149.94975 280.8125 149.0435Q281.46875 148.12163 282.85938 148.12163Q284.23438 148.12163 284.89062 149.01225Q285.54688 149.88725 285.5625 151.731L285.5625 153.13725ZM284.46875 151.65288Q284.46875 150.27788 284.07812 149.65288Q283.70312 149.01225 282.85938 149.01225Q282.03125 149.01225 281.64062 149.65288Q281.26562 150.27788 281.26562 151.57475L281.26562 153.30913Q281.26562 154.68413 281.65625 155.356Q282.0625 156.01225 282.875 156.01225Q283.67188 156.01225 284.0625 155.38725Q284.45312 154.76225 284.46875 153.43413L284.46875 151.65288ZM287.70312 152.49663L288.14062 148.24663L292.51562 148.24663L292.51562 149.24663L289.0625 149.24663L288.79688 151.57475Q289.4375 151.19975 290.23438 151.19975Q291.39062 151.19975 292.07812 151.981Q292.76562 152.74663 292.76562 154.05913Q292.76562 155.37163 292.04688 156.13725Q291.34375 156.90288 290.0625 156.90288Q288.9375 156.90288 288.21875 156.27788Q287.5 155.63725 287.40625 154.52788L288.42188 154.52788Q288.53125 155.26225 288.95312 155.63725Q289.375 156.01225 290.0625 156.01225Q290.8125 156.01225 291.25 155.49663Q291.6875 154.981 291.6875 154.07475Q291.6875 153.21538 291.21875 152.69975Q290.75 152.18413 289.96875 152.18413Q289.26562 152.18413 288.85938 152.481L288.57812 152.71538L287.70312 152.49663Z" fill-rule="nonzero"/><path fill="#ffffff" d="M257.70312 152.49663L258.14062 148.24663L262.51562 148.24663L262.51562 149.24663L259.0625 149.24663L258.79688 151.57475Q259.4375 151.19975 260.23438 151.19975Q261.39062 151.19975 262.07812 151.981Q262.76562 152.74663 262.76562 154.05913Q262.76562 155.37163 262.04688 156.13725Q261.34375 156.90288 260.0625 156.90288Q258.9375 156.90288 258.21875 156.27788Q257.5 155.63725 257.40625 154.52788L258.42188 154.52788Q258.53125 155.26225 258.95312 155.63725Q259.375 156.01225 260.0625 156.01225Q260.8125 156.01225 261.25 155.49663Q261.6875 154.981 261.6875 154.07475Q261.6875 153.21538 261.21875 152.69975Q260.75 152.18413 259.96875 152.18413Q259.26562 152.18413 258.85938 152.481L258.57812 152.71538L257.70312 152.49663ZM269.5625 153.13725Q269.5625 155.0435 268.90625 155.981Q268.26562 156.90288 266.875 156.90288Q265.51562 156.90288 264.85938 155.99663Q264.20312 155.09038 264.17188 153.27788L264.17188 151.84038Q264.17188 149.94975 264.8125 149.0435Q265.46875 148.12163 266.85938 148.12163Q268.23438 148.12163 268.89062 149.01225Q269.54688 149.88725 269.5625 151.731L269.5625 153.13725ZM268.46875 151.65288Q268.46875 150.27788 268.07812 149.65288Q267.70312 149.01225 266.85938 149.01225Q266.03125 149.01225 265.64062 149.65288Q265.26562 150.27788 265.26562 151.57475L265.26562 153.30913Q265.26562 154.68413 265.65625 155.356Q266.0625 156.01225 266.875 156.01225Q267.67188 156.01225 268.0625 155.38725Q268.45312 154.76225 268.46875 153.43413L268.46875 151.65288ZM276.5625 153.13725Q276.5625 155.0435 275.90625 155.981Q275.26562 156.90288 273.875 156.90288Q272.51562 156.90288 271.85938 155.99663Q271.20312 155.09038 271.17188 153.27788L271.17188 151.84038Q271.17188 149.94975 271.8125 149.0435Q272.46875 148.12163 273.85938 148.12163Q275.23438 148.12163 275.89062 149.01225Q276.54688 149.88725 276.5625 151.731L276.5625 153.13725ZM275.46875 151.65288Q275.46875 150.27788 275.07812 149.65288Q274.70312 149.01225 273.85938 149.01225Q273.03125 149.01225 272.64062 149.65288Q272.26562 150.27788 272.26562 151.57475L272.26562 153.30913Q272.26562 154.68413 272.65625 155.356Q273.0625 156.01225 273.875 156.01225Q274.67188 156.01225 275.0625 155.38725Q275.45312 154.76225 275.46875 153.43413L275.46875 151.65288ZM278.28125 158.481L277.67188 158.05913Q278.21875 157.2935 278.25 156.46538L278.25 155.49663L279.3125 155.49663L279.3125 156.34038Q279.3125 156.93413 279.01562 157.52788Q278.71875 158.12163 278.28125 158.481ZM285.5625 153.13725Q285.5625 155.0435 284.90625 155.981Q284.26562 156.90288 282.875 156.90288Q281.51562 156.90288 280.85938 155.99663Q280.20312 155.09038 280.17188 153.27788L280.17188 151.84038Q280.17188 149.94975 280.8125 149.0435Q281.46875 148.12163 282.85938 148.12163Q284.23438 148.12163 284.89062 149.01225Q285.54688 149.88725 285.5625 151.731L285.5625 153.13725ZM284.46875 151.65288Q284.46875 150.27788 284.07812 149.65288Q283.70312 149.01225 282.85938 149.01225Q282.03125 149.01225 281.64062 149.65288Q281.26562 150.27788 281.26562 151.57475L281.26562 153.30913Q281.26562 154.68413 281.65625 155.356Q282.0625 156.01225 282.875 156.01225Q283.67188 156.01225 284.0625 155.38725Q284.45312 154.76225 284.46875 153.43413L284.46875 151.65288ZM287.70312 152.49663L288.14062 148.24663L292.51562 148.24663L292.51562 149.24663L289.0625 149.24663L288.79688 151.57475Q289.4375 151.19975 290.23438 151.19975Q291.39062 151.19975 292.07812 151.981Q292.76562 152.74663 292.76562 154.05913Q292.76562 155.37163 292.04688 156.13725Q291.34375 156.90288 290.0625 156.90288Q288.9375 156.90288 288.21875 156.27788Q287.5 155.63725 287.40625 154.52788L288.42188 154.52788Q288.53125 155.26225 288.95312 155.63725Q289.375 156.01225 290.0625 156.01225Q290.8125 156.01225 291.25 155.49663Q291.6875 154.981 291.6875 154.07475Q291.6875 153.21538 291.21875 152.69975Q290.75 152.18413 289.96875 152.18413Q289.26562 152.18413 288.85938 152.481L288.57812 152.71538L287.70312 152.49663Z" fill-rule="nonzero"/><path stroke="#ea4335" stroke-width="3.0" stroke-linejoin="round" stroke-linecap="round" d="M540.78125 162.34813L541.96875 162.34813L541.96875 163.22313L540.78125 163.22313L540.78125 165.2075L539.7031 165.2075L539.7031 163.22313L535.8125 163.22313L535.8125 162.5825L539.625 156.67625L540.78125 156.67625L540.78125 162.34813ZM537.0469 162.34813L539.7031 162.34813L539.7031 158.16063L539.5625 158.395L537.0469 162.34813ZM548.3906 158.895Q548.3906 159.53563 548.0469 160.03563Q547.7031 160.53563 547.1406 160.81688Q547.7969 161.09813 548.1875 161.66063Q548.5781 162.2075 548.5781 162.91063Q548.5781 164.00438 547.8281 164.67625Q547.09375 165.3325 545.875 165.3325Q544.6406 165.3325 543.8906 164.67625Q543.15625 164.00438 543.15625 162.91063Q543.15625 162.2075 543.53125 161.66063Q543.90625 161.09813 544.5781 160.81688Q544.0156 160.53563 543.6875 160.03563Q543.3594 159.53563 543.3594 158.895Q543.3594 157.81688 544.0469 157.19188Q544.7344 156.55125 545.875 156.55125Q547.0 156.55125 547.6875 157.19188Q548.3906 157.81688 548.3906 158.895ZM547.5 162.87938Q547.5 162.16063 547.0469 161.72313Q546.59375 161.27 545.8594 161.27Q545.125 161.27 544.6719 161.72313Q544.2344 162.16063 544.2344 162.895Q544.2344 163.61375 544.6719 164.03563Q545.1094 164.44188 545.875 164.44188Q546.625 164.44188 547.0625 164.02Q547.5 163.59813 547.5 162.87938ZM545.875 157.44188Q545.2344 157.44188 544.8281 157.84813Q544.4375 158.23875 544.4375 158.92625Q544.4375 159.56688 544.8281 159.97313Q545.21875 160.37938 545.8594 160.37938Q546.5156 160.37938 546.90625 159.97313Q547.2969 159.56688 547.2969 158.92625Q547.2969 158.27 546.8906 157.86375Q546.4844 157.44188 545.875 157.44188ZM553.7656 165.2075L552.6875 165.2075L552.6875 157.98875L550.5 158.78563L550.5 157.80125L553.6094 156.62938L553.7656 156.62938L553.7656 165.2075Z" fill-rule="nonzero"/><path fill="#ffffff" d="M540.78125 162.34813L541.96875 162.34813L541.96875 163.22313L540.78125 163.22313L540.78125 165.2075L539.7031 165.2075L539.7031 163.22313L535.8125 163.22313L535.8125 162.5825L539.625 156.67625L540.78125 156.67625L540.78125 162.34813ZM537.0469 162.34813L539.7031 162.34813L539.7031 158.16063L539.5625 158.395L537.0469 162.34813ZM548.3906 158.895Q548.3906 159.53563 548.0469 160.03563Q547.7031 160.53563 547.1406 160.81688Q547.7969 161.09813 548.1875 161.66063Q548.5781 162.2075 548.5781 162.91063Q548.5781 164.00438 547.8281 164.67625Q547.09375 165.3325 545.875 165.3325Q544.6406 165.3325 543.8906 164.67625Q543.15625 164.00438 543.15625 162.91063Q543.15625 162.2075 543.53125 161.66063Q543.90625 161.09813 544.5781 160.81688Q544.0156 160.53563 543.6875 160.03563Q543.3594 159.53563 543.3594 158.895Q543.3594 157.81688 544.0469 157.19188Q544.7344 156.55125 545.875 156.55125Q547.0 156.55125 547.6875 157.19188Q548.3906 157.81688 548.3906 158.895ZM547.5 162.87938Q547.5 162.16063 547.0469 161.72313Q546.59375 161.27 545.8594 161.27Q545.125 161.27 544.6719 161.72313Q544.2344 162.16063 544.2344 162.895Q544.2344 163.61375 544.6719 164.03563Q545.1094 164.44188 545.875 164.44188Q546.625 164.44188 547.0625 164.02Q547.5 163.59813 547.5 162.87938ZM545.875 157.44188Q545.2344 157.44188 544.8281 157.84813Q544.4375 158.23875 544.4375 158.92625Q544.4375 159.56688 544.8281 159.97313Q545.21875 160.37938 545.8594 160.37938Q546.5156 160.37938 546.90625 159.97313Q547.2969 159.56688 547.2969 158.92625Q547.2969 158.27 546.8906 157.86375Q546.4844 157.44188 545.875 157.44188ZM553.7656 165.2075L552.6875 165.2075L552.6875 157.98875L550.5 158.78563L550.5 157.80125L553.6094 156.62938L553.7656 156.62938L553.7656 165.2075Z" fill-rule="nonzero"/><path fill="#000000" d="M281.95312 410.25L281.95312 401.65625L288.15625 401.65625L288.15625 402.67188L283.09375 402.67188L283.09375 405.29688L287.84375 405.29688L287.84375 406.3125L283.09375 406.3125L283.09375 409.23438L288.35938 409.23438L288.35938 410.25L281.95312 410.25ZM289.79688 410.25L289.79688 404.03125L290.73438 404.03125L290.73438 404.90625Q291.42188 403.89062 292.71875 403.89062Q293.28125 403.89062 293.75 404.09375Q294.23438 404.29688 294.46875 404.625Q294.70312 404.95312 294.79688 405.39062Q294.84375 405.6875 294.84375 406.42188L294.84375 410.25L293.79688 410.25L293.79688 406.46875Q293.79688 405.8125 293.67188 405.5Q293.54688 405.1875 293.23438 405.0Q292.92188 404.79688 292.5 404.79688Q291.82812 404.79688 291.32812 405.23438Q290.84375 405.65625 290.84375 406.84375L290.84375 410.25L289.79688 410.25ZM296.76562 410.25L296.76562 401.65625L297.82812 401.65625L297.82812 410.25L296.76562 410.25ZM303.85938 409.48438Q303.26562 409.98438 302.71875 410.1875Q302.1875 410.39062 301.5625 410.39062Q300.53125 410.39062 299.98438 409.89062Q299.4375 409.39062 299.4375 408.60938Q299.4375 408.15625 299.64062 407.78125Q299.84375 407.39062 300.1875 407.17188Q300.53125 406.9375 300.95312 406.82812Q301.25 406.73438 301.89062 406.65625Q303.15625 406.51562 303.76562 406.29688Q303.76562 406.07812 303.76562 406.03125Q303.76562 405.375 303.46875 405.10938Q303.0625 404.76562 302.26562 404.76562Q301.53125 404.76562 301.17188 405.03125Q300.8125 405.28125 300.64062 405.9375L299.60938 405.79688Q299.75 405.14062 300.07812 404.73438Q300.40625 404.32812 301.01562 404.10938Q301.625 403.89062 302.42188 403.89062Q303.21875 403.89062 303.71875 404.07812Q304.21875 404.26562 304.45312 404.54688Q304.6875 404.82812 304.78125 405.26562Q304.82812 405.53125 304.82812 406.23438L304.82812 407.64062Q304.82812 409.10938 304.89062 409.5Q304.96875 409.89062 305.17188 410.25L304.0625 410.25Q303.90625 409.92188 303.85938 409.48438ZM303.76562 407.125Q303.1875 407.35938 302.04688 407.53125Q301.39062 407.625 301.125 407.75Q300.85938 407.85938 300.70312 408.07812Q300.5625 408.29688 300.5625 408.57812Q300.5625 409.0 300.875 409.28125Q301.20312 409.5625 301.8125 409.5625Q302.42188 409.5625 302.89062 409.29688Q303.375 409.03125 303.59375 408.5625Q303.76562 408.20312 303.76562 407.51562L303.76562 407.125ZM310.85938 407.96875L311.89062 408.10938Q311.71875 409.17188 311.01562 409.78125Q310.3125 410.39062 309.29688 410.39062Q308.01562 410.39062 307.23438 409.5625Q306.46875 408.71875 306.46875 407.15625Q306.46875 406.15625 306.79688 405.40625Q307.14062 404.64062 307.8125 404.26562Q308.5 403.89062 309.3125 403.89062Q310.3125 403.89062 310.95312 404.40625Q311.60938 404.90625 311.79688 405.85938L310.76562 406.01562Q310.625 405.39062 310.25 405.07812Q309.875 404.75 309.34375 404.75Q308.54688 404.75 308.04688 405.32812Q307.54688 405.89062 307.54688 407.125Q307.54688 408.39062 308.03125 408.95312Q308.51562 409.51562 309.28125 409.51562Q309.90625 409.51562 310.3125 409.14062Q310.73438 408.76562 310.85938 407.96875ZM317.04688 408.25L318.14062 408.375Q317.89062 409.32812 317.1875 409.85938Q316.48438 410.39062 315.40625 410.39062Q314.04688 410.39062 313.23438 409.54688Q312.4375 408.70312 312.4375 407.1875Q312.4375 405.625 313.25 404.76562Q314.0625 403.89062 315.34375 403.89062Q316.59375 403.89062 317.375 404.73438Q318.17188 405.57812 318.17188 407.125Q318.17188 407.21875 318.17188 407.40625L313.53125 407.40625Q313.59375 408.4375 314.10938 408.98438Q314.625 409.51562 315.40625 409.51562Q315.98438 409.51562 316.39062 409.21875Q316.8125 408.90625 317.04688 408.25ZM313.59375 406.54688L317.0625 406.54688Q317.0 405.75 316.67188 405.35938Q316.15625 404.75 315.35938 404.75Q314.625 404.75 314.125 405.23438Q313.64062 405.71875 313.59375 406.54688ZM319.375 408.39062L320.40625 408.23438Q320.5 408.85938 320.89062 409.1875Q321.29688 409.51562 322.03125 409.51562Q322.75 409.51562 323.09375 409.23438Q323.45312 408.9375 323.45312 408.53125Q323.45312 408.17188 323.14062 407.96875Q322.92188 407.82812 322.0625 407.60938Q320.90625 407.3125 320.45312 407.10938Q320.01562 406.89062 319.78125 406.51562Q319.54688 406.14062 319.54688 405.67188Q319.54688 405.26562 319.73438 404.90625Q319.92188 404.54688 320.25 404.3125Q320.5 404.14062 320.92188 404.01562Q321.34375 403.89062 321.84375 403.89062Q322.5625 403.89062 323.10938 404.10938Q323.67188 404.3125 323.9375 404.67188Q324.20312 405.03125 324.29688 405.625L323.26562 405.76562Q323.20312 405.29688 322.85938 405.03125Q322.53125 404.75 321.90625 404.75Q321.1875 404.75 320.875 405.0Q320.5625 405.23438 320.5625 405.5625Q320.5625 405.76562 320.6875 405.92188Q320.82812 406.09375 321.09375 406.20312Q321.25 406.26562 322.03125 406.46875Q323.15625 406.78125 323.59375 406.96875Q324.03125 407.15625 324.28125 407.51562Q324.53125 407.875 324.53125 408.42188Q324.53125 408.95312 324.21875 409.42188Q323.92188 409.875 323.34375 410.14062Q322.76562 410.39062 322.03125 410.39062Q320.8125 410.39062 320.17188 409.89062Q319.54688 409.375 319.375 408.39062ZM329.5 408.0L330.60938 407.90625Q330.73438 408.71875 331.17188 409.125Q331.625 409.53125 332.26562 409.53125Q333.01562 409.53125 333.54688 408.95312Q334.07812 408.375 334.07812 407.4375Q334.07812 406.53125 333.5625 406.01562Q333.0625 405.48438 332.23438 405.48438Q331.73438 405.48438 331.3125 405.71875Q330.90625 405.95312 330.67188 406.3125L329.6875 406.1875L330.51562 401.78125L334.79688 401.78125L334.79688 402.78125L331.35938 402.78125L330.90625 405.09375Q331.67188 404.54688 332.51562 404.54688Q333.64062 404.54688 334.40625 405.32812Q335.1875 406.10938 335.1875 407.34375Q335.1875 408.5 334.51562 409.35938Q333.6875 410.39062 332.26562 410.39062Q331.09375 410.39062 330.34375 409.73438Q329.60938 409.07812 329.5 408.0ZM336.5 406.01562Q336.5 404.48438 336.8125 403.5625Q337.125 402.625 337.73438 402.125Q338.35938 401.625 339.29688 401.625Q339.98438 401.625 340.5 401.90625Q341.03125 402.1875 341.375 402.71875Q341.71875 403.23438 341.90625 403.98438Q342.09375 404.73438 342.09375 406.01562Q342.09375 407.53125 341.78125 408.45312Q341.48438 409.375 340.85938 409.89062Q340.25 410.39062 339.29688 410.39062Q338.0625 410.39062 337.34375 409.5Q336.5 408.4375 336.5 406.01562ZM337.57812 406.01562Q337.57812 408.125 338.07812 408.82812Q338.57812 409.53125 339.29688 409.53125Q340.03125 409.53125 340.51562 408.82812Q341.01562 408.125 341.01562 406.01562Q341.01562 403.89062 340.51562 403.20312Q340.03125 402.5 339.28125 402.5Q338.5625 402.5 338.125 403.10938Q337.57812 403.89062 337.57812 406.01562ZM343.5 406.01562Q343.5 404.48438 343.8125 403.5625Q344.125 402.625 344.73438 402.125Q345.35938 401.625 346.29688 401.625Q346.98438 401.625 347.5 401.90625Q348.03125 402.1875 348.375 402.71875Q348.71875 403.23438 348.90625 403.98438Q349.09375 404.73438 349.09375 406.01562Q349.09375 407.53125 348.78125 408.45312Q348.48438 409.375 347.85938 409.89062Q347.25 410.39062 346.29688 410.39062Q345.0625 410.39062 344.34375 409.5Q343.5 408.4375 343.5 406.01562ZM344.57812 406.01562Q344.57812 408.125 345.07812 408.82812Q345.57812 409.53125 346.29688 409.53125Q347.03125 409.53125 347.51562 408.82812Q348.01562 408.125 348.01562 406.01562Q348.01562 403.89062 347.51562 403.20312Q347.03125 402.5 346.28125 402.5Q345.5625 402.5 345.125 403.10938Q344.57812 403.89062 344.57812 406.01562ZM353.89062 410.25L353.89062 401.65625L355.60938 401.65625L357.64062 407.73438Q357.92188 408.59375 358.04688 409.01562Q358.1875 408.54688 358.5 407.64062L360.5625 401.65625L362.09375 401.65625L362.09375 410.25L361.0 410.25L361.0 403.0625L358.5 410.25L357.46875 410.25L354.98438 402.9375L354.98438 410.25L353.89062 410.25ZM363.76562 410.25L362.78125 410.25L362.78125 401.65625L363.84375 401.65625L363.84375 404.71875Q364.51562 403.89062 365.54688 403.89062Q366.125 403.89062 366.625 404.125Q367.14062 404.34375 367.46875 404.76562Q367.8125 405.1875 368.0 405.78125Q368.1875 406.375 368.1875 407.04688Q368.1875 408.64062 367.39062 409.51562Q366.59375 410.39062 365.5 410.39062Q364.39062 410.39062 363.76562 409.46875L363.76562 410.25ZM363.75 407.09375Q363.75 408.20312 364.0625 408.70312Q364.5625 409.51562 365.40625 409.51562Q366.09375 409.51562 366.59375 408.92188Q367.10938 408.32812 367.10938 407.125Q367.10938 405.90625 366.625 405.32812Q366.14062 404.75 365.45312 404.75Q364.76562 404.75 364.25 405.35938Q363.75 405.95312 363.75 407.09375ZM369.79688 412.64062L369.79688 404.03125L370.75 404.03125L370.75 404.82812Q371.09375 404.35938 371.51562 404.125Q371.95312 403.89062 372.5625 403.89062Q373.35938 403.89062 373.96875 404.29688Q374.57812 404.70312 374.875 405.45312Q375.1875 406.20312 375.1875 407.09375Q375.1875 408.04688 374.84375 408.8125Q374.51562 409.57812 373.85938 409.98438Q373.20312 410.39062 372.48438 410.39062Q371.95312 410.39062 371.53125 410.17188Q371.10938 409.9375 370.84375 409.60938L370.84375 412.64062L369.79688 412.64062ZM370.75 407.17188Q370.75 408.375 371.23438 408.95312Q371.71875 409.51562 372.40625 409.51562Q373.10938 409.51562 373.60938 408.92188Q374.10938 408.32812 374.10938 407.07812Q374.10938 405.89062 373.625 405.3125Q373.14062 404.71875 372.45312 404.71875Q371.78125 404.71875 371.26562 405.34375Q370.75 405.96875 370.75 407.17188ZM376.375 408.39062L377.40625 408.23438Q377.5 408.85938 377.89062 409.1875Q378.29688 409.51562 379.03125 409.51562Q379.75 409.51562 380.09375 409.23438Q380.45312 408.9375 380.45312 408.53125Q380.45312 408.17188 380.14062 407.96875Q379.92188 407.82812 379.0625 407.60938Q377.90625 407.3125 377.45312 407.10938Q377.01562 406.89062 376.78125 406.51562Q376.54688 406.14062 376.54688 405.67188Q376.54688 405.26562 376.73438 404.90625Q376.92188 404.54688 377.25 404.3125Q377.5 404.14062 377.92188 404.01562Q378.34375 403.89062 378.84375 403.89062Q379.5625 403.89062 380.10938 404.10938Q380.67188 404.3125 380.9375 404.67188Q381.20312 405.03125 381.29688 405.625L380.26562 405.76562Q380.20312 405.29688 379.85938 405.03125Q379.53125 404.75 378.90625 404.75Q378.1875 404.75 377.875 405.0Q377.5625 405.23438 377.5625 405.5625Q377.5625 405.76562 377.6875 405.92188Q377.82812 406.09375 378.09375 406.20312Q378.25 406.26562 379.03125 406.46875Q380.15625 406.78125 380.59375 406.96875Q381.03125 407.15625 381.28125 407.51562Q381.53125 407.875 381.53125 408.42188Q381.53125 408.95312 381.21875 409.42188Q380.92188 409.875 380.34375 410.14062Q379.76562 410.39062 379.03125 410.39062Q377.8125 410.39062 377.17188 409.89062Q376.54688 409.375 376.375 408.39062ZM385.96875 407.5625L385.96875 406.71875L392.65625 406.71875L392.65625 407.5625L385.96875 407.5625ZM396.65625 408.26562L397.67188 408.17188Q397.79688 408.89062 398.15625 409.21875Q398.53125 409.53125 399.09375 409.53125Q399.57812 409.53125 399.9375 409.3125Q400.3125 409.07812 400.54688 408.71875Q400.78125 408.34375 400.9375 407.71875Q401.09375 407.07812 401.09375 406.42188Q401.09375 406.34375 401.09375 406.20312Q400.78125 406.70312 400.23438 407.03125Q399.6875 407.34375 399.04688 407.34375Q397.96875 407.34375 397.23438 406.57812Q396.5 405.79688 396.5 404.53125Q396.5 403.21875 397.26562 402.42188Q398.04688 401.625 399.20312 401.625Q400.03125 401.625 400.71875 402.07812Q401.42188 402.53125 401.78125 403.375Q402.14062 404.20312 402.14062 405.78125Q402.14062 407.42188 401.78125 408.40625Q401.4375 409.375 400.71875 409.89062Q400.01562 410.39062 399.07812 410.39062Q398.0625 410.39062 397.42188 409.84375Q396.78125 409.28125 396.65625 408.26562ZM400.96875 404.46875Q400.96875 403.5625 400.48438 403.03125Q400.01562 402.5 399.32812 402.5Q398.625 402.5 398.09375 403.07812Q397.57812 403.64062 397.57812 404.5625Q397.57812 405.375 398.07812 405.89062Q398.57812 406.40625 399.29688 406.40625Q400.03125 406.40625 400.5 405.89062Q400.96875 405.375 400.96875 404.46875ZM403.5 406.01562Q403.5 404.48438 403.8125 403.5625Q404.125 402.625 404.73438 402.125Q405.35938 401.625 406.29688 401.625Q406.98438 401.625 407.5 401.90625Q408.03125 402.1875 408.375 402.71875Q408.71875 403.23438 408.90625 403.98438Q409.09375 404.73438 409.09375 406.01562Q409.09375 407.53125 408.78125 408.45312Q408.48438 409.375 407.85938 409.89062Q407.25 410.39062 406.29688 410.39062Q405.0625 410.39062 404.34375 409.5Q403.5 408.4375 403.5 406.01562ZM404.57812 406.01562Q404.57812 408.125 405.07812 408.82812Q405.57812 409.53125 406.29688 409.53125Q407.03125 409.53125 407.51562 408.82812Q408.01562 408.125 408.01562 406.01562Q408.01562 403.89062 407.51562 403.20312Q407.03125 402.5 406.28125 402.5Q405.5625 402.5 405.125 403.10938Q404.57812 403.89062 404.57812 406.01562ZM410.5 406.01562Q410.5 404.48438 410.8125 403.5625Q411.125 402.625 411.73438 402.125Q412.35938 401.625 413.29688 401.625Q413.98438 401.625 414.5 401.90625Q415.03125 402.1875 415.375 402.71875Q415.71875 403.23438 415.90625 403.98438Q416.09375 404.73438 416.09375 406.01562Q416.09375 407.53125 415.78125 408.45312Q415.48438 409.375 414.85938 409.89062Q414.25 410.39062 413.29688 410.39062Q412.0625 410.39062 411.34375 409.5Q410.5 408.4375 410.5 406.01562ZM411.57812 406.01562Q411.57812 408.125 412.07812 408.82812Q412.57812 409.53125 413.29688 409.53125Q414.03125 409.53125 414.51562 408.82812Q415.01562 408.125 415.01562 406.01562Q415.01562 403.89062 414.51562 403.20312Q414.03125 402.5 413.28125 402.5Q412.5625 402.5 412.125 403.10938Q411.57812 403.89062 411.57812 406.01562ZM417.5 406.01562Q417.5 404.48438 417.8125 403.5625Q418.125 402.625 418.73438 402.125Q419.35938 401.625 420.29688 401.625Q420.98438 401.625 421.5 401.90625Q422.03125 402.1875 422.375 402.71875Q422.71875 403.23438 422.90625 403.98438Q423.09375 404.73438 423.09375 406.01562Q423.09375 407.53125 422.78125 408.45312Q422.48438 409.375 421.85938 409.89062Q421.25 410.39062 420.29688 410.39062Q419.0625 410.39062 418.34375 409.5Q417.5 408.4375 417.5 406.01562ZM418.57812 406.01562Q418.57812 408.125 419.07812 408.82812Q419.57812 409.53125 420.29688 409.53125Q421.03125 409.53125 421.51562 408.82812Q422.01562 408.125 422.01562 406.01562Q422.01562 403.89062 421.51562 403.20312Q421.03125 402.5 420.28125 402.5Q419.5625 402.5 419.125 403.10938Q418.57812 403.89062 418.57812 406.01562ZM427.89062 410.25L427.89062 401.65625L429.60938 401.65625L431.64062 407.73438Q431.92188 408.59375 432.04688 409.01562Q432.1875 408.54688 432.5 407.64062L434.5625 401.65625L436.09375 401.65625L436.09375 410.25L435.0 410.25L435.0 403.0625L432.5 410.25L431.46875 410.25L428.98438 402.9375L428.98438 410.25L427.89062 410.25ZM439.10938 410.25L439.10938 402.67188L436.28125 402.67188L436.28125 401.65625L443.09375 401.65625L443.09375 402.67188L440.25 402.67188L440.25 410.25L439.10938 410.25ZM449.5625 401.65625L450.70312 401.65625L450.70312 406.625Q450.70312 407.92188 450.40625 408.6875Q450.10938 409.4375 449.34375 409.92188Q448.57812 410.39062 447.34375 410.39062Q446.14062 410.39062 445.35938 409.98438Q444.59375 409.5625 444.26562 408.78125Q443.9375 407.98438 443.9375 406.625L443.9375 401.65625L445.07812 401.65625L445.07812 406.60938Q445.07812 407.73438 445.28125 408.26562Q445.5 408.79688 446.0 409.09375Q446.51562 409.375 447.25 409.375Q448.5 409.375 449.03125 408.8125Q449.5625 408.23438 449.5625 406.60938L449.5625 401.65625Z" fill-rule="nonzero"/><path fill="#000000" d="M36.25 361.01562Q36.25 359.48438 36.5625 358.5625Q36.875 357.625 37.484375 357.125Q38.109375 356.625 39.046875 356.625Q39.734375 356.625 40.25 356.90625Q40.78125 357.1875 41.125 357.71875Q41.46875 358.23438 41.65625 358.98438Q41.84375 359.73438 41.84375 361.01562Q41.84375 362.53125 41.53125 363.45312Q41.234375 364.375 40.609375 364.89062Q40.0 365.39062 39.046875 365.39062Q37.8125 365.39062 37.09375 364.5Q36.25 363.4375 36.25 361.01562ZM37.328125 361.01562Q37.328125 363.125 37.828125 363.82812Q38.328125 364.53125 39.046875 364.53125Q39.78125 364.53125 40.265625 363.82812Q40.765625 363.125 40.765625 361.01562Q40.765625 358.89062 40.265625 358.20312Q39.78125 357.5 39.03125 357.5Q38.3125 357.5 37.875 358.10938Q37.328125 358.89062 37.328125 361.01562Z" fill-rule="nonzero"/><path fill="#000000" d="M27.796875 275.73438L27.796875 276.75L22.109375 276.75Q22.109375 276.375 22.234375 276.01562Q22.453125 275.4375 22.921875 274.875Q23.40625 274.3125 24.3125 273.57812Q25.71875 272.42188 26.203125 271.75Q26.703125 271.07812 26.703125 270.48438Q26.703125 269.85938 26.25 269.4375Q25.796875 269.0 25.078125 269.0Q24.3125 269.0 23.859375 269.45312Q23.40625 269.90625 23.390625 270.71875L22.3125 270.60938Q22.421875 269.39062 23.140625 268.76562Q23.875 268.125 25.109375 268.125Q26.34375 268.125 27.0625 268.8125Q27.78125 269.5 27.78125 270.51562Q27.78125 271.03125 27.5625 271.53125Q27.359375 272.01562 26.859375 272.57812Q26.375 273.125 25.25 274.07812Q24.296875 274.875 24.015625 275.17188Q23.75 275.45312 23.578125 275.73438L27.796875 275.73438ZM29.25 272.51562Q29.25 270.98438 29.5625 270.0625Q29.875 269.125 30.484375 268.625Q31.109375 268.125 32.046875 268.125Q32.734375 268.125 33.25 268.40625Q33.78125 268.6875 34.125 269.21875Q34.46875 269.73438 34.65625 270.48438Q34.84375 271.23438 34.84375 272.51562Q34.84375 274.03125 34.53125 274.95312Q34.234375 275.875 33.609375 276.39062Q33.0 276.89062 32.046875 276.89062Q30.8125 276.89062 30.09375 276.0Q29.25 274.9375 29.25 272.51562ZM30.328125 272.51562Q30.328125 274.625 30.828125 275.32812Q31.328125 276.03125 32.046875 276.03125Q32.78125 276.03125 33.265625 275.32812Q33.765625 274.625 33.765625 272.51562Q33.765625 270.39062 33.265625 269.70312Q32.78125 269.0 32.03125 269.0Q31.3125 269.0 30.875 269.60938Q30.328125 270.39062 30.328125 272.51562ZM36.25 272.51562Q36.25 270.98438 36.5625 270.0625Q36.875 269.125 37.484375 268.625Q38.109375 268.125 39.046875 268.125Q39.734375 268.125 40.25 268.40625Q40.78125 268.6875 41.125 269.21875Q41.46875 269.73438 41.65625 270.48438Q41.84375 271.23438 41.84375 272.51562Q41.84375 274.03125 41.53125 274.95312Q41.234375 275.875 40.609375 276.39062Q40.0 276.89062 39.046875 276.89062Q37.8125 276.89062 37.09375 276.0Q36.25 274.9375 36.25 272.51562ZM37.328125 272.51562Q37.328125 274.625 37.828125 275.32812Q38.328125 276.03125 39.046875 276.03125Q39.78125 276.03125 40.265625 275.32812Q40.765625 274.625 40.765625 272.51562Q40.765625 270.39062 40.265625 269.70312Q39.78125 269.0 39.03125 269.0Q38.3125 269.0 37.875 269.60938Q37.328125 270.39062 37.328125 272.51562Z" fill-rule="nonzero"/><path fill="#000000" d="M25.625 188.25L25.625 186.1875L21.90625 186.1875L21.90625 185.21875L25.828125 179.65625L26.6875 179.65625L26.6875 185.21875L27.84375 185.21875L27.84375 186.1875L26.6875 186.1875L26.6875 188.25L25.625 188.25ZM25.625 185.21875L25.625 181.35938L22.9375 185.21875L25.625 185.21875ZM29.25 184.01562Q29.25 182.48438 29.5625 181.5625Q29.875 180.625 30.484375 180.125Q31.109375 179.625 32.046875 179.625Q32.734375 179.625 33.25 179.90625Q33.78125 180.1875 34.125 180.71875Q34.46875 181.23438 34.65625 181.98438Q34.84375 182.73438 34.84375 184.01562Q34.84375 185.53125 34.53125 186.45312Q34.234375 187.375 33.609375 187.89062Q33.0 188.39062 32.046875 188.39062Q30.8125 188.39062 30.09375 187.5Q29.25 186.4375 29.25 184.01562ZM30.328125 184.01562Q30.328125 186.125 30.828125 186.82812Q31.328125 187.53125 32.046875 187.53125Q32.78125 187.53125 33.265625 186.82812Q33.765625 186.125 33.765625 184.01562Q33.765625 181.89062 33.265625 181.20312Q32.78125 180.5 32.03125 180.5Q31.3125 180.5 30.875 181.10938Q30.328125 181.89062 30.328125 184.01562ZM36.25 184.01562Q36.25 182.48438 36.5625 181.5625Q36.875 180.625 37.484375 180.125Q38.109375 179.625 39.046875 179.625Q39.734375 179.625 40.25 179.90625Q40.78125 180.1875 41.125 180.71875Q41.46875 181.23438 41.65625 181.98438Q41.84375 182.73438 41.84375 184.01562Q41.84375 185.53125 41.53125 186.45312Q41.234375 187.375 40.609375 187.89062Q40.0 188.39062 39.046875 188.39062Q37.8125 188.39062 37.09375 187.5Q36.25 186.4375 36.25 184.01562ZM37.328125 184.01562Q37.328125 186.125 37.828125 186.82812Q38.328125 187.53125 39.046875 187.53125Q39.78125 187.53125 40.265625 186.82812Q40.765625 186.125 40.765625 184.01562Q40.765625 181.89062 40.265625 181.20312Q39.78125 180.5 39.03125 180.5Q38.3125 180.5 37.875 181.10938Q37.328125 181.89062 37.328125 184.01562Z" fill-rule="nonzero"/><path fill="#000000" d="M27.71875 93.265625L26.671875 93.34375Q26.53125 92.71875 26.28125 92.4375Q25.84375 91.984375 25.21875 91.984375Q24.71875 91.984375 24.328125 92.265625Q23.84375 92.640625 23.546875 93.34375Q23.265625 94.03125 23.25 95.3125Q23.625 94.734375 24.171875 94.453125Q24.734375 94.171875 25.34375 94.171875Q26.390625 94.171875 27.125 94.953125Q27.875 95.734375 27.875 96.953125Q27.875 97.765625 27.515625 98.46875Q27.171875 99.15625 26.5625 99.53125Q25.953125 99.890625 25.1875 99.890625Q23.859375 99.890625 23.03125 98.921875Q22.203125 97.953125 22.203125 95.734375Q22.203125 93.234375 23.125 92.109375Q23.921875 91.125 25.28125 91.125Q26.296875 91.125 26.9375 91.703125Q27.59375 92.265625 27.71875 93.265625ZM23.421875 96.96875Q23.421875 97.515625 23.640625 98.015625Q23.875 98.5 24.28125 98.765625Q24.703125 99.03125 25.171875 99.03125Q25.828125 99.03125 26.3125 98.5Q26.796875 97.953125 26.796875 97.03125Q26.796875 96.140625 26.3125 95.625Q25.84375 95.109375 25.125 95.109375Q24.40625 95.109375 23.90625 95.625Q23.421875 96.140625 23.421875 96.96875ZM29.25 95.515625Q29.25 93.984375 29.5625 93.0625Q29.875 92.125 30.484375 91.625Q31.109375 91.125 32.046875 91.125Q32.734375 91.125 33.25 91.40625Q33.78125 91.6875 34.125 92.21875Q34.46875 92.734375 34.65625 93.484375Q34.84375 94.234375 34.84375 95.515625Q34.84375 97.03125 34.53125 97.953125Q34.234375 98.875 33.609375 99.390625Q33.0 99.890625 32.046875 99.890625Q30.8125 99.890625 30.09375 99.0Q29.25 97.9375 29.25 95.515625ZM30.328125 95.515625Q30.328125 97.625 30.828125 98.328125Q31.328125 99.03125 32.046875 99.03125Q32.78125 99.03125 33.265625 98.328125Q33.765625 97.625 33.765625 95.515625Q33.765625 93.390625 33.265625 92.703125Q32.78125 92.0 32.03125 92.0Q31.3125 92.0 30.875 92.609375Q30.328125 93.390625 30.328125 95.515625ZM36.25 95.515625Q36.25 93.984375 36.5625 93.0625Q36.875 92.125 37.484375 91.625Q38.109375 91.125 39.046875 91.125Q39.734375 91.125 40.25 91.40625Q40.78125 91.6875 41.125 92.21875Q41.46875 92.734375 41.65625 93.484375Q41.84375 94.234375 41.84375 95.515625Q41.84375 97.03125 41.53125 97.953125Q41.234375 98.875 40.609375 99.390625Q40.0 99.890625 39.046875 99.890625Q37.8125 99.890625 37.09375 99.0Q36.25 97.9375 36.25 95.515625ZM37.328125 95.515625Q37.328125 97.625 37.828125 98.328125Q38.328125 99.03125 39.046875 99.03125Q39.78125 99.03125 40.265625 98.328125Q40.765625 97.625 40.765625 95.515625Q40.765625 93.390625 40.265625 92.703125Q39.78125 92.0 39.03125 92.0Q38.3125 92.0 37.875 92.609375Q37.328125 93.390625 37.328125 95.515625Z" fill-rule="nonzero"/><path fill="#000000" d="M219.22473 378.25L219.22473 369.65625L223.03723 369.65625Q224.19348 369.65625 224.78723 369.89062Q225.38098 370.125 225.74036 370.71875Q226.09973 371.29688 226.09973 372.0Q226.09973 372.92188 225.50598 373.54688Q224.91223 374.17188 223.67786 374.34375Q224.13098 374.5625 224.36536 374.76562Q224.86536 375.21875 225.30286 375.90625L226.80286 378.25L225.36536 378.25L224.24036 376.46875Q223.74036 375.6875 223.41223 375.28125Q223.09973 374.875 222.8341 374.71875Q222.5841 374.54688 222.31848 374.46875Q222.13098 374.4375 221.69348 374.4375L220.36536 374.4375L220.36536 378.25L219.22473 378.25ZM220.36536 373.45312L222.81848 373.45312Q223.5841 373.45312 224.0216 373.29688Q224.47473 373.125 224.69348 372.78125Q224.92786 372.42188 224.92786 372.0Q224.92786 371.39062 224.47473 371.0Q224.03723 370.60938 223.0841 370.60938L220.36536 370.60938L220.36536 373.45312ZM232.3341 376.25L233.42786 376.375Q233.17786 377.32812 232.47473 377.85938Q231.7716 378.39062 230.69348 378.39062Q229.3341 378.39062 228.5216 377.54688Q227.72473 376.70312 227.72473 375.1875Q227.72473 373.625 228.53723 372.76562Q229.34973 371.89062 230.63098 371.89062Q231.88098 371.89062 232.66223 372.73438Q233.4591 373.57812 233.4591 375.125Q233.4591 375.21875 233.4591 375.40625L228.81848 375.40625Q228.88098 376.4375 229.3966 376.98438Q229.91223 377.51562 230.69348 377.51562Q231.2716 377.51562 231.67786 377.21875Q232.09973 376.90625 232.3341 376.25ZM228.88098 374.54688L232.34973 374.54688Q232.28723 373.75 231.9591 373.35938Q231.44348 372.75 230.6466 372.75Q229.91223 372.75 229.41223 373.23438Q228.92786 373.71875 228.88098 374.54688ZM239.1466 377.48438Q238.55286 377.98438 238.00598 378.1875Q237.47473 378.39062 236.84973 378.39062Q235.81848 378.39062 235.2716 377.89062Q234.72473 377.39062 234.72473 376.60938Q234.72473 376.15625 234.92786 375.78125Q235.13098 375.39062 235.47473 375.17188Q235.81848 374.9375 236.24036 374.82812Q236.53723 374.73438 237.17786 374.65625Q238.44348 374.51562 239.05286 374.29688Q239.05286 374.07812 239.05286 374.03125Q239.05286 373.375 238.75598 373.10938Q238.34973 372.76562 237.55286 372.76562Q236.81848 372.76562 236.4591 373.03125Q236.09973 373.28125 235.92786 373.9375L234.8966 373.79688Q235.03723 373.14062 235.36536 372.73438Q235.69348 372.32812 236.30286 372.10938Q236.91223 371.89062 237.7091 371.89062Q238.50598 371.89062 239.00598 372.07812Q239.50598 372.26562 239.74036 372.54688Q239.97473 372.82812 240.06848 373.26562Q240.11536 373.53125 240.11536 374.23438L240.11536 375.64062Q240.11536 377.10938 240.17786 377.5Q240.25598 377.89062 240.4591 378.25L239.34973 378.25Q239.19348 377.92188 239.1466 377.48438ZM239.05286 375.125Q238.47473 375.35938 237.3341 375.53125Q236.67786 375.625 236.41223 375.75Q236.1466 375.85938 235.99036 376.07812Q235.84973 376.29688 235.84973 376.57812Q235.84973 377.0 236.16223 377.28125Q236.49036 377.5625 237.09973 377.5625Q237.7091 377.5625 238.17786 377.29688Q238.66223 377.03125 238.88098 376.5625Q239.05286 376.20312 239.05286 375.51562L239.05286 375.125ZM242.05286 378.25L242.05286 369.65625L243.11536 369.65625L243.11536 378.25L242.05286 378.25Z" fill-rule="nonzero"/><path fill="#000000" d="M488.08777 378.25L484.75964 369.65625L485.99402 369.65625L488.2284 375.90625Q488.49402 376.65625 488.68152 377.3125Q488.88464 376.60938 489.15027 375.90625L491.46277 369.65625L492.61902 369.65625L489.25964 378.25L488.08777 378.25ZM492.50964 370.875L492.50964 369.65625L493.57214 369.65625L493.57214 370.875L492.50964 370.875ZM492.50964 378.25L492.50964 372.03125L493.57214 372.03125L493.57214 378.25L492.50964 378.25ZM495.49402 378.25L495.49402 372.03125L496.44714 372.03125L496.44714 372.96875Q496.80652 372.3125 497.1034 372.10938Q497.4159 371.89062 497.7909 371.89062Q498.32214 371.89062 498.86902 372.21875L498.50964 373.20312Q498.11902 372.96875 497.74402 372.96875Q497.38464 372.96875 497.1034 373.1875Q496.83777 373.39062 496.7284 373.76562Q496.5409 374.32812 496.5409 374.98438L496.5409 378.25L495.49402 378.25ZM501.80652 377.3125L501.96277 378.23438Q501.50964 378.32812 501.1659 378.32812Q500.58777 378.32812 500.27527 378.15625Q499.96277 377.96875 499.82214 377.67188Q499.69714 377.375 499.69714 376.42188L499.69714 372.84375L498.93152 372.84375L498.93152 372.03125L499.69714 372.03125L499.69714 370.48438L500.74402 369.85938L500.74402 372.03125L501.80652 372.03125L501.80652 372.84375L500.74402 372.84375L500.74402 376.48438Q500.74402 376.9375 500.7909 377.0625Q500.8534 377.1875 500.9784 377.26562Q501.1034 377.34375 501.33777 377.34375Q501.52527 377.34375 501.80652 377.3125ZM506.58777 378.25L506.58777 377.32812Q505.8534 378.39062 504.6034 378.39062Q504.05652 378.39062 503.57214 378.1875Q503.1034 377.96875 502.86902 377.65625Q502.63464 377.32812 502.5409 376.85938Q502.4784 376.5625 502.4784 375.875L502.4784 372.03125L503.5409 372.03125L503.5409 375.48438Q503.5409 376.29688 503.6034 376.59375Q503.69714 377.0 504.00964 377.25Q504.33777 377.48438 504.82214 377.48438Q505.2909 377.48438 505.69714 377.25Q506.11902 377.0 506.2909 376.57812Q506.4784 376.15625 506.4784 375.35938L506.4784 372.03125L507.52527 372.03125L507.52527 378.25L506.58777 378.25ZM513.57214 377.48438Q512.9784 377.98438 512.4315 378.1875Q511.90027 378.39062 511.27527 378.39062Q510.24402 378.39062 509.69714 377.89062Q509.15027 377.39062 509.15027 376.60938Q509.15027 376.15625 509.3534 375.78125Q509.55652 375.39062 509.90027 375.17188Q510.24402 374.9375 510.6659 374.82812Q510.96277 374.73438 511.6034 374.65625Q512.869 374.51562 513.4784 374.29688Q513.4784 374.07812 513.4784 374.03125Q513.4784 373.375 513.1815 373.10938Q512.77527 372.76562 511.9784 372.76562Q511.24402 372.76562 510.88464 373.03125Q510.52527 373.28125 510.3534 373.9375L509.32214 373.79688Q509.46277 373.14062 509.7909 372.73438Q510.11902 372.32812 510.7284 372.10938Q511.33777 371.89062 512.13464 371.89062Q512.9315 371.89062 513.4315 372.07812Q513.9315 372.26562 514.1659 372.54688Q514.40027 372.82812 514.494 373.26562Q514.5409 373.53125 514.5409 374.23438L514.5409 375.64062Q514.5409 377.10938 514.6034 377.5Q514.6815 377.89062 514.88464 378.25L513.77527 378.25Q513.619 377.92188 513.57214 377.48438ZM513.4784 375.125Q512.90027 375.35938 511.75964 375.53125Q511.1034 375.625 510.83777 375.75Q510.57214 375.85938 510.4159 376.07812Q510.27527 376.29688 510.27527 376.57812Q510.27527 377.0 510.58777 377.28125Q510.9159 377.5625 511.52527 377.5625Q512.13464 377.5625 512.6034 377.29688Q513.08777 377.03125 513.3065 376.5625Q513.4784 376.20312 513.4784 375.51562L513.4784 375.125ZM516.4784 378.25L516.4784 369.65625L517.5409 369.65625L517.5409 378.25L516.4784 378.25Z" fill-rule="nonzero"/><path fill="#4285f4" d="M300.0 62.25C300.0 61.697716 300.44772 61.25 301.0 61.25L311.0 61.25C311.55228 61.25 312.0 61.697716 312.0 62.25L312.0 72.25C312.0 72.802284 311.55228 73.25 311.0 73.25L301.0 73.25C300.44772 73.25 300.0 72.802284 300.0 72.25Z" fill-rule="nonzero"/><path fill="#1a1a1a" d="M323.10938 71.25L323.10938 63.671875L320.28125 63.671875L320.28125 62.65625L327.09375 62.65625L327.09375 63.671875L324.25 63.671875L324.25 71.25L323.10938 71.25ZM334.0625 68.234375L335.1875 68.53125Q334.82812 69.921875 333.90625 70.65625Q332.98438 71.390625 331.64062 71.390625Q330.25 71.390625 329.375 70.828125Q328.5 70.265625 328.04688 69.203125Q327.59375 68.125 327.59375 66.890625Q327.59375 65.546875 328.10938 64.546875Q328.625 63.546875 329.5625 63.03125Q330.51562 62.515625 331.65625 62.515625Q332.9375 62.515625 333.8125 63.171875Q334.70312 63.828125 335.04688 65.015625L333.92188 65.28125Q333.625 64.34375 333.04688 63.921875Q332.48438 63.484375 331.625 63.484375Q330.64062 63.484375 329.96875 63.96875Q329.3125 64.4375 329.03125 65.234375Q328.76562 66.03125 328.76562 66.890625Q328.76562 67.984375 329.07812 68.796875Q329.40625 69.609375 330.07812 70.015625Q330.75 70.421875 331.54688 70.421875Q332.5 70.421875 333.15625 69.875Q333.82812 69.328125 334.0625 68.234375ZM336.92188 71.25L336.92188 62.65625L340.17188 62.65625Q341.01562 62.65625 341.46875 62.734375Q342.10938 62.84375 342.53125 63.140625Q342.96875 63.4375 343.21875 63.96875Q343.48438 64.5 343.48438 65.140625Q343.48438 66.234375 342.78125 67.0Q342.09375 67.75 340.26562 67.75L338.0625 67.75L338.0625 71.25L336.92188 71.25ZM338.0625 66.75L340.28125 66.75Q341.39062 66.75 341.84375 66.34375Q342.3125 65.921875 342.3125 65.171875Q342.3125 64.640625 342.03125 64.265625Q341.76562 63.875 341.32812 63.75Q341.03125 63.671875 340.26562 63.671875L338.0625 63.671875L338.0625 66.75Z" fill-rule="nonzero"/><path fill="#ea4335" d="M360.0 62.25C360.0 61.697716 360.44772 61.25 361.0 61.25L371.0 61.25C371.55228 61.25 372.0 61.697716 372.0 62.25L372.0 72.25C372.0 72.802284 371.55228 73.25 371.0 73.25L361.0 73.25C360.44772 73.25 360.0 72.802284 360.0 72.25Z" fill-rule="nonzero"/><path fill="#1a1a1a" d="M386.5625 62.65625L387.70312 62.65625L387.70312 67.625Q387.70312 68.921875 387.40625 69.6875Q387.10938 70.4375 386.34375 70.921875Q385.57812 71.390625 384.34375 71.390625Q383.14062 71.390625 382.35938 70.984375Q381.59375 70.5625 381.26562 69.78125Q380.9375 68.984375 380.9375 67.625L380.9375 62.65625L382.07812 62.65625L382.07812 67.609375Q382.07812 68.734375 382.28125 69.265625Q382.5 69.796875 383.0 70.09375Q383.51562 70.375 384.25 70.375Q385.5 70.375 386.03125 69.8125Q386.5625 69.234375 386.5625 67.609375L386.5625 62.65625ZM389.92188 71.25L389.92188 62.65625L392.89062 62.65625Q393.89062 62.65625 394.42188 62.78125Q395.15625 62.953125 395.67188 63.390625Q396.35938 63.96875 396.6875 64.875Q397.03125 65.765625 397.03125 66.90625Q397.03125 67.890625 396.79688 68.640625Q396.57812 69.390625 396.21875 69.890625Q395.85938 70.390625 395.42188 70.671875Q395.0 70.953125 394.40625 71.109375Q393.8125 71.25 393.03125 71.25L389.92188 71.25ZM391.0625 70.234375L392.89062 70.234375Q393.75 70.234375 394.23438 70.078125Q394.71875 69.921875 395.0 69.625Q395.40625 69.234375 395.625 68.546875Q395.85938 67.859375 395.85938 66.890625Q395.85938 65.546875 395.40625 64.828125Q394.96875 64.09375 394.34375 63.84375Q393.875 63.671875 392.875 63.671875L391.0625 63.671875L391.0625 70.234375ZM398.92188 71.25L398.92188 62.65625L402.17188 62.65625Q403.01562 62.65625 403.46875 62.734375Q404.10938 62.84375 404.53125 63.140625Q404.96875 63.4375 405.21875 63.96875Q405.48438 64.5 405.48438 65.140625Q405.48438 66.234375 404.78125 67.0Q404.09375 67.75 402.26562 67.75L400.0625 67.75L400.0625 71.25L398.92188 71.25ZM400.0625 66.75L402.28125 66.75Q403.39062 66.75 403.84375 66.34375Q404.3125 65.921875 404.3125 65.171875Q404.3125 64.640625 404.03125 64.265625Q403.76562 63.875 403.32812 63.75Q403.03125 63.671875 402.26562 63.671875L400.0625 63.671875L400.0625 66.75Z" fill-rule="nonzero"/><path fill="#757575" d="M210.45312 40.75L210.45312 26.4375L221.07812 26.4375L221.07812 28.859375L213.34375 28.859375L213.34375 32.03125L220.53125 32.03125L220.53125 34.4375L213.34375 34.4375L213.34375 38.34375L221.34375 38.34375L221.34375 40.75L210.45312 40.75ZM232.875 40.75L230.125 40.75L230.125 35.453125Q230.125 33.78125 229.95312 33.296875Q229.78125 32.796875 229.375 32.53125Q228.98438 32.25 228.42188 32.25Q227.71875 32.25 227.14062 32.640625Q226.57812 33.03125 226.35938 33.671875Q226.15625 34.3125 226.15625 36.046875L226.15625 40.75L223.42188 40.75L223.42188 30.375L225.96875 30.375L225.96875 31.90625Q227.32812 30.140625 229.39062 30.140625Q230.29688 30.140625 231.04688 30.46875Q231.79688 30.796875 232.17188 31.3125Q232.5625 31.8125 232.71875 32.46875Q232.875 33.109375 232.875 34.296875L232.875 40.75ZM235.4375 40.75L235.4375 26.4375L238.1875 26.4375L238.1875 40.75L235.4375 40.75ZM242.48438 33.546875L240.0 33.09375Q240.42188 31.59375 241.4375 30.875Q242.46875 30.140625 244.48438 30.140625Q246.32812 30.140625 247.21875 30.578125Q248.125 31.015625 248.48438 31.6875Q248.85938 32.34375 248.85938 34.140625L248.82812 37.34375Q248.82812 38.703125 248.95312 39.359375Q249.09375 40.0 249.45312 40.75L246.73438 40.75Q246.625 40.46875 246.46875 39.9375Q246.40625 39.6875 246.375 39.609375Q245.67188 40.296875 244.85938 40.640625Q244.0625 40.984375 243.15625 40.984375Q241.5625 40.984375 240.64062 40.125Q239.71875 39.25 239.71875 37.921875Q239.71875 37.03125 240.125 36.34375Q240.54688 35.65625 241.29688 35.296875Q242.0625 34.921875 243.5 34.65625Q245.42188 34.296875 246.15625 33.984375L246.15625 33.703125Q246.15625 32.921875 245.76562 32.59375Q245.375 32.25 244.29688 32.25Q243.5625 32.25 243.14062 32.53125Q242.73438 32.8125 242.48438 33.546875ZM246.15625 35.765625Q245.625 35.9375 244.48438 36.1875Q243.34375 36.4375 243.0 36.671875Q242.45312 37.046875 242.45312 37.640625Q242.45312 38.203125 242.875 38.625Q243.3125 39.046875 243.98438 39.046875Q244.71875 39.046875 245.39062 38.5625Q245.89062 38.1875 246.04688 37.65625Q246.15625 37.296875 246.15625 36.3125L246.15625 35.765625ZM260.48438 33.4375L257.78125 33.9375Q257.64062 33.125 257.15625 32.71875Q256.67188 32.296875 255.90625 32.296875Q254.875 32.296875 254.26562 33.015625Q253.65625 33.71875 253.65625 35.375Q253.65625 37.21875 254.26562 37.984375Q254.89062 38.75 255.9375 38.75Q256.71875 38.75 257.21875 38.3125Q257.71875 37.859375 257.92188 36.78125L260.60938 37.234375Q260.20312 39.09375 259.0 40.046875Q257.8125 40.984375 255.8125 40.984375Q253.53125 40.984375 252.17188 39.546875Q250.82812 38.109375 250.82812 35.578125Q250.82812 33.0 252.1875 31.578125Q253.54688 30.140625 255.85938 30.140625Q257.75 30.140625 258.85938 30.96875Q259.98438 31.78125 260.48438 33.4375ZM268.4375 37.453125L271.17188 37.90625Q270.65625 39.40625 269.51562 40.203125Q268.375 40.984375 266.67188 40.984375Q263.95312 40.984375 262.65625 39.21875Q261.64062 37.796875 261.64062 35.640625Q261.64062 33.0625 262.98438 31.609375Q264.32812 30.140625 266.39062 30.140625Q268.70312 30.140625 270.03125 31.671875Q271.375 33.203125 271.32812 36.359375L264.45312 36.359375Q264.48438 37.578125 265.10938 38.265625Q265.75 38.9375 266.6875 38.9375Q267.34375 38.9375 267.78125 38.59375Q268.21875 38.234375 268.4375 37.453125ZM268.59375 34.671875Q268.5625 33.484375 267.96875 32.875Q267.39062 32.25 266.5625 32.25Q265.65625 32.25 265.07812 32.890625Q264.48438 33.546875 264.5 34.671875L268.59375 34.671875ZM272.46875 37.796875L275.21875 37.375Q275.40625 38.171875 275.9375 38.59375Q276.46875 39.0 277.4375 39.0Q278.5 39.0 279.04688 38.609375Q279.40625 38.34375 279.40625 37.875Q279.40625 37.5625 279.20312 37.359375Q279.0 37.171875 278.29688 37.0Q274.96875 36.265625 274.07812 35.65625Q272.84375 34.828125 272.84375 33.328125Q272.84375 31.984375 273.90625 31.0625Q274.98438 30.140625 277.21875 30.140625Q279.34375 30.140625 280.375 30.84375Q281.42188 31.53125 281.8125 32.890625L279.21875 33.359375Q279.04688 32.765625 278.57812 32.4375Q278.125 32.109375 277.26562 32.109375Q276.1875 32.109375 275.71875 32.421875Q275.40625 32.640625 275.40625 32.96875Q275.40625 33.265625 275.67188 33.46875Q276.04688 33.75 278.23438 34.25Q280.42188 34.75 281.29688 35.46875Q282.15625 36.203125 282.15625 37.5Q282.15625 38.9375 280.96875 39.96875Q279.78125 40.984375 277.4375 40.984375Q275.32812 40.984375 274.07812 40.125Q272.84375 39.265625 272.46875 37.796875ZM289.89062 37.0625L292.625 36.78125Q292.73438 37.71875 293.3125 38.265625Q293.89062 38.796875 294.64062 38.796875Q295.5 38.796875 296.09375 38.109375Q296.70312 37.40625 296.70312 36.0Q296.70312 34.671875 296.10938 34.015625Q295.51562 33.359375 294.5625 33.359375Q293.39062 33.359375 292.45312 34.40625L290.21875 34.078125L291.625 26.625L298.89062 26.625L298.89062 29.203125L293.70312 29.203125L293.28125 31.625Q294.20312 31.171875 295.15625 31.171875Q296.98438 31.171875 298.25 32.5Q299.51562 33.828125 299.51562 35.9375Q299.51562 37.71875 298.5 39.09375Q297.09375 41.0 294.60938 41.0Q292.64062 41.0 291.39062 39.9375Q290.14062 38.859375 289.89062 37.0625ZM305.48438 26.375Q307.5625 26.375 308.73438 27.859375Q310.14062 29.609375 310.14062 33.6875Q310.14062 37.75 308.73438 39.53125Q307.5625 41.0 305.48438 41.0Q303.40625 41.0 302.125 39.390625Q300.84375 37.78125 300.84375 33.65625Q300.84375 29.609375 302.25 27.84375Q303.40625 26.375 305.48438 26.375ZM305.48438 28.65625Q304.98438 28.65625 304.59375 28.96875Q304.20312 29.28125 304.0 30.109375Q303.71875 31.171875 303.71875 33.6875Q303.71875 36.203125 303.96875 37.15625Q304.21875 38.09375 304.59375 38.40625Q304.98438 38.71875 305.48438 38.71875Q305.98438 38.71875 306.375 38.40625Q306.76562 38.078125 306.98438 37.265625Q307.26562 36.203125 307.26562 33.6875Q307.26562 31.171875 307.01562 30.234375Q306.76562 29.28125 306.375 28.96875Q305.98438 28.65625 305.48438 28.65625ZM316.48438 26.375Q318.5625 26.375 319.73438 27.859375Q321.14062 29.609375 321.14062 33.6875Q321.14062 37.75 319.73438 39.53125Q318.5625 41.0 316.48438 41.0Q314.40625 41.0 313.125 39.390625Q311.84375 37.78125 311.84375 33.65625Q311.84375 29.609375 313.25 27.84375Q314.40625 26.375 316.48438 26.375ZM316.48438 28.65625Q315.98438 28.65625 315.59375 28.96875Q315.20312 29.28125 315.0 30.109375Q314.71875 31.171875 314.71875 33.6875Q314.71875 36.203125 314.96875 37.15625Q315.21875 38.09375 315.59375 38.40625Q315.98438 38.71875 316.48438 38.71875Q316.98438 38.71875 317.375 38.40625Q317.76562 38.078125 317.98438 37.265625Q318.26562 36.203125 318.26562 33.6875Q318.26562 31.171875 318.01562 30.234375Q317.76562 29.28125 317.375 28.96875Q316.98438 28.65625 316.48438 28.65625ZM329.42188 40.75L329.42188 26.4375L333.75 26.4375L336.34375 36.203125L338.90625 26.4375L343.25 26.4375L343.25 40.75L340.5625 40.75L340.5625 29.484375L337.71875 40.75L334.9375 40.75L332.10938 29.484375L332.10938 40.75L329.42188 40.75ZM346.3125 40.75L346.3125 26.4375L349.0625 26.4375L349.0625 31.59375Q350.32812 30.140625 352.07812 30.140625Q353.96875 30.140625 355.20312 31.515625Q356.45312 32.890625 356.45312 35.453125Q356.45312 38.109375 355.1875 39.546875Q353.92188 40.984375 352.10938 40.984375Q351.21875 40.984375 350.35938 40.546875Q349.5 40.09375 348.875 39.21875L348.875 40.75L346.3125 40.75ZM349.04688 35.34375Q349.04688 36.953125 349.54688 37.71875Q350.26562 38.8125 351.45312 38.8125Q352.35938 38.8125 353.0 38.046875Q353.64062 37.265625 353.64062 35.59375Q353.64062 33.8125 352.98438 33.03125Q352.34375 32.25 351.34375 32.25Q350.35938 32.25 349.70312 33.015625Q349.04688 33.78125 349.04688 35.34375ZM358.35938 30.375L360.92188 30.375L360.92188 31.90625Q361.42188 31.125 362.26562 30.640625Q363.10938 30.140625 364.15625 30.140625Q365.95312 30.140625 367.20312 31.5625Q368.46875 32.96875 368.46875 35.5Q368.46875 38.109375 367.20312 39.546875Q365.9375 40.984375 364.125 40.984375Q363.26562 40.984375 362.5625 40.640625Q361.875 40.296875 361.10938 39.46875L361.10938 44.703125L358.35938 44.703125L358.35938 30.375ZM361.07812 35.390625Q361.07812 37.140625 361.76562 37.984375Q362.45312 38.8125 363.45312 38.8125Q364.40625 38.8125 365.04688 38.046875Q365.6875 37.265625 365.6875 35.53125Q365.6875 33.890625 365.03125 33.109375Q364.375 32.3125 363.40625 32.3125Q362.40625 32.3125 361.73438 33.09375Q361.07812 33.859375 361.07812 35.390625ZM369.46875 37.796875L372.21875 37.375Q372.40625 38.171875 372.9375 38.59375Q373.46875 39.0 374.4375 39.0Q375.5 39.0 376.04688 38.609375Q376.40625 38.34375 376.40625 37.875Q376.40625 37.5625 376.20312 37.359375Q376.0 37.171875 375.29688 37.0Q371.96875 36.265625 371.07812 35.65625Q369.84375 34.828125 369.84375 33.328125Q369.84375 31.984375 370.90625 31.0625Q371.98438 30.140625 374.21875 30.140625Q376.34375 30.140625 377.375 30.84375Q378.42188 31.53125 378.8125 32.890625L376.21875 33.359375Q376.04688 32.765625 375.57812 32.4375Q375.125 32.109375 374.26562 32.109375Q373.1875 32.109375 372.71875 32.421875Q372.40625 32.640625 372.40625 32.96875Q372.40625 33.265625 372.67188 33.46875Q373.04688 33.75 375.23438 34.25Q377.42188 34.75 378.29688 35.46875Q379.15625 36.203125 379.15625 37.5Q379.15625 38.9375 377.96875 39.96875Q376.78125 40.984375 374.4375 40.984375Q372.32812 40.984375 371.07812 40.125Q369.84375 39.265625 369.46875 37.796875ZM385.95312 36.59375L385.95312 34.53125L397.07812 34.53125L397.07812 36.59375L385.95312 36.59375ZM403.90625 37.4375L406.5625 37.140625Q406.65625 37.953125 407.0625 38.34375Q407.48438 38.734375 408.15625 38.734375Q409.0 38.734375 409.59375 37.953125Q410.20312 37.171875 410.35938 34.71875Q409.32812 35.921875 407.78125 35.921875Q406.09375 35.921875 404.85938 34.625Q403.64062 33.3125 403.64062 31.21875Q403.64062 29.046875 404.92188 27.71875Q406.21875 26.375 408.21875 26.375Q410.40625 26.375 411.79688 28.0625Q413.20312 29.75 413.20312 33.59375Q413.20312 37.53125 411.73438 39.265625Q410.28125 41.0 407.95312 41.0Q406.26562 41.0 405.23438 40.109375Q404.20312 39.21875 403.90625 37.4375ZM410.125 31.4375Q410.125 30.109375 409.51562 29.390625Q408.90625 28.65625 408.09375 28.65625Q407.34375 28.65625 406.82812 29.25Q406.32812 29.84375 406.32812 31.21875Q406.32812 32.609375 406.875 33.265625Q407.42188 33.90625 408.25 33.90625Q409.03125 33.90625 409.57812 33.28125Q410.125 32.65625 410.125 31.4375ZM419.48438 26.375Q421.5625 26.375 422.73438 27.859375Q424.14062 29.609375 424.14062 33.6875Q424.14062 37.75 422.73438 39.53125Q421.5625 41.0 419.48438 41.0Q417.40625 41.0 416.125 39.390625Q414.84375 37.78125 414.84375 33.65625Q414.84375 29.609375 416.25 27.84375Q417.40625 26.375 419.48438 26.375ZM419.48438 28.65625Q418.98438 28.65625 418.59375 28.96875Q418.20312 29.28125 418.0 30.109375Q417.71875 31.171875 417.71875 33.6875Q417.71875 36.203125 417.96875 37.15625Q418.21875 38.09375 418.59375 38.40625Q418.98438 38.71875 419.48438 38.71875Q419.98438 38.71875 420.375 38.40625Q420.76562 38.078125 420.98438 37.265625Q421.26562 36.203125 421.26562 33.6875Q421.26562 31.171875 421.01562 30.234375Q420.76562 29.28125 420.375 28.96875Q419.98438 28.65625 419.48438 28.65625ZM430.48438 26.375Q432.5625 26.375 433.73438 27.859375Q435.14062 29.609375 435.14062 33.6875Q435.14062 37.75 433.73438 39.53125Q432.5625 41.0 430.48438 41.0Q428.40625 41.0 427.125 39.390625Q425.84375 37.78125 425.84375 33.65625Q425.84375 29.609375 427.25 27.84375Q428.40625 26.375 430.48438 26.375ZM430.48438 28.65625Q429.98438 28.65625 429.59375 28.96875Q429.20312 29.28125 429.0 30.109375Q428.71875 31.171875 428.71875 33.6875Q428.71875 36.203125 428.96875 37.15625Q429.21875 38.09375 429.59375 38.40625Q429.98438 38.71875 430.48438 38.71875Q430.98438 38.71875 431.375 38.40625Q431.76562 38.078125 431.98438 37.265625Q432.26562 36.203125 432.26562 33.6875Q432.26562 31.171875 432.01562 30.234375Q431.76562 29.28125 431.375 28.96875Q430.98438 28.65625 430.48438 28.65625ZM441.48438 26.375Q443.5625 26.375 444.73438 27.859375Q446.14062 29.609375 446.14062 33.6875Q446.14062 37.75 444.73438 39.53125Q443.5625 41.0 441.48438 41.0Q439.40625 41.0 438.125 39.390625Q436.84375 37.78125 436.84375 33.65625Q436.84375 29.609375 438.25 27.84375Q439.40625 26.375 441.48438 26.375ZM441.48438 28.65625Q440.98438 28.65625 440.59375 28.96875Q440.20312 29.28125 440.0 30.109375Q439.71875 31.171875 439.71875 33.6875Q439.71875 36.203125 439.96875 37.15625Q440.21875 38.09375 440.59375 38.40625Q440.98438 38.71875 441.48438 38.71875Q441.98438 38.71875 442.375 38.40625Q442.76562 38.078125 442.98438 37.265625Q443.26562 36.203125 443.26562 33.6875Q443.26562 31.171875 443.01562 30.234375Q442.76562 29.28125 442.375 28.96875Q441.98438 28.65625 441.48438 28.65625ZM454.42188 40.75L454.42188 26.4375L458.75 26.4375L461.34375 36.203125L463.90625 26.4375L468.25 26.4375L468.25 40.75L465.5625 40.75L465.5625 29.484375L462.71875 40.75L459.9375 40.75L457.10938 29.484375L457.10938 40.75L454.42188 40.75ZM474.67188 40.75L474.67188 28.859375L470.4375 28.859375L470.4375 26.4375L481.8125 26.4375L481.8125 28.859375L477.5625 28.859375L477.5625 40.75L474.67188 40.75ZM484.4375 26.4375L487.32812 26.4375L487.32812 34.1875Q487.32812 36.03125 487.4375 36.578125Q487.625 37.453125 488.3125 37.984375Q489.01562 38.515625 490.23438 38.515625Q491.45312 38.515625 492.07812 38.015625Q492.70312 37.515625 492.82812 36.78125Q492.96875 36.046875 492.96875 34.359375L492.96875 26.4375L495.85938 26.4375L495.85938 33.953125Q495.85938 36.53125 495.625 37.59375Q495.39062 38.65625 494.75 39.390625Q494.125 40.125 493.0625 40.5625Q492.01562 41.0 490.3125 41.0Q488.26562 41.0 487.20312 40.53125Q486.14062 40.046875 485.53125 39.296875Q484.92188 38.53125 484.71875 37.703125Q484.4375 36.46875 484.4375 34.0625L484.4375 26.4375Z" fill-rule="nonzero"/></svg>