<svg version="1.1" viewBox="0.0 0.0 744.0 435.0" fill="none" stroke="none" stroke-linecap="square" stroke-miterlimit="10" width="744" height="435" xmlns:xlink="http://www.w3.org/1999/xlink" xmlns="http://www.w3.org/2000/svg"><path fill="#ffffff" d="M0 0L744.0 0L744.0 435.0L0 435.0L0 0Z" fill-rule="nonzero"/><path stroke="#333333" stroke-width="1.0" stroke-linecap="butt" d="M48.5 361.5L722.5 361.5" fill-rule="nonzero"/><path stroke="#cccccc" stroke-width="1.0" stroke-linecap="butt" d="M48.5 272.5L722.5 272.5" fill-rule="nonzero"/><path stroke="#cccccc" stroke-width="1.0" stroke-linecap="butt" d="M48.5 184.5L722.5 184.5" fill-rule="nonzero"/><path stroke="#cccccc" stroke-width="1.0" stroke-linecap="butt" d="M48.5 95.5L722.5 95.5" fill-rule="nonzero"/><path stroke="#e6e6e6" stroke-width="1.0" stroke-linecap="butt" d="M48.5 331.5L722.5 331.5" fill-rule="nonzero"/><path stroke="#e6e6e6" stroke-width="1.0" stroke-linecap="butt" d="M48.5 302.5L722.5 302.5" fill-rule="nonzero"/><path stroke="#e6e6e6" stroke-width="1.0" stroke-linecap="butt" d="M48.5 243.5L722.5 243.5" fill-rule="nonzero"/><path stroke="#e6e6e6" stroke-width="1.0" stroke-linecap="butt" d="M48.5 213.5L722.5 213.5" fill-rule="nonzero"/><path stroke="#e6e6e6" stroke-width="1.0" stroke-linecap="butt" d="M48.5 154.5L722.5 154.5" fill-rule="nonzero"/><path stroke="#e6e6e6" stroke-width="1.0" stroke-linecap="butt" d="M48.5 125.5L722.5 125.5" fill-rule="nonzero"/><clipPath id="id_0"><path d="M48.75 95.75L722.25 95.75L722.25 361.25L48.75 361.25L48.75 95.75Z" clip-rule="nonzero"/></clipPath><path stroke="#000000" stroke-width="2.0" stroke-linecap="butt" stroke-opacity="0.0" clip-path="url(#id_0)" d="M241.0 361.0L150.0 361.0L150.0 144.0C150.0 142.89543 150.89543 142.0 152.0 142.0L239.0 142.0C240.10457 142.0 241.0 142.89543 241.0 144.0Z" fill-rule="nonzero"/><path fill="#4285f4" clip-path="url(#id_0)" d="M241.0 361.0L150.0 361.0L150.0 144.0C150.0 142.89543 150.89543 142.0 152.0 142.0L239.0 142.0C240.10457 142.0 241.0 142.89543 241.0 144.0Z" fill-rule="nonzero"/><path stroke="#000000" stroke-width="2.0" stroke-linecap="butt" stroke-opacity="0.0" clip-path="url(#id_0)" d="M528.0 361.0L437.0 361.0L437.0 153.0C437.0 151.89543 437.89542 151.0 439.0 151.0L526.0 151.0C527.10455 151.0 528.0 151.89543 528.0 153.0Z" fill-rule="nonzero"/><path fill="#4285f4" clip-path="url(#id_0)" d="M528.0 361.0L437.0 361.0L437.0 153.0C437.0 151.89543 437.89542 151.0 439.0 151.0L526.0 151.0C527.10455 151.0 528.0 151.89543 528.0 153.0Z" fill-rule="nonzero"/><path stroke="#000000" stroke-width="2.0" stroke-linecap="butt" stroke-opacity="0.0" clip-path="url(#id_0)" d="M334.0 361.0L243.0 361.0L243.0 142.0C243.0 140.89543 243.89543 140.0 245.0 140.0L332.0 140.0C333.10458 140.0 334.0 140.89543 334.0 142.0Z" fill-rule="nonzero"/><path fill="#ea4335" clip-path="url(#id_0)" d="M334.0 361.0L243.0 361.0L243.0 142.0C243.0 140.89543 243.89543 140.0 245.0 140.0L332.0 140.0C333.10458 140.0 334.0 140.89543 334.0 142.0Z" fill-rule="nonzero"/><path stroke="#000000" stroke-width="2.0" stroke-linecap="butt" stroke-opacity="0.0" clip-path="url(#id_0)" d="M621.0 361.0L530.0 361.0L530.0 149.0C530.0 147.89543 530.89545 147.0 532.0 147.0L619.0 147.0C620.10455 147.0 621.0 147.89543 621.0 149.0Z" fill-rule="nonzero"/><path fill="#ea4335" clip-path="url(#id_0)" d="M621.0 361.0L530.0 361.0L530.0 149.0C530.0 147.89543 530.89545 147.0 532.0 147.0L619.0 147.0C620.10455 147.0 621.0 147.89543 621.0 149.0Z" fill-rule="nonzero"/><path stroke="#4285f4" stroke-width="3.0" stroke-linejoin="round" stroke-linecap="round" d="M182.28125 155.76372L183.46875 155.76372L183.46875 156.63872L182.28125 156.63872L182.28125 158.6231L181.20312 158.6231L181.20312 156.63872L177.3125 156.63872L177.3125 155.9981L181.125 150.09184L182.28125 150.09184L182.28125 155.76372ZM178.54688 155.76372L181.20312 155.76372L181.20312 151.57622L181.0625 151.8106L178.54688 155.76372ZM188.85938 154.8731Q188.53125 155.27934 188.04688 155.52934Q187.57812 155.76372 187.01562 155.76372Q186.28125 155.76372 185.73438 155.40434Q185.1875 155.04497 184.89062 154.38872Q184.59375 153.71684 184.59375 152.91997Q184.59375 152.07622 184.90625 151.38872Q185.23438 150.70122 185.82812 150.34184Q186.4375 149.96684 187.23438 149.96684Q188.5 149.96684 189.21875 150.91997Q189.95312 151.8731 189.95312 153.4981L189.95312 153.8106Q189.95312 156.3106 188.96875 157.45122Q187.98438 158.59184 186.0 158.6231L185.78125 158.6231L185.78125 157.71684L186.01562 157.71684Q187.35938 157.6856 188.07812 157.01372Q188.79688 156.34184 188.85938 154.8731ZM187.1875 154.8731Q187.73438 154.8731 188.1875 154.54497Q188.65625 154.20122 188.875 153.71684L188.875 153.27934Q188.875 152.21684 188.40625 151.54497Q187.9375 150.8731 187.23438 150.8731Q186.51562 150.8731 186.07812 151.41997Q185.65625 151.96684 185.65625 152.8731Q185.65625 153.7481 186.0625 154.3106Q186.48438 154.8731 187.1875 154.8731ZM192.20312 154.34184L192.64062 150.09184L197.01562 150.09184L197.01562 151.09184L193.5625 151.09184L193.29688 153.41997Q193.9375 153.04497 194.73438 153.04497Q195.89062 153.04497 196.57812 153.82622Q197.26562 154.59184 197.26562 155.90434Q197.26562 157.21684 196.54688 157.98247Q195.84375 158.7481 194.5625 158.7481Q193.4375 158.7481 192.71875 158.1231Q192.0 157.48247 191.90625 156.3731L192.92188 156.3731Q193.03125 157.10747 193.45312 157.48247Q193.875 157.85747 194.5625 157.85747Q195.3125 157.85747 195.75 157.34184Q196.1875 156.82622 196.1875 155.91997Q196.1875 155.0606 195.71875 154.54497Q195.25 154.02934 194.46875 154.02934Q193.76562 154.02934 193.35938 154.32622L193.07812 154.5606L192.20312 154.34184ZM198.78125 160.32622L198.17188 159.90434Q198.71875 159.13872 198.75 158.3106L198.75 157.34184L199.8125 157.34184L199.8125 158.1856Q199.8125 158.77934 199.51562 159.3731Q199.21875 159.96684 198.78125 160.32622ZM205.89062 152.3106Q205.89062 152.95122 205.54688 153.45122Q205.20312 153.95122 204.64062 154.23247Q205.29688 154.51372 205.6875 155.07622Q206.07812 155.6231 206.07812 156.32622Q206.07812 157.41997 205.32812 158.09184Q204.59375 158.7481 203.375 158.7481Q202.14062 158.7481 201.39062 158.09184Q200.65625 157.41997 200.65625 156.32622Q200.65625 155.6231 201.03125 155.07622Q201.40625 154.51372 202.07812 154.23247Q201.51562 153.95122 201.1875 153.45122Q200.85938 152.95122 200.85938 152.3106Q200.85938 151.23247 201.54688 150.60747Q202.23438 149.96684 203.375 149.96684Q204.5 149.96684 205.1875 150.60747Q205.89062 151.23247 205.89062 152.3106ZM205.0 156.29497Q205.0 155.57622 204.54688 155.13872Q204.09375 154.6856 203.35938 154.6856Q202.625 154.6856 202.17188 155.13872Q201.73438 155.57622 201.73438 156.3106Q201.73438 157.02934 202.17188 157.45122Q202.60938 157.85747 203.375 157.85747Q204.125 157.85747 204.5625 157.4356Q205.0 157.01372 205.0 156.29497ZM203.375 150.85747Q202.73438 150.85747 202.32812 151.26372Q201.9375 151.65434 201.9375 152.34184Q201.9375 152.98247 202.32812 153.38872Q202.71875 153.79497 203.35938 153.79497Q204.01562 153.79497 204.40625 153.38872Q204.79688 152.98247 204.79688 152.34184Q204.79688 151.6856 204.39062 151.27934Q203.98438 150.85747 203.375 150.85747ZM212.89062 152.3106Q212.89062 152.95122 212.54688 153.45122Q212.20312 153.95122 211.64062 154.23247Q212.29688 154.51372 212.6875 155.07622Q213.07812 155.6231 213.07812 156.32622Q213.07812 157.41997 212.32812 158.09184Q211.59375 158.7481 210.375 158.7481Q209.14062 158.7481 208.39062 158.09184Q207.65625 157.41997 207.65625 156.32622Q207.65625 155.6231 208.03125 155.07622Q208.40625 154.51372 209.07812 154.23247Q208.51562 153.95122 208.1875 153.45122Q207.85938 152.95122 207.85938 152.3106Q207.85938 151.23247 208.54688 150.60747Q209.23438 149.96684 210.375 149.96684Q211.5 149.96684 212.1875 150.60747Q212.89062 151.23247 212.89062 152.3106ZM212.0 156.29497Q212.0 155.57622 211.54688 155.13872Q211.09375 154.6856 210.35938 154.6856Q209.625 154.6856 209.17188 155.13872Q208.73438 155.57622 208.73438 156.3106Q208.73438 157.02934 209.17188 157.45122Q209.60938 157.85747 210.375 157.85747Q211.125 157.85747 211.5625 157.4356Q212.0 157.01372 212.0 156.29497ZM210.375 150.85747Q209.73438 150.85747 209.32812 151.26372Q208.9375 151.65434 208.9375 152.34184Q208.9375 152.98247 209.32812 153.38872Q209.71875 153.79497 210.35938 153.79497Q211.01562 153.79497 211.40625 153.38872Q211.79688 152.98247 211.79688 152.34184Q211.79688 151.6856 211.39062 151.27934Q210.98438 150.85747 210.375 150.85747Z" fill-rule="nonzero"/><path fill="#ffffff" d="M182.28125 155.76372L183.46875 155.76372L183.46875 156.63872L182.28125 156.63872L182.28125 158.6231L181.20312 158.6231L181.20312 156.63872L177.3125 156.63872L177.3125 155.9981L181.125 150.09184L182.28125 150.09184L182.28125 155.76372ZM178.54688 155.76372L181.20312 155.76372L181.20312 151.57622L181.0625 151.8106L178.54688 155.76372ZM188.85938 154.8731Q188.53125 155.27934 188.04688 155.52934Q187.57812 155.76372 187.01562 155.76372Q186.28125 155.76372 185.73438 155.40434Q185.1875 155.04497 184.89062 154.38872Q184.59375 153.71684 184.59375 152.91997Q184.59375 152.07622 184.90625 151.38872Q185.23438 150.70122 185.82812 150.34184Q186.4375 149.96684 187.23438 149.96684Q188.5 149.96684 189.21875 150.91997Q189.95312 151.8731 189.95312 153.4981L189.95312 153.8106Q189.95312 156.3106 188.96875 157.45122Q187.98438 158.59184 186.0 158.6231L185.78125 158.6231L185.78125 157.71684L186.01562 157.71684Q187.35938 157.6856 188.07812 157.01372Q188.79688 156.34184 188.85938 154.8731ZM187.1875 154.8731Q187.73438 154.8731 188.1875 154.54497Q188.65625 154.20122 188.875 153.71684L188.875 153.27934Q188.875 152.21684 188.40625 151.54497Q187.9375 150.8731 187.23438 150.8731Q186.51562 150.8731 186.07812 151.41997Q185.65625 151.96684 185.65625 152.8731Q185.65625 153.7481 186.0625 154.3106Q186.48438 154.8731 187.1875 154.8731ZM192.20312 154.34184L192.64062 150.09184L197.01562 150.09184L197.01562 151.09184L193.5625 151.09184L193.29688 153.41997Q193.9375 153.04497 194.73438 153.04497Q195.89062 153.04497 196.57812 153.82622Q197.26562 154.59184 197.26562 155.90434Q197.26562 157.21684 196.54688 157.98247Q195.84375 158.7481 194.5625 158.7481Q193.4375 158.7481 192.71875 158.1231Q192.0 157.48247 191.90625 156.3731L192.92188 156.3731Q193.03125 157.10747 193.45312 157.48247Q193.875 157.85747 194.5625 157.85747Q195.3125 157.85747 195.75 157.34184Q196.1875 156.82622 196.1875 155.91997Q196.1875 155.0606 195.71875 154.54497Q195.25 154.02934 194.46875 154.02934Q193.76562 154.02934 193.35938 154.32622L193.07812 154.5606L192.20312 154.34184ZM198.78125 160.32622L198.17188 159.90434Q198.71875 159.13872 198.75 158.3106L198.75 157.34184L199.8125 157.34184L199.8125 158.1856Q199.8125 158.77934 199.51562 159.3731Q199.21875 159.96684 198.78125 160.32622ZM205.89062 152.3106Q205.89062 152.95122 205.54688 153.45122Q205.20312 153.95122 204.64062 154.23247Q205.29688 154.51372 205.6875 155.07622Q206.07812 155.6231 206.07812 156.32622Q206.07812 157.41997 205.32812 158.09184Q204.59375 158.7481 203.375 158.7481Q202.14062 158.7481 201.39062 158.09184Q200.65625 157.41997 200.65625 156.32622Q200.65625 155.6231 201.03125 155.07622Q201.40625 154.51372 202.07812 154.23247Q201.51562 153.95122 201.1875 153.45122Q200.85938 152.95122 200.85938 152.3106Q200.85938 151.23247 201.54688 150.60747Q202.23438 149.96684 203.375 149.96684Q204.5 149.96684 205.1875 150.60747Q205.89062 151.23247 205.89062 152.3106ZM205.0 156.29497Q205.0 155.57622 204.54688 155.13872Q204.09375 154.6856 203.35938 154.6856Q202.625 154.6856 202.17188 155.13872Q201.73438 155.57622 201.73438 156.3106Q201.73438 157.02934 202.17188 157.45122Q202.60938 157.85747 203.375 157.85747Q204.125 157.85747 204.5625 157.4356Q205.0 157.01372 205.0 156.29497ZM203.375 150.85747Q202.73438 150.85747 202.32812 151.26372Q201.9375 151.65434 201.9375 152.34184Q201.9375 152.98247 202.32812 153.38872Q202.71875 153.79497 203.35938 153.79497Q204.01562 153.79497 204.40625 153.38872Q204.79688 152.98247 204.79688 152.34184Q204.79688 151.6856 204.39062 151.27934Q203.98438 150.85747 203.375 150.85747ZM212.89062 152.3106Q212.89062 152.95122 212.54688 153.45122Q212.20312 153.95122 211.64062 154.23247Q212.29688 154.51372 212.6875 155.07622Q213.07812 155.6231 213.07812 156.32622Q213.07812 157.41997 212.32812 158.09184Q211.59375 158.7481 210.375 158.7481Q209.14062 158.7481 208.39062 158.09184Q207.65625 157.41997 207.65625 156.32622Q207.65625 155.6231 208.03125 155.07622Q208.40625 154.51372 209.07812 154.23247Q208.51562 153.95122 208.1875 153.45122Q207.85938 152.95122 207.85938 152.3106Q207.85938 151.23247 208.54688 150.60747Q209.23438 149.96684 210.375 149.96684Q211.5 149.96684 212.1875 150.60747Q212.89062 151.23247 212.89062 152.3106ZM212.0 156.29497Q212.0 155.57622 211.54688 155.13872Q211.09375 154.6856 210.35938 154.6856Q209.625 154.6856 209.17188 155.13872Q208.73438 155.57622 208.73438 156.3106Q208.73438 157.02934 209.17188 157.45122Q209.60938 157.85747 210.375 157.85747Q211.125 157.85747 211.5625 157.4356Q212.0 157.01372 212.0 156.29497ZM210.375 150.85747Q209.73438 150.85747 209.32812 151.26372Q208.9375 151.65434 208.9375 152.34184Q208.9375 152.98247 209.32812 153.38872Q209.71875 153.79497 210.35938 153.79497Q211.01562 153.79497 211.40625 153.38872Q211.79688 152.98247 211.79688 152.34184Q211.79688 151.6856 211.39062 151.27934Q210.98438 150.85747 210.375 150.85747Z" fill-rule="nonzero"/><path stroke="#4285f4" stroke-width="3.0" stroke-linejoin="round" stroke-linecap="round" d="M477.28125 165.00313L478.46875 165.00313L478.46875 165.87813L477.28125 165.87813L477.28125 167.8625L476.20312 167.8625L476.20312 165.87813L472.3125 165.87813L472.3125 165.2375L476.125 159.33125L477.28125 159.33125L477.28125 165.00313ZM473.54688 165.00313L476.20312 165.00313L476.20312 160.81563L476.0625 161.05L473.54688 165.00313ZM485.21875 159.94063L481.6875 167.8625L480.54688 167.8625L484.0625 160.22188L479.45312 160.22188L479.45312 159.33125L485.21875 159.33125L485.21875 159.94063ZM487.20312 163.58125L487.64062 159.33125L492.01562 159.33125L492.01562 160.33125L488.5625 160.33125L488.29688 162.65938Q488.9375 162.28438 489.73438 162.28438Q490.89062 162.28438 491.57812 163.06563Q492.26562 163.83125 492.26562 165.14375Q492.26562 166.45625 491.54688 167.22188Q490.84375 167.9875 489.5625 167.9875Q488.4375 167.9875 487.71875 167.3625Q487.0 166.72188 486.90625 165.6125L487.92188 165.6125Q488.03125 166.34688 488.45312 166.72188Q488.875 167.09688 489.5625 167.09688Q490.3125 167.09688 490.75 166.58125Q491.1875 166.06563 491.1875 165.15938Q491.1875 164.3 490.71875 163.78438Q490.25 163.26875 489.46875 163.26875Q488.76562 163.26875 488.35938 163.56563L488.07812 163.8L487.20312 163.58125Z" fill-rule="nonzero"/><path fill="#ffffff" d="M477.28125 165.00313L478.46875 165.00313L478.46875 165.87813L477.28125 165.87813L477.28125 167.8625L476.20312 167.8625L476.20312 165.87813L472.3125 165.87813L472.3125 165.2375L476.125 159.33125L477.28125 159.33125L477.28125 165.00313ZM473.54688 165.00313L476.20312 165.00313L476.20312 160.81563L476.0625 161.05L473.54688 165.00313ZM485.21875 159.94063L481.6875 167.8625L480.54688 167.8625L484.0625 160.22188L479.45312 160.22188L479.45312 159.33125L485.21875 159.33125L485.21875 159.94063ZM487.20312 163.58125L487.64062 159.33125L492.01562 159.33125L492.01562 160.33125L488.5625 160.33125L488.29688 162.65938Q488.9375 162.28438 489.73438 162.28438Q490.89062 162.28438 491.57812 163.06563Q492.26562 163.83125 492.26562 165.14375Q492.26562 166.45625 491.54688 167.22188Q490.84375 167.9875 489.5625 167.9875Q488.4375 167.9875 487.71875 167.3625Q487.0 166.72188 486.90625 165.6125L487.92188 165.6125Q488.03125 166.34688 488.45312 166.72188Q488.875 167.09688 489.5625 167.09688Q490.3125 167.09688 490.75 166.58125Q491.1875 166.06563 491.1875 165.15938Q491.1875 164.3 490.71875 163.78438Q490.25 163.26875 489.46875 163.26875Q488.76562 163.26875 488.35938 163.56563L488.07812 163.8L487.20312 163.58125Z" fill-rule="nonzero"/><path stroke="#ea4335" stroke-width="3.0" stroke-linejoin="round" stroke-linecap="round" d="M271.20312 152.44353L271.64062 148.19353L276.01562 148.19353L276.01562 149.19353L272.5625 149.19353L272.29688 151.52165Q272.9375 151.14665 273.73438 151.14665Q274.89062 151.14665 275.57812 151.9279Q276.26562 152.69353 276.26562 154.00603Q276.26562 155.31853 275.54688 156.08415Q274.84375 156.84978 273.5625 156.84978Q272.4375 156.84978 271.71875 156.22478Q271.0 155.58415 270.90625 154.47478L271.92188 154.47478Q272.03125 155.20915 272.45312 155.58415Q272.875 155.95915 273.5625 155.95915Q274.3125 155.95915 274.75 155.44353Q275.1875 154.9279 275.1875 154.02165Q275.1875 153.16228 274.71875 152.64665Q274.25 152.13103 273.46875 152.13103Q272.76562 152.13103 272.35938 152.4279L272.07812 152.66228L271.20312 152.44353ZM283.0625 153.08415Q283.0625 154.9904 282.40625 155.9279Q281.76562 156.84978 280.375 156.84978Q279.01562 156.84978 278.35938 155.94353Q277.70312 155.03728 277.67188 153.22478L277.67188 151.78728Q277.67188 149.89665 278.3125 148.9904Q278.96875 148.06853 280.35938 148.06853Q281.73438 148.06853 282.39062 148.95915Q283.04688 149.83415 283.0625 151.6779L283.0625 153.08415ZM281.96875 151.59978Q281.96875 150.22478 281.57812 149.59978Q281.20312 148.95915 280.35938 148.95915Q279.53125 148.95915 279.14062 149.59978Q278.76562 150.22478 278.76562 151.52165L278.76562 153.25603Q278.76562 154.63103 279.15625 155.3029Q279.5625 155.95915 280.375 155.95915Q281.17188 155.95915 281.5625 155.33415Q281.95312 154.70915 281.96875 153.38103L281.96875 151.59978ZM290.0625 153.08415Q290.0625 154.9904 289.40625 155.9279Q288.76562 156.84978 287.375 156.84978Q286.01562 156.84978 285.35938 155.94353Q284.70312 155.03728 284.67188 153.22478L284.67188 151.78728Q284.67188 149.89665 285.3125 148.9904Q285.96875 148.06853 287.35938 148.06853Q288.73438 148.06853 289.39062 148.95915Q290.04688 149.83415 290.0625 151.6779L290.0625 153.08415ZM288.96875 151.59978Q288.96875 150.22478 288.57812 149.59978Q288.20312 148.95915 287.35938 148.95915Q286.53125 148.95915 286.14062 149.59978Q285.76562 150.22478 285.76562 151.52165L285.76562 153.25603Q285.76562 154.63103 286.15625 155.3029Q286.5625 155.95915 287.375 155.95915Q288.17188 155.95915 288.5625 155.33415Q288.95312 154.70915 288.96875 153.38103L288.96875 151.59978ZM291.78125 158.4279L291.17188 158.00603Q291.71875 157.2404 291.75 156.41228L291.75 155.44353L292.8125 155.44353L292.8125 156.28728Q292.8125 156.88103 292.51562 157.47478Q292.21875 158.06853 291.78125 158.4279ZM297.26562 156.72478L296.1875 156.72478L296.1875 149.50603L294.0 150.3029L294.0 149.31853L297.10938 148.14665L297.26562 148.14665L297.26562 156.72478ZM306.21875 148.8029L302.6875 156.72478L301.54688 156.72478L305.0625 149.08415L300.45312 149.08415L300.45312 148.19353L306.21875 148.19353L306.21875 148.8029Z" fill-rule="nonzero"/><path fill="#ffffff" d="M271.20312 152.44353L271.64062 148.19353L276.01562 148.19353L276.01562 149.19353L272.5625 149.19353L272.29688 151.52165Q272.9375 151.14665 273.73438 151.14665Q274.89062 151.14665 275.57812 151.9279Q276.26562 152.69353 276.26562 154.00603Q276.26562 155.31853 275.54688 156.08415Q274.84375 156.84978 273.5625 156.84978Q272.4375 156.84978 271.71875 156.22478Q271.0 155.58415 270.90625 154.47478L271.92188 154.47478Q272.03125 155.20915 272.45312 155.58415Q272.875 155.95915 273.5625 155.95915Q274.3125 155.95915 274.75 155.44353Q275.1875 154.9279 275.1875 154.02165Q275.1875 153.16228 274.71875 152.64665Q274.25 152.13103 273.46875 152.13103Q272.76562 152.13103 272.35938 152.4279L272.07812 152.66228L271.20312 152.44353ZM283.0625 153.08415Q283.0625 154.9904 282.40625 155.9279Q281.76562 156.84978 280.375 156.84978Q279.01562 156.84978 278.35938 155.94353Q277.70312 155.03728 277.67188 153.22478L277.67188 151.78728Q277.67188 149.89665 278.3125 148.9904Q278.96875 148.06853 280.35938 148.06853Q281.73438 148.06853 282.39062 148.95915Q283.04688 149.83415 283.0625 151.6779L283.0625 153.08415ZM281.96875 151.59978Q281.96875 150.22478 281.57812 149.59978Q281.20312 148.95915 280.35938 148.95915Q279.53125 148.95915 279.14062 149.59978Q278.76562 150.22478 278.76562 151.52165L278.76562 153.25603Q278.76562 154.63103 279.15625 155.3029Q279.5625 155.95915 280.375 155.95915Q281.17188 155.95915 281.5625 155.33415Q281.95312 154.70915 281.96875 153.38103L281.96875 151.59978ZM290.0625 153.08415Q290.0625 154.9904 289.40625 155.9279Q288.76562 156.84978 287.375 156.84978Q286.01562 156.84978 285.35938 155.94353Q284.70312 155.03728 284.67188 153.22478L284.67188 151.78728Q284.67188 149.89665 285.3125 148.9904Q285.96875 148.06853 287.35938 148.06853Q288.73438 148.06853 289.39062 148.95915Q290.04688 149.83415 290.0625 151.6779L290.0625 153.08415ZM288.96875 151.59978Q288.96875 150.22478 288.57812 149.59978Q288.20312 148.95915 287.35938 148.95915Q286.53125 148.95915 286.14062 149.59978Q285.76562 150.22478 285.76562 151.52165L285.76562 153.25603Q285.76562 154.63103 286.15625 155.3029Q286.5625 155.95915 287.375 155.95915Q288.17188 155.95915 288.5625 155.33415Q288.95312 154.70915 288.96875 153.38103L288.96875 151.59978ZM291.78125 158.4279L291.17188 158.00603Q291.71875 157.2404 291.75 156.41228L291.75 155.44353L292.8125 155.44353L292.8125 156.28728Q292.8125 156.88103 292.51562 157.47478Q292.21875 158.06853 291.78125 158.4279ZM297.26562 156.72478L296.1875 156.72478L296.1875 149.50603L294.0 150.3029L294.0 149.31853L297.10938 148.14665L297.26562 148.14665L297.26562 156.72478ZM306.21875 148.8029L302.6875 156.72478L301.54688 156.72478L305.0625 149.08415L300.45312 149.08415L300.45312 148.19353L306.21875 148.19353L306.21875 148.8029Z" fill-rule="nonzero"/><path stroke="#ea4335" stroke-width="3.0" stroke-linejoin="round" stroke-linecap="round" d="M570.28125 160.57812L571.46875 160.57812L571.46875 161.45312L570.28125 161.45312L570.28125 163.4375L569.2031 163.4375L569.2031 161.45312L565.3125 161.45312L565.3125 160.8125L569.125 154.90625L570.28125 154.90625L570.28125 160.57812ZM566.5469 160.57812L569.2031 160.57812L569.2031 156.39062L569.0625 156.625L566.5469 160.57812ZM577.8906 157.125Q577.8906 157.76562 577.5469 158.26562Q577.2031 158.76562 576.6406 159.04688Q577.2969 159.32812 577.6875 159.89062Q578.0781 160.4375 578.0781 161.14062Q578.0781 162.23438 577.3281 162.90625Q576.59375 163.5625 575.375 163.5625Q574.1406 163.5625 573.3906 162.90625Q572.65625 162.23438 572.65625 161.14062Q572.65625 160.4375 573.03125 159.89062Q573.40625 159.32812 574.0781 159.04688Q573.5156 158.76562 573.1875 158.26562Q572.8594 157.76562 572.8594 157.125Q572.8594 156.04688 573.5469 155.42188Q574.2344 154.78125 575.375 154.78125Q576.5 154.78125 577.1875 155.42188Q577.8906 156.04688 577.8906 157.125ZM577.0 161.10938Q577.0 160.39062 576.5469 159.95312Q576.09375 159.5 575.3594 159.5Q574.625 159.5 574.1719 159.95312Q573.7344 160.39062 573.7344 161.125Q573.7344 161.84375 574.1719 162.26562Q574.6094 162.67188 575.375 162.67188Q576.125 162.67188 576.5625 162.25Q577.0 161.82812 577.0 161.10938ZM575.375 155.67188Q574.7344 155.67188 574.3281 156.07812Q573.9375 156.46875 573.9375 157.15625Q573.9375 157.79688 574.3281 158.20312Q574.71875 158.60938 575.3594 158.60938Q576.0156 158.60938 576.40625 158.20312Q576.7969 157.79688 576.7969 157.15625Q576.7969 156.5 576.3906 156.09375Q575.9844 155.67188 575.375 155.67188ZM580.2031 159.15625L580.6406 154.90625L585.0156 154.90625L585.0156 155.90625L581.5625 155.90625L581.2969 158.23438Q581.9375 157.85938 582.7344 157.85938Q583.8906 157.85938 584.5781 158.64062Q585.2656 159.40625 585.2656 160.71875Q585.2656 162.03125 584.5469 162.79688Q583.84375 163.5625 582.5625 163.5625Q581.4375 163.5625 580.71875 162.9375Q580.0 162.29688 579.90625 161.1875L580.9219 161.1875Q581.03125 161.92188 581.4531 162.29688Q581.875 162.67188 582.5625 162.67188Q583.3125 162.67188 583.75 162.15625Q584.1875 161.64062 584.1875 160.73438Q584.1875 159.875 583.71875 159.35938Q583.25 158.84375 582.46875 158.84375Q581.7656 158.84375 581.3594 159.14062L581.0781 159.375L580.2031 159.15625Z" fill-rule="nonzero"/><path fill="#ffffff" d="M570.28125 160.57812L571.46875 160.57812L571.46875 161.45312L570.28125 161.45312L570.28125 163.4375L569.2031 163.4375L569.2031 161.45312L565.3125 161.45312L565.3125 160.8125L569.125 154.90625L570.28125 154.90625L570.28125 160.57812ZM566.5469 160.57812L569.2031 160.57812L569.2031 156.39062L569.0625 156.625L566.5469 160.57812ZM577.8906 157.125Q577.8906 157.76562 577.5469 158.26562Q577.2031 158.76562 576.6406 159.04688Q577.2969 159.32812 577.6875 159.89062Q578.0781 160.4375 578.0781 161.14062Q578.0781 162.23438 577.3281 162.90625Q576.59375 163.5625 575.375 163.5625Q574.1406 163.5625 573.3906 162.90625Q572.65625 162.23438 572.65625 161.14062Q572.65625 160.4375 573.03125 159.89062Q573.40625 159.32812 574.0781 159.04688Q573.5156 158.76562 573.1875 158.26562Q572.8594 157.76562 572.8594 157.125Q572.8594 156.04688 573.5469 155.42188Q574.2344 154.78125 575.375 154.78125Q576.5 154.78125 577.1875 155.42188Q577.8906 156.04688 577.8906 157.125ZM577.0 161.10938Q577.0 160.39062 576.5469 159.95312Q576.09375 159.5 575.3594 159.5Q574.625 159.5 574.1719 159.95312Q573.7344 160.39062 573.7344 161.125Q573.7344 161.84375 574.1719 162.26562Q574.6094 162.67188 575.375 162.67188Q576.125 162.67188 576.5625 162.25Q577.0 161.82812 577.0 161.10938ZM575.375 155.67188Q574.7344 155.67188 574.3281 156.07812Q573.9375 156.46875 573.9375 157.15625Q573.9375 157.79688 574.3281 158.20312Q574.71875 158.60938 575.3594 158.60938Q576.0156 158.60938 576.40625 158.20312Q576.7969 157.79688 576.7969 157.15625Q576.7969 156.5 576.3906 156.09375Q575.9844 155.67188 575.375 155.67188ZM580.2031 159.15625L580.6406 154.90625L585.0156 154.90625L585.0156 155.90625L581.5625 155.90625L581.2969 158.23438Q581.9375 157.85938 582.7344 157.85938Q583.8906 157.85938 584.5781 158.64062Q585.2656 159.40625 585.2656 160.71875Q585.2656 162.03125 584.5469 162.79688Q583.84375 163.5625 582.5625 163.5625Q581.4375 163.5625 580.71875 162.9375Q580.0 162.29688 579.90625 161.1875L580.9219 161.1875Q581.03125 161.92188 581.4531 162.29688Q581.875 162.67188 582.5625 162.67188Q583.3125 162.67188 583.75 162.15625Q584.1875 161.64062 584.1875 160.73438Q584.1875 159.875 583.71875 159.35938Q583.25 158.84375 582.46875 158.84375Q581.7656 158.84375 581.3594 159.14062L581.0781 159.375L580.2031 159.15625Z" fill-rule="nonzero"/><path fill="#000000" d="M300.95312 410.25L300.95312 401.65625L307.15625 401.65625L307.15625 402.67188L302.09375 402.67188L302.09375 405.29688L306.84375 405.29688L306.84375 406.3125L302.09375 406.3125L302.09375 409.23438L307.35938 409.23438L307.35938 410.25L300.95312 410.25ZM308.79688 410.25L308.79688 404.03125L309.73438 404.03125L309.73438 404.90625Q310.42188 403.89062 311.71875 403.89062Q312.28125 403.89062 312.75 404.09375Q313.23438 404.29688 313.46875 404.625Q313.70312 404.95312 313.79688 405.39062Q313.84375 405.6875 313.84375 406.42188L313.84375 410.25L312.79688 410.25L312.79688 406.46875Q312.79688 405.8125 312.67188 405.5Q312.54688 405.1875 312.23438 405.0Q311.92188 404.79688 311.5 404.79688Q310.82812 404.79688 310.32812 405.23438Q309.84375 405.65625 309.84375 406.84375L309.84375 410.25L308.79688 410.25ZM315.76562 410.25L315.76562 401.65625L316.82812 401.65625L316.82812 410.25L315.76562 410.25ZM322.85938 409.48438Q322.26562 409.98438 321.71875 410.1875Q321.1875 410.39062 320.5625 410.39062Q319.53125 410.39062 318.98438 409.89062Q318.4375 409.39062 318.4375 408.60938Q318.4375 408.15625 318.64062 407.78125Q318.84375 407.39062 319.1875 407.17188Q319.53125 406.9375 319.95312 406.82812Q320.25 406.73438 320.89062 406.65625Q322.15625 406.51562 322.76562 406.29688Q322.76562 406.07812 322.76562 406.03125Q322.76562 405.375 322.46875 405.10938Q322.0625 404.76562 321.26562 404.76562Q320.53125 404.76562 320.17188 405.03125Q319.8125 405.28125 319.64062 405.9375L318.60938 405.79688Q318.75 405.14062 319.07812 404.73438Q319.40625 404.32812 320.01562 404.10938Q320.625 403.89062 321.42188 403.89062Q322.21875 403.89062 322.71875 404.07812Q323.21875 404.26562 323.45312 404.54688Q323.6875 404.82812 323.78125 405.26562Q323.82812 405.53125 323.82812 406.23438L323.82812 407.64062Q323.82812 409.10938 323.89062 409.5Q323.96875 409.89062 324.17188 410.25L323.0625 410.25Q322.90625 409.92188 322.85938 409.48438ZM322.76562 407.125Q322.1875 407.35938 321.04688 407.53125Q320.39062 407.625 320.125 407.75Q319.85938 407.85938 319.70312 408.07812Q319.5625 408.29688 319.5625 408.57812Q319.5625 409.0 319.875 409.28125Q320.20312 409.5625 320.8125 409.5625Q321.42188 409.5625 321.89062 409.29688Q322.375 409.03125 322.59375 408.5625Q322.76562 408.20312 322.76562 407.51562L322.76562 407.125ZM329.85938 407.96875L330.89062 408.10938Q330.71875 409.17188 330.01562 409.78125Q329.3125 410.39062 328.29688 410.39062Q327.01562 410.39062 326.23438 409.5625Q325.46875 408.71875 325.46875 407.15625Q325.46875 406.15625 325.79688 405.40625Q326.14062 404.64062 326.8125 404.26562Q327.5 403.89062 328.3125 403.89062Q329.3125 403.89062 329.95312 404.40625Q330.60938 404.90625 330.79688 405.85938L329.76562 406.01562Q329.625 405.39062 329.25 405.07812Q328.875 404.75 328.34375 404.75Q327.54688 404.75 327.04688 405.32812Q326.54688 405.89062 326.54688 407.125Q326.54688 408.39062 327.03125 408.95312Q327.51562 409.51562 328.28125 409.51562Q328.90625 409.51562 329.3125 409.14062Q329.73438 408.76562 329.85938 407.96875ZM336.04688 408.25L337.14062 408.375Q336.89062 409.32812 336.1875 409.85938Q335.48438 410.39062 334.40625 410.39062Q333.04688 410.39062 332.23438 409.54688Q331.4375 408.70312 331.4375 407.1875Q331.4375 405.625 332.25 404.76562Q333.0625 403.89062 334.34375 403.89062Q335.59375 403.89062 336.375 404.73438Q337.17188 405.57812 337.17188 407.125Q337.17188 407.21875 337.17188 407.40625L332.53125 407.40625Q332.59375 408.4375 333.10938 408.98438Q333.625 409.51562 334.40625 409.51562Q334.98438 409.51562 335.39062 409.21875Q335.8125 408.90625 336.04688 408.25ZM332.59375 406.54688L336.0625 406.54688Q336.0 405.75 335.67188 405.35938Q335.15625 404.75 334.35938 404.75Q333.625 404.75 333.125 405.23438Q332.64062 405.71875 332.59375 406.54688ZM338.375 408.39062L339.40625 408.23438Q339.5 408.85938 339.89062 409.1875Q340.29688 409.51562 341.03125 409.51562Q341.75 409.51562 342.09375 409.23438Q342.45312 408.9375 342.45312 408.53125Q342.45312 408.17188 342.14062 407.96875Q341.92188 407.82812 341.0625 407.60938Q339.90625 407.3125 339.45312 407.10938Q339.01562 406.89062 338.78125 406.51562Q338.54688 406.14062 338.54688 405.67188Q338.54688 405.26562 338.73438 404.90625Q338.92188 404.54688 339.25 404.3125Q339.5 404.14062 339.92188 404.01562Q340.34375 403.89062 340.84375 403.89062Q341.5625 403.89062 342.10938 404.10938Q342.67188 404.3125 342.9375 404.67188Q343.20312 405.03125 343.29688 405.625L342.26562 405.76562Q342.20312 405.29688 341.85938 405.03125Q341.53125 404.75 340.90625 404.75Q340.1875 404.75 339.875 405.0Q339.5625 405.23438 339.5625 405.5625Q339.5625 405.76562 339.6875 405.92188Q339.82812 406.09375 340.09375 406.20312Q340.25 406.26562 341.03125 406.46875Q342.15625 406.78125 342.59375 406.96875Q343.03125 407.15625 343.28125 407.51562Q343.53125 407.875 343.53125 408.42188Q343.53125 408.95312 343.21875 409.42188Q342.92188 409.875 342.34375 410.14062Q341.76562 410.39062 341.03125 410.39062Q339.8125 410.39062 339.17188 409.89062Q338.54688 409.375 338.375 408.39062ZM348.5 408.0L349.60938 407.90625Q349.73438 408.71875 350.17188 409.125Q350.625 409.53125 351.26562 409.53125Q352.01562 409.53125 352.54688 408.95312Q353.07812 408.375 353.07812 407.4375Q353.07812 406.53125 352.5625 406.01562Q352.0625 405.48438 351.23438 405.48438Q350.73438 405.48438 350.3125 405.71875Q349.90625 405.95312 349.67188 406.3125L348.6875 406.1875L349.51562 401.78125L353.79688 401.78125L353.79688 402.78125L350.35938 402.78125L349.90625 405.09375Q350.67188 404.54688 351.51562 404.54688Q352.64062 404.54688 353.40625 405.32812Q354.1875 406.10938 354.1875 407.34375Q354.1875 408.5 353.51562 409.35938Q352.6875 410.39062 351.26562 410.39062Q350.09375 410.39062 349.34375 409.73438Q348.60938 409.07812 348.5 408.0ZM355.5 406.01562Q355.5 404.48438 355.8125 403.5625Q356.125 402.625 356.73438 402.125Q357.35938 401.625 358.29688 401.625Q358.98438 401.625 359.5 401.90625Q360.03125 402.1875 360.375 402.71875Q360.71875 403.23438 360.90625 403.98438Q361.09375 404.73438 361.09375 406.01562Q361.09375 407.53125 360.78125 408.45312Q360.48438 409.375 359.85938 409.89062Q359.25 410.39062 358.29688 410.39062Q357.0625 410.39062 356.34375 409.5Q355.5 408.4375 355.5 406.01562ZM356.57812 406.01562Q356.57812 408.125 357.07812 408.82812Q357.57812 409.53125 358.29688 409.53125Q359.03125 409.53125 359.51562 408.82812Q360.01562 408.125 360.01562 406.01562Q360.01562 403.89062 359.51562 403.20312Q359.03125 402.5 358.28125 402.5Q357.5625 402.5 357.125 403.10938Q356.57812 403.89062 356.57812 406.01562ZM362.5 406.01562Q362.5 404.48438 362.8125 403.5625Q363.125 402.625 363.73438 402.125Q364.35938 401.625 365.29688 401.625Q365.98438 401.625 366.5 401.90625Q367.03125 402.1875 367.375 402.71875Q367.71875 403.23438 367.90625 403.98438Q368.09375 404.73438 368.09375 406.01562Q368.09375 407.53125 367.78125 408.45312Q367.48438 409.375 366.85938 409.89062Q366.25 410.39062 365.29688 410.39062Q364.0625 410.39062 363.34375 409.5Q362.5 408.4375 362.5 406.01562ZM363.57812 406.01562Q363.57812 408.125 364.07812 408.82812Q364.57812 409.53125 365.29688 409.53125Q366.03125 409.53125 366.51562 408.82812Q367.01562 408.125 367.01562 406.01562Q367.01562 403.89062 366.51562 403.20312Q366.03125 402.5 365.28125 402.5Q364.5625 402.5 364.125 403.10938Q363.57812 403.89062 363.57812 406.01562ZM372.89062 410.25L372.89062 401.65625L374.60938 401.65625L376.64062 407.73438Q376.92188 408.59375 377.04688 409.01562Q377.1875 408.54688 377.5 407.64062L379.5625 401.65625L381.09375 401.65625L381.09375 410.25L380.0 410.25L380.0 403.0625L377.5 410.25L376.46875 410.25L373.98438 402.9375L373.98438 410.25L372.89062 410.25ZM382.76562 410.25L381.78125 410.25L381.78125 401.65625L382.84375 401.65625L382.84375 404.71875Q383.51562 403.89062 384.54688 403.89062Q385.125 403.89062 385.625 404.125Q386.14062 404.34375 386.46875 404.76562Q386.8125 405.1875 387.0 405.78125Q387.1875 406.375 387.1875 407.04688Q387.1875 408.64062 386.39062 409.51562Q385.59375 410.39062 384.5 410.39062Q383.39062 410.39062 382.76562 409.46875L382.76562 410.25ZM382.75 407.09375Q382.75 408.20312 383.0625 408.70312Q383.5625 409.51562 384.40625 409.51562Q385.09375 409.51562 385.59375 408.92188Q386.10938 408.32812 386.10938 407.125Q386.10938 405.90625 385.625 405.32812Q385.14062 404.75 384.45312 404.75Q383.76562 404.75 383.25 405.35938Q382.75 405.95312 382.75 407.09375ZM388.79688 412.64062L388.79688 404.03125L389.75 404.03125L389.75 404.82812Q390.09375 404.35938 390.51562 404.125Q390.95312 403.89062 391.5625 403.89062Q392.35938 403.89062 392.96875 404.29688Q393.57812 404.70312 393.875 405.45312Q394.1875 406.20312 394.1875 407.09375Q394.1875 408.04688 393.84375 408.8125Q393.51562 409.57812 392.85938 409.98438Q392.20312 410.39062 391.48438 410.39062Q390.95312 410.39062 390.53125 410.17188Q390.10938 409.9375 389.84375 409.60938L389.84375 412.64062L388.79688 412.64062ZM389.75 407.17188Q389.75 408.375 390.23438 408.95312Q390.71875 409.51562 391.40625 409.51562Q392.10938 409.51562 392.60938 408.92188Q393.10938 408.32812 393.10938 407.07812Q393.10938 405.89062 392.625 405.3125Q392.14062 404.71875 391.45312 404.71875Q390.78125 404.71875 390.26562 405.34375Q389.75 405.96875 389.75 407.17188ZM395.375 408.39062L396.40625 408.23438Q396.5 408.85938 396.89062 409.1875Q397.29688 409.51562 398.03125 409.51562Q398.75 409.51562 399.09375 409.23438Q399.45312 408.9375 399.45312 408.53125Q399.45312 408.17188 399.14062 407.96875Q398.92188 407.82812 398.0625 407.60938Q396.90625 407.3125 396.45312 407.10938Q396.01562 406.89062 395.78125 406.51562Q395.54688 406.14062 395.54688 405.67188Q395.54688 405.26562 395.73438 404.90625Q395.92188 404.54688 396.25 404.3125Q396.5 404.14062 396.92188 404.01562Q397.34375 403.89062 397.84375 403.89062Q398.5625 403.89062 399.10938 404.10938Q399.67188 404.3125 399.9375 404.67188Q400.20312 405.03125 400.29688 405.625L399.26562 405.76562Q399.20312 405.29688 398.85938 405.03125Q398.53125 404.75 397.90625 404.75Q397.1875 404.75 396.875 405.0Q396.5625 405.23438 396.5625 405.5625Q396.5625 405.76562 396.6875 405.92188Q396.82812 406.09375 397.09375 406.20312Q397.25 406.26562 398.03125 406.46875Q399.15625 406.78125 399.59375 406.96875Q400.03125 407.15625 400.28125 407.51562Q400.53125 407.875 400.53125 408.42188Q400.53125 408.95312 400.21875 409.42188Q399.92188 409.875 399.34375 410.14062Q398.76562 410.39062 398.03125 410.39062Q396.8125 410.39062 396.17188 409.89062Q395.54688 409.375 395.375 408.39062ZM404.96875 407.5625L404.96875 406.71875L411.65625 406.71875L411.65625 407.5625L404.96875 407.5625ZM419.46875 410.25L418.42188 410.25L418.42188 403.53125Q418.03125 403.89062 417.40625 404.26562Q416.79688 404.625 416.3125 404.79688L416.3125 403.78125Q417.1875 403.35938 417.84375 402.78125Q418.51562 402.1875 418.79688 401.625L419.46875 401.625L419.46875 410.25ZM422.5 408.0L423.60938 407.90625Q423.73438 408.71875 424.17188 409.125Q424.625 409.53125 425.26562 409.53125Q426.01562 409.53125 426.54688 408.95312Q427.07812 408.375 427.07812 407.4375Q427.07812 406.53125 426.5625 406.01562Q426.0625 405.48438 425.23438 405.48438Q424.73438 405.48438 424.3125 405.71875Q423.90625 405.95312 423.67188 406.3125L422.6875 406.1875L423.51562 401.78125L427.79688 401.78125L427.79688 402.78125L424.35938 402.78125L423.90625 405.09375Q424.67188 404.54688 425.51562 404.54688Q426.64062 404.54688 427.40625 405.32812Q428.1875 406.10938 428.1875 407.34375Q428.1875 408.5 427.51562 409.35938Q426.6875 410.39062 425.26562 410.39062Q424.09375 410.39062 423.34375 409.73438Q422.60938 409.07812 422.5 408.0ZM429.5 406.01562Q429.5 404.48438 429.8125 403.5625Q430.125 402.625 430.73438 402.125Q431.35938 401.625 432.29688 401.625Q432.98438 401.625 433.5 401.90625Q434.03125 402.1875 434.375 402.71875Q434.71875 403.23438 434.90625 403.98438Q435.09375 404.73438 435.09375 406.01562Q435.09375 407.53125 434.78125 408.45312Q434.48438 409.375 433.85938 409.89062Q433.25 410.39062 432.29688 410.39062Q431.0625 410.39062 430.34375 409.5Q429.5 408.4375 429.5 406.01562ZM430.57812 406.01562Q430.57812 408.125 431.07812 408.82812Q431.57812 409.53125 432.29688 409.53125Q433.03125 409.53125 433.51562 408.82812Q434.01562 408.125 434.01562 406.01562Q434.01562 403.89062 433.51562 403.20312Q433.03125 402.5 432.28125 402.5Q431.5625 402.5 431.125 403.10938Q430.57812 403.89062 430.57812 406.01562ZM436.5 406.01562Q436.5 404.48438 436.8125 403.5625Q437.125 402.625 437.73438 402.125Q438.35938 401.625 439.29688 401.625Q439.98438 401.625 440.5 401.90625Q441.03125 402.1875 441.375 402.71875Q441.71875 403.23438 441.90625 403.98438Q442.09375 404.73438 442.09375 406.01562Q442.09375 407.53125 441.78125 408.45312Q441.48438 409.375 440.85938 409.89062Q440.25 410.39062 439.29688 410.39062Q438.0625 410.39062 437.34375 409.5Q436.5 408.4375 436.5 406.01562ZM437.57812 406.01562Q437.57812 408.125 438.07812 408.82812Q438.57812 409.53125 439.29688 409.53125Q440.03125 409.53125 440.51562 408.82812Q441.01562 408.125 441.01562 406.01562Q441.01562 403.89062 440.51562 403.20312Q440.03125 402.5 439.28125 402.5Q438.5625 402.5 438.125 403.10938Q437.57812 403.89062 437.57812 406.01562ZM446.89062 410.25L446.89062 401.65625L448.60938 401.65625L450.64062 407.73438Q450.92188 408.59375 451.04688 409.01562Q451.1875 408.54688 451.5 407.64062L453.5625 401.65625L455.09375 401.65625L455.09375 410.25L454.0 410.25L454.0 403.0625L451.5 410.25L450.46875 410.25L447.98438 402.9375L447.98438 410.25L446.89062 410.25ZM458.10938 410.25L458.10938 402.67188L455.28125 402.67188L455.28125 401.65625L462.09375 401.65625L462.09375 402.67188L459.25 402.67188L459.25 410.25L458.10938 410.25ZM468.5625 401.65625L469.70312 401.65625L469.70312 406.625Q469.70312 407.92188 469.40625 408.6875Q469.10938 409.4375 468.34375 409.92188Q467.57812 410.39062 466.34375 410.39062Q465.14062 410.39062 464.35938 409.98438Q463.59375 409.5625 463.26562 408.78125Q462.9375 407.98438 462.9375 406.625L462.9375 401.65625L464.07812 401.65625L464.07812 406.60938Q464.07812 407.73438 464.28125 408.26562Q464.5 408.79688 465.0 409.09375Q465.51562 409.375 466.25 409.375Q467.5 409.375 468.03125 408.8125Q468.5625 408.23438 468.5625 406.60938L468.5625 401.65625Z" fill-rule="nonzero"/><path fill="#000000" d="M36.25 361.01562Q36.25 359.48438 36.5625 358.5625Q36.875 357.625 37.484375 357.125Q38.109375 356.625 39.046875 356.625Q39.734375 356.625 40.25 356.90625Q40.78125 357.1875 41.125 357.71875Q41.46875 358.23438 41.65625 358.98438Q41.84375 359.73438 41.84375 361.01562Q41.84375 362.53125 41.53125 363.45312Q41.234375 364.375 40.609375 364.89062Q40.0 365.39062 39.046875 365.39062Q37.8125 365.39062 37.09375 364.5Q36.25 363.4375 36.25 361.01562ZM37.328125 361.01562Q37.328125 363.125 37.828125 363.82812Q38.328125 364.53125 39.046875 364.53125Q39.78125 364.53125 40.265625 363.82812Q40.765625 363.125 40.765625 361.01562Q40.765625 358.89062 40.265625 358.20312Q39.78125 357.5 39.03125 357.5Q38.3125 357.5 37.875 358.10938Q37.328125 358.89062 37.328125 361.01562Z" fill-rule="nonzero"/><path fill="#000000" d="M27.796875 275.73438L27.796875 276.75L22.109375 276.75Q22.109375 276.375 22.234375 276.01562Q22.453125 275.4375 22.921875 274.875Q23.40625 274.3125 24.3125 273.57812Q25.71875 272.42188 26.203125 271.75Q26.703125 271.07812 26.703125 270.48438Q26.703125 269.85938 26.25 269.4375Q25.796875 269.0 25.078125 269.0Q24.3125 269.0 23.859375 269.45312Q23.40625 269.90625 23.390625 270.71875L22.3125 270.60938Q22.421875 269.39062 23.140625 268.76562Q23.875 268.125 25.109375 268.125Q26.34375 268.125 27.0625 268.8125Q27.78125 269.5 27.78125 270.51562Q27.78125 271.03125 27.5625 271.53125Q27.359375 272.01562 26.859375 272.57812Q26.375 273.125 25.25 274.07812Q24.296875 274.875 24.015625 275.17188Q23.75 275.45312 23.578125 275.73438L27.796875 275.73438ZM29.25 272.51562Q29.25 270.98438 29.5625 270.0625Q29.875 269.125 30.484375 268.625Q31.109375 268.125 32.046875 268.125Q32.734375 268.125 33.25 268.40625Q33.78125 268.6875 34.125 269.21875Q34.46875 269.73438 34.65625 270.48438Q34.84375 271.23438 34.84375 272.51562Q34.84375 274.03125 34.53125 274.95312Q34.234375 275.875 33.609375 276.39062Q33.0 276.89062 32.046875 276.89062Q30.8125 276.89062 30.09375 276.0Q29.25 274.9375 29.25 272.51562ZM30.328125 272.51562Q30.328125 274.625 30.828125 275.32812Q31.328125 276.03125 32.046875 276.03125Q32.78125 276.03125 33.265625 275.32812Q33.765625 274.625 33.765625 272.51562Q33.765625 270.39062 33.265625 269.70312Q32.78125 269.0 32.03125 269.0Q31.3125 269.0 30.875 269.60938Q30.328125 270.39062 30.328125 272.51562ZM36.25 272.51562Q36.25 270.98438 36.5625 270.0625Q36.875 269.125 37.484375 268.625Q38.109375 268.125 39.046875 268.125Q39.734375 268.125 40.25 268.40625Q40.78125 268.6875 41.125 269.21875Q41.46875 269.73438 41.65625 270.48438Q41.84375 271.23438 41.84375 272.51562Q41.84375 274.03125 41.53125 274.95312Q41.234375 275.875 40.609375 276.39062Q40.0 276.89062 39.046875 276.89062Q37.8125 276.89062 37.09375 276.0Q36.25 274.9375 36.25 272.51562ZM37.328125 272.51562Q37.328125 274.625 37.828125 275.32812Q38.328125 276.03125 39.046875 276.03125Q39.78125 276.03125 40.265625 275.32812Q40.765625 274.625 40.765625 272.51562Q40.765625 270.39062 40.265625 269.70312Q39.78125 269.0 39.03125 269.0Q38.3125 269.0 37.875 269.60938Q37.328125 270.39062 37.328125 272.51562Z" fill-rule="nonzero"/><path fill="#000000" d="M25.625 188.25L25.625 186.1875L21.90625 186.1875L21.90625 185.21875L25.828125 179.65625L26.6875 179.65625L26.6875 185.21875L27.84375 185.21875L27.84375 186.1875L26.6875 186.1875L26.6875 188.25L25.625 188.25ZM25.625 185.21875L25.625 181.35938L22.9375 185.21875L25.625 185.21875ZM29.25 184.01562Q29.25 182.48438 29.5625 181.5625Q29.875 180.625 30.484375 180.125Q31.109375 179.625 32.046875 179.625Q32.734375 179.625 33.25 179.90625Q33.78125 180.1875 34.125 180.71875Q34.46875 181.23438 34.65625 181.98438Q34.84375 182.73438 34.84375 184.01562Q34.84375 185.53125 34.53125 186.45312Q34.234375 187.375 33.609375 187.89062Q33.0 188.39062 32.046875 188.39062Q30.8125 188.39062 30.09375 187.5Q29.25 186.4375 29.25 184.01562ZM30.328125 184.01562Q30.328125 186.125 30.828125 186.82812Q31.328125 187.53125 32.046875 187.53125Q32.78125 187.53125 33.265625 186.82812Q33.765625 186.125 33.765625 184.01562Q33.765625 181.89062 33.265625 181.20312Q32.78125 180.5 32.03125 180.5Q31.3125 180.5 30.875 181.10938Q30.328125 181.89062 30.328125 184.01562ZM36.25 184.01562Q36.25 182.48438 36.5625 181.5625Q36.875 180.625 37.484375 180.125Q38.109375 179.625 39.046875 179.625Q39.734375 179.625 40.25 179.90625Q40.78125 180.1875 41.125 180.71875Q41.46875 181.23438 41.65625 181.98438Q41.84375 182.73438 41.84375 184.01562Q41.84375 185.53125 41.53125 186.45312Q41.234375 187.375 40.609375 187.89062Q40.0 188.39062 39.046875 188.39062Q37.8125 188.39062 37.09375 187.5Q36.25 186.4375 36.25 184.01562ZM37.328125 184.01562Q37.328125 186.125 37.828125 186.82812Q38.328125 187.53125 39.046875 187.53125Q39.78125 187.53125 40.265625 186.82812Q40.765625 186.125 40.765625 184.01562Q40.765625 181.89062 40.265625 181.20312Q39.78125 180.5 39.03125 180.5Q38.3125 180.5 37.875 181.10938Q37.328125 181.89062 37.328125 184.01562Z" fill-rule="nonzero"/><path fill="#000000" d="M27.71875 93.265625L26.671875 93.34375Q26.53125 92.71875 26.28125 92.4375Q25.84375 91.984375 25.21875 91.984375Q24.71875 91.984375 24.328125 92.265625Q23.84375 92.640625 23.546875 93.34375Q23.265625 94.03125 23.25 95.3125Q23.625 94.734375 24.171875 94.453125Q24.734375 94.171875 25.34375 94.171875Q26.390625 94.171875 27.125 94.953125Q27.875 95.734375 27.875 96.953125Q27.875 97.765625 27.515625 98.46875Q27.171875 99.15625 26.5625 99.53125Q25.953125 99.890625 25.1875 99.890625Q23.859375 99.890625 23.03125 98.921875Q22.203125 97.953125 22.203125 95.734375Q22.203125 93.234375 23.125 92.109375Q23.921875 91.125 25.28125 91.125Q26.296875 91.125 26.9375 91.703125Q27.59375 92.265625 27.71875 93.265625ZM23.421875 96.96875Q23.421875 97.515625 23.640625 98.015625Q23.875 98.5 24.28125 98.765625Q24.703125 99.03125 25.171875 99.03125Q25.828125 99.03125 26.3125 98.5Q26.796875 97.953125 26.796875 97.03125Q26.796875 96.140625 26.3125 95.625Q25.84375 95.109375 25.125 95.109375Q24.40625 95.109375 23.90625 95.625Q23.421875 96.140625 23.421875 96.96875ZM29.25 95.515625Q29.25 93.984375 29.5625 93.0625Q29.875 92.125 30.484375 91.625Q31.109375 91.125 32.046875 91.125Q32.734375 91.125 33.25 91.40625Q33.78125 91.6875 34.125 92.21875Q34.46875 92.734375 34.65625 93.484375Q34.84375 94.234375 34.84375 95.515625Q34.84375 97.03125 34.53125 97.953125Q34.234375 98.875 33.609375 99.390625Q33.0 99.890625 32.046875 99.890625Q30.8125 99.890625 30.09375 99.0Q29.25 97.9375 29.25 95.515625ZM30.328125 95.515625Q30.328125 97.625 30.828125 98.328125Q31.328125 99.03125 32.046875 99.03125Q32.78125 99.03125 33.265625 98.328125Q33.765625 97.625 33.765625 95.515625Q33.765625 93.390625 33.265625 92.703125Q32.78125 92.0 32.03125 92.0Q31.3125 92.0 30.875 92.609375Q30.328125 93.390625 30.328125 95.515625ZM36.25 95.515625Q36.25 93.984375 36.5625 93.0625Q36.875 92.125 37.484375 91.625Q38.109375 91.125 39.046875 91.125Q39.734375 91.125 40.25 91.40625Q40.78125 91.6875 41.125 92.21875Q41.46875 92.734375 41.65625 93.484375Q41.84375 94.234375 41.84375 95.515625Q41.84375 97.03125 41.53125 97.953125Q41.234375 98.875 40.609375 99.390625Q40.0 99.890625 39.046875 99.890625Q37.8125 99.890625 37.09375 99.0Q36.25 97.9375 36.25 95.515625ZM37.328125 95.515625Q37.328125 97.625 37.828125 98.328125Q38.328125 99.03125 39.046875 99.03125Q39.78125 99.03125 40.265625 98.328125Q40.765625 97.625 40.765625 95.515625Q40.765625 93.390625 40.265625 92.703125Q39.78125 92.0 39.03125 92.0Q38.3125 92.0 37.875 92.609375Q37.328125 93.390625 37.328125 95.515625Z" fill-rule="nonzero"/><path fill="#000000" d="M230.13963 378.25L230.13963 369.65625L233.95213 369.65625Q235.10838 369.65625 235.70213 369.89062Q236.29588 370.125 236.65526 370.71875Q237.01463 371.29688 237.01463 372.0Q237.01463 372.92188 236.42088 373.54688Q235.82713 374.17188 234.59276 374.34375Q235.04588 374.5625 235.28026 374.76562Q235.78026 375.21875 236.21776 375.90625L237.71776 378.25L236.28026 378.25L235.15526 376.46875Q234.65526 375.6875 234.32713 375.28125Q234.01463 374.875 233.74901 374.71875Q233.49901 374.54688 233.23338 374.46875Q233.04588 374.4375 232.60838 374.4375L231.28026 374.4375L231.28026 378.25L230.13963 378.25ZM231.28026 373.45312L233.73338 373.45312Q234.49901 373.45312 234.93651 373.29688Q235.38963 373.125 235.60838 372.78125Q235.84276 372.42188 235.84276 372.0Q235.84276 371.39062 235.38963 371.0Q234.95213 370.60938 233.99901 370.60938L231.28026 370.60938L231.28026 373.45312ZM243.24901 376.25L244.34276 376.375Q244.09276 377.32812 243.38963 377.85938Q242.68651 378.39062 241.60838 378.39062Q240.24901 378.39062 239.43651 377.54688Q238.63963 376.70312 238.63963 375.1875Q238.63963 373.625 239.45213 372.76562Q240.26463 371.89062 241.54588 371.89062Q242.79588 371.89062 243.57713 372.73438Q244.37401 373.57812 244.37401 375.125Q244.37401 375.21875 244.37401 375.40625L239.73338 375.40625Q239.79588 376.4375 240.31151 376.98438Q240.82713 377.51562 241.60838 377.51562Q242.18651 377.51562 242.59276 377.21875Q243.01463 376.90625 243.24901 376.25ZM239.79588 374.54688L243.26463 374.54688Q243.20213 373.75 242.87401 373.35938Q242.35838 372.75 241.56151 372.75Q240.82713 372.75 240.32713 373.23438Q239.84276 373.71875 239.79588 374.54688ZM250.06151 377.48438Q249.46776 377.98438 248.92088 378.1875Q248.38963 378.39062 247.76463 378.39062Q246.73338 378.39062 246.18651 377.89062Q245.63963 377.39062 245.63963 376.60938Q245.63963 376.15625 245.84276 375.78125Q246.04588 375.39062 246.38963 375.17188Q246.73338 374.9375 247.15526 374.82812Q247.45213 374.73438 248.09276 374.65625Q249.35838 374.51562 249.96776 374.29688Q249.96776 374.07812 249.96776 374.03125Q249.96776 373.375 249.67088 373.10938Q249.26463 372.76562 248.46776 372.76562Q247.73338 372.76562 247.37401 373.03125Q247.01463 373.28125 246.84276 373.9375L245.81151 373.79688Q245.95213 373.14062 246.28026 372.73438Q246.60838 372.32812 247.21776 372.10938Q247.82713 371.89062 248.62401 371.89062Q249.42088 371.89062 249.92088 372.07812Q250.42088 372.26562 250.65526 372.54688Q250.88963 372.82812 250.98338 373.26562Q251.03026 373.53125 251.03026 374.23438L251.03026 375.64062Q251.03026 377.10938 251.09276 377.5Q251.17088 377.89062 251.37401 378.25L250.26463 378.25Q250.10838 377.92188 250.06151 377.48438ZM249.96776 375.125Q249.38963 375.35938 248.24901 375.53125Q247.59276 375.625 247.32713 375.75Q247.06151 375.85938 246.90526 376.07812Q246.76463 376.29688 246.76463 376.57812Q246.76463 377.0 247.07713 377.28125Q247.40526 377.5625 248.01463 377.5625Q248.62401 377.5625 249.09276 377.29688Q249.57713 377.03125 249.79588 376.5625Q249.96776 376.20312 249.96776 375.51562L249.96776 375.125ZM252.96776 378.25L252.96776 369.65625L254.03026 369.65625L254.03026 378.25L252.96776 378.25Z" fill-rule="nonzero"/><path fill="#000000" d="M515.17285 378.25L511.84476 369.65625L513.0791 369.65625L515.3135 375.90625Q515.5791 376.65625 515.7666 377.3125Q515.9697 376.60938 516.23535 375.90625L518.54785 369.65625L519.7041 369.65625L516.3447 378.25L515.17285 378.25ZM519.5947 370.875L519.5947 369.65625L520.6572 369.65625L520.6572 370.875L519.5947 370.875ZM519.5947 378.25L519.5947 372.03125L520.6572 372.03125L520.6572 378.25L519.5947 378.25ZM522.5791 378.25L522.5791 372.03125L523.5322 372.03125L523.5322 372.96875Q523.8916 372.3125 524.1885 372.10938Q524.501 371.89062 524.876 371.89062Q525.4072 371.89062 525.9541 372.21875L525.5947 373.20312Q525.2041 372.96875 524.8291 372.96875Q524.4697 372.96875 524.1885 373.1875Q523.92285 373.39062 523.8135 373.76562Q523.626 374.32812 523.626 374.98438L523.626 378.25L522.5791 378.25ZM528.8916 377.3125L529.04785 378.23438Q528.5947 378.32812 528.251 378.32812Q527.67285 378.32812 527.36035 378.15625Q527.04785 377.96875 526.9072 377.67188Q526.7822 377.375 526.7822 376.42188L526.7822 372.84375L526.0166 372.84375L526.0166 372.03125L526.7822 372.03125L526.7822 370.48438L527.8291 369.85938L527.8291 372.03125L528.8916 372.03125L528.8916 372.84375L527.8291 372.84375L527.8291 376.48438Q527.8291 376.9375 527.876 377.0625Q527.9385 377.1875 528.0635 377.26562Q528.1885 377.34375 528.42285 377.34375Q528.61035 377.34375 528.8916 377.3125ZM533.67285 378.25L533.67285 377.32812Q532.9385 378.39062 531.6885 378.39062Q531.1416 378.39062 530.6572 378.1875Q530.1885 377.96875 529.9541 377.65625Q529.7197 377.32812 529.626 376.85938Q529.5635 376.5625 529.5635 375.875L529.5635 372.03125L530.626 372.03125L530.626 375.48438Q530.626 376.29688 530.6885 376.59375Q530.7822 377.0 531.0947 377.25Q531.42285 377.48438 531.9072 377.48438Q532.376 377.48438 532.7822 377.25Q533.2041 377.0 533.376 376.57812Q533.5635 376.15625 533.5635 375.35938L533.5635 372.03125L534.61035 372.03125L534.61035 378.25L533.67285 378.25ZM540.6572 377.48438Q540.0635 377.98438 539.5166 378.1875Q538.98535 378.39062 538.36035 378.39062Q537.3291 378.39062 536.7822 377.89062Q536.23535 377.39062 536.23535 376.60938Q536.23535 376.15625 536.4385 375.78125Q536.6416 375.39062 536.98535 375.17188Q537.3291 374.9375 537.751 374.82812Q538.04785 374.73438 538.6885 374.65625Q539.9541 374.51562 540.5635 374.29688Q540.5635 374.07812 540.5635 374.03125Q540.5635 373.375 540.2666 373.10938Q539.86035 372.76562 539.0635 372.76562Q538.3291 372.76562 537.9697 373.03125Q537.61035 373.28125 537.4385 373.9375L536.4072 373.79688Q536.54785 373.14062 536.876 372.73438Q537.2041 372.32812 537.8135 372.10938Q538.42285 371.89062 539.2197 371.89062Q540.0166 371.89062 540.5166 372.07812Q541.0166 372.26562 541.251 372.54688Q541.48535 372.82812 541.5791 373.26562Q541.626 373.53125 541.626 374.23438L541.626 375.64062Q541.626 377.10938 541.6885 377.5Q541.7666 377.89062 541.9697 378.25L540.86035 378.25Q540.7041 377.92188 540.6572 377.48438ZM540.5635 375.125Q539.98535 375.35938 538.8447 375.53125Q538.1885 375.625 537.92285 375.75Q537.6572 375.85938 537.501 376.07812Q537.36035 376.29688 537.36035 376.57812Q537.36035 377.0 537.67285 377.28125Q538.001 377.5625 538.61035 377.5625Q539.2197 377.5625 539.6885 377.29688Q540.17285 377.03125 540.3916 376.5625Q540.5635 376.20312 540.5635 375.51562L540.5635 375.125ZM543.5635 378.25L543.5635 369.65625L544.626 369.65625L544.626 378.25L543.5635 378.25Z" fill-rule="nonzero"/><path fill="#4285f4" d="M319.0 62.25C319.0 61.697716 319.44772 61.25 320.0 61.25L330.0 61.25C330.55228 61.25 331.0 61.697716 331.0 62.25L331.0 72.25C331.0 72.802284 330.55228 73.25 330.0 73.25L320.0 73.25C319.44772 73.25 319.0 72.802284 319.0 72.25Z" fill-rule="nonzero"/><path fill="#1a1a1a" d="M342.10938 71.25L342.10938 63.671875L339.28125 63.671875L339.28125 62.65625L346.09375 62.65625L346.09375 63.671875L343.25 63.671875L343.25 71.25L342.10938 71.25ZM353.0625 68.234375L354.1875 68.53125Q353.82812 69.921875 352.90625 70.65625Q351.98438 71.390625 350.64062 71.390625Q349.25 71.390625 348.375 70.828125Q347.5 70.265625 347.04688 69.203125Q346.59375 68.125 346.59375 66.890625Q346.59375 65.546875 347.10938 64.546875Q347.625 63.546875 348.5625 63.03125Q349.51562 62.515625 350.65625 62.515625Q351.9375 62.515625 352.8125 63.171875Q353.70312 63.828125 354.04688 65.015625L352.92188 65.28125Q352.625 64.34375 352.04688 63.921875Q351.48438 63.484375 350.625 63.484375Q349.64062 63.484375 348.96875 63.96875Q348.3125 64.4375 348.03125 65.234375Q347.76562 66.03125 347.76562 66.890625Q347.76562 67.984375 348.07812 68.796875Q348.40625 69.609375 349.07812 70.015625Q349.75 70.421875 350.54688 70.421875Q351.5 70.421875 352.15625 69.875Q352.82812 69.328125 353.0625 68.234375ZM355.92188 71.25L355.92188 62.65625L359.17188 62.65625Q360.01562 62.65625 360.46875 62.734375Q361.10938 62.84375 361.53125 63.140625Q361.96875 63.4375 362.21875 63.96875Q362.48438 64.5 362.48438 65.140625Q362.48438 66.234375 361.78125 67.0Q361.09375 67.75 359.26562 67.75L357.0625 67.75L357.0625 71.25L355.92188 71.25ZM357.0625 66.75L359.28125 66.75Q360.39062 66.75 360.84375 66.34375Q361.3125 65.921875 361.3125 65.171875Q361.3125 64.640625 361.03125 64.265625Q360.76562 63.875 360.32812 63.75Q360.03125 63.671875 359.26562 63.671875L357.0625 63.671875L357.0625 66.75Z" fill-rule="nonzero"/><path fill="#ea4335" d="M379.0 62.25C379.0 61.697716 379.44772 61.25 380.0 61.25L390.0 61.25C390.55228 61.25 391.0 61.697716 391.0 62.25L391.0 72.25C391.0 72.802284 390.55228 73.25 390.0 73.25L380.0 73.25C379.44772 73.25 379.0 72.802284 379.0 72.25Z" fill-rule="nonzero"/><path fill="#1a1a1a" d="M405.5625 62.65625L406.70312 62.65625L406.70312 67.625Q406.70312 68.921875 406.40625 69.6875Q406.10938 70.4375 405.34375 70.921875Q404.57812 71.390625 403.34375 71.390625Q402.14062 71.390625 401.35938 70.984375Q400.59375 70.5625 400.26562 69.78125Q399.9375 68.984375 399.9375 67.625L399.9375 62.65625L401.07812 62.65625L401.07812 67.609375Q401.07812 68.734375 401.28125 69.265625Q401.5 69.796875 402.0 70.09375Q402.51562 70.375 403.25 70.375Q404.5 70.375 405.03125 69.8125Q405.5625 69.234375 405.5625 67.609375L405.5625 62.65625ZM408.92188 71.25L408.92188 62.65625L411.89062 62.65625Q412.89062 62.65625 413.42188 62.78125Q414.15625 62.953125 414.67188 63.390625Q415.35938 63.96875 415.6875 64.875Q416.03125 65.765625 416.03125 66.90625Q416.03125 67.890625 415.79688 68.640625Q415.57812 69.390625 415.21875 69.890625Q414.85938 70.390625 414.42188 70.671875Q414.0 70.953125 413.40625 71.109375Q412.8125 71.25 412.03125 71.25L408.92188 71.25ZM410.0625 70.234375L411.89062 70.234375Q412.75 70.234375 413.23438 70.078125Q413.71875 69.921875 414.0 69.625Q414.40625 69.234375 414.625 68.546875Q414.85938 67.859375 414.85938 66.890625Q414.85938 65.546875 414.40625 64.828125Q413.96875 64.09375 413.34375 63.84375Q412.875 63.671875 411.875 63.671875L410.0625 63.671875L410.0625 70.234375ZM417.92188 71.25L417.92188 62.65625L421.17188 62.65625Q422.01562 62.65625 422.46875 62.734375Q423.10938 62.84375 423.53125 63.140625Q423.96875 63.4375 424.21875 63.96875Q424.48438 64.5 424.48438 65.140625Q424.48438 66.234375 423.78125 67.0Q423.09375 67.75 421.26562 67.75L419.0625 67.75L419.0625 71.25L417.92188 71.25ZM419.0625 66.75L421.28125 66.75Q422.39062 66.75 422.84375 66.34375Q423.3125 65.921875 423.3125 65.171875Q423.3125 64.640625 423.03125 64.265625Q422.76562 63.875 422.32812 63.75Q422.03125 63.671875 421.26562 63.671875L419.0625 63.671875L419.0625 66.75Z" fill-rule="nonzero"/><path fill="#757575" d="M220.45312 40.75L220.45312 26.4375L231.07812 26.4375L231.07812 28.859375L223.34375 28.859375L223.34375 32.03125L230.53125 32.03125L230.53125 34.4375L223.34375 34.4375L223.34375 38.34375L231.34375 38.34375L231.34375 40.75L220.45312 40.75ZM242.875 40.75L240.125 40.75L240.125 35.453125Q240.125 33.78125 239.95312 33.296875Q239.78125 32.796875 239.375 32.53125Q238.98438 32.25 238.42188 32.25Q237.71875 32.25 237.14062 32.640625Q236.57812 33.03125 236.35938 33.671875Q236.15625 34.3125 236.15625 36.046875L236.15625 40.75L233.42188 40.75L233.42188 30.375L235.96875 30.375L235.96875 31.90625Q237.32812 30.140625 239.39062 30.140625Q240.29688 30.140625 241.04688 30.46875Q241.79688 30.796875 242.17188 31.3125Q242.5625 31.8125 242.71875 32.46875Q242.875 33.109375 242.875 34.296875L242.875 40.75ZM245.4375 40.75L245.4375 26.4375L248.1875 26.4375L248.1875 40.75L245.4375 40.75ZM252.48438 33.546875L250.0 33.09375Q250.42188 31.59375 251.4375 30.875Q252.46875 30.140625 254.48438 30.140625Q256.32812 30.140625 257.21875 30.578125Q258.125 31.015625 258.48438 31.6875Q258.85938 32.34375 258.85938 34.140625L258.82812 37.34375Q258.82812 38.703125 258.95312 39.359375Q259.09375 40.0 259.45312 40.75L256.73438 40.75Q256.625 40.46875 256.46875 39.9375Q256.40625 39.6875 256.375 39.609375Q255.67188 40.296875 254.85938 40.640625Q254.0625 40.984375 253.15625 40.984375Q251.5625 40.984375 250.64062 40.125Q249.71875 39.25 249.71875 37.921875Q249.71875 37.03125 250.125 36.34375Q250.54688 35.65625 251.29688 35.296875Q252.0625 34.921875 253.5 34.65625Q255.42188 34.296875 256.15625 33.984375L256.15625 33.703125Q256.15625 32.921875 255.76562 32.59375Q255.375 32.25 254.29688 32.25Q253.5625 32.25 253.14062 32.53125Q252.73438 32.8125 252.48438 33.546875ZM256.15625 35.765625Q255.625 35.9375 254.48438 36.1875Q253.34375 36.4375 253.0 36.671875Q252.45312 37.046875 252.45312 37.640625Q252.45312 38.203125 252.875 38.625Q253.3125 39.046875 253.98438 39.046875Q254.71875 39.046875 255.39062 38.5625Q255.89062 38.1875 256.04688 37.65625Q256.15625 37.296875 256.15625 36.3125L256.15625 35.765625ZM270.48438 33.4375L267.78125 33.9375Q267.64062 33.125 267.15625 32.71875Q266.67188 32.296875 265.90625 32.296875Q264.875 32.296875 264.26562 33.015625Q263.65625 33.71875 263.65625 35.375Q263.65625 37.21875 264.26562 37.984375Q264.89062 38.75 265.9375 38.75Q266.71875 38.75 267.21875 38.3125Q267.71875 37.859375 267.92188 36.78125L270.60938 37.234375Q270.20312 39.09375 269.0 40.046875Q267.8125 40.984375 265.8125 40.984375Q263.53125 40.984375 262.17188 39.546875Q260.82812 38.109375 260.82812 35.578125Q260.82812 33.0 262.1875 31.578125Q263.54688 30.140625 265.85938 30.140625Q267.75 30.140625 268.85938 30.96875Q269.98438 31.78125 270.48438 33.4375ZM278.4375 37.453125L281.17188 37.90625Q280.65625 39.40625 279.51562 40.203125Q278.375 40.984375 276.67188 40.984375Q273.95312 40.984375 272.65625 39.21875Q271.64062 37.796875 271.64062 35.640625Q271.64062 33.0625 272.98438 31.609375Q274.32812 30.140625 276.39062 30.140625Q278.70312 30.140625 280.03125 31.671875Q281.375 33.203125 281.32812 36.359375L274.45312 36.359375Q274.48438 37.578125 275.10938 38.265625Q275.75 38.9375 276.6875 38.9375Q277.34375 38.9375 277.78125 38.59375Q278.21875 38.234375 278.4375 37.453125ZM278.59375 34.671875Q278.5625 33.484375 277.96875 32.875Q277.39062 32.25 276.5625 32.25Q275.65625 32.25 275.07812 32.890625Q274.48438 33.546875 274.5 34.671875L278.59375 34.671875ZM282.46875 37.796875L285.21875 37.375Q285.40625 38.171875 285.9375 38.59375Q286.46875 39.0 287.4375 39.0Q288.5 39.0 289.04688 38.609375Q289.40625 38.34375 289.40625 37.875Q289.40625 37.5625 289.20312 37.359375Q289.0 37.171875 288.29688 37.0Q284.96875 36.265625 284.07812 35.65625Q282.84375 34.828125 282.84375 33.328125Q282.84375 31.984375 283.90625 31.0625Q284.98438 30.140625 287.21875 30.140625Q289.34375 30.140625 290.375 30.84375Q291.42188 31.53125 291.8125 32.890625L289.21875 33.359375Q289.04688 32.765625 288.57812 32.4375Q288.125 32.109375 287.26562 32.109375Q286.1875 32.109375 285.71875 32.421875Q285.40625 32.640625 285.40625 32.96875Q285.40625 33.265625 285.67188 33.46875Q286.04688 33.75 288.23438 34.25Q290.42188 34.75 291.29688 35.46875Q292.15625 36.203125 292.15625 37.5Q292.15625 38.9375 290.96875 39.96875Q289.78125 40.984375 287.4375 40.984375Q285.32812 40.984375 284.07812 40.125Q282.84375 39.265625 282.46875 37.796875ZM309.95312 40.75L307.40625 40.75L307.40625 39.21875Q306.76562 40.109375 305.89062 40.546875Q305.03125 40.984375 304.15625 40.984375Q302.375 40.984375 301.09375 39.546875Q299.82812 38.109375 299.82812 35.53125Q299.82812 32.890625 301.0625 31.515625Q302.29688 30.140625 304.20312 30.140625Q305.9375 30.140625 307.20312 31.59375L307.20312 26.4375L309.95312 26.4375L309.95312 40.75ZM302.625 35.34375Q302.625 37.0 303.07812 37.734375Q303.75 38.8125 304.9375 38.8125Q305.89062 38.8125 306.54688 38.015625Q307.21875 37.203125 307.21875 35.609375Q307.21875 33.8125 306.5625 33.03125Q305.92188 32.25 304.92188 32.25Q303.9375 32.25 303.28125 33.03125Q302.625 33.796875 302.625 35.34375ZM318.4375 37.453125L321.17188 37.90625Q320.65625 39.40625 319.51562 40.203125Q318.375 40.984375 316.67188 40.984375Q313.95312 40.984375 312.65625 39.21875Q311.64062 37.796875 311.64062 35.640625Q311.64062 33.0625 312.98438 31.609375Q314.32812 30.140625 316.39062 30.140625Q318.70312 30.140625 320.03125 31.671875Q321.375 33.203125 321.32812 36.359375L314.45312 36.359375Q314.48438 37.578125 315.10938 38.265625Q315.75 38.9375 316.6875 38.9375Q317.34375 38.9375 317.78125 38.59375Q318.21875 38.234375 318.4375 37.453125ZM318.59375 34.671875Q318.5625 33.484375 317.96875 32.875Q317.39062 32.25 316.5625 32.25Q315.65625 32.25 315.07812 32.890625Q314.48438 33.546875 314.5 34.671875L318.59375 34.671875ZM328.89062 37.0625L331.625 36.78125Q331.73438 37.71875 332.3125 38.265625Q332.89062 38.796875 333.64062 38.796875Q334.5 38.796875 335.09375 38.109375Q335.70312 37.40625 335.70312 36.0Q335.70312 34.671875 335.10938 34.015625Q334.51562 33.359375 333.5625 33.359375Q332.39062 33.359375 331.45312 34.40625L329.21875 34.078125L330.625 26.625L337.89062 26.625L337.89062 29.203125L332.70312 29.203125L332.28125 31.625Q333.20312 31.171875 334.15625 31.171875Q335.98438 31.171875 337.25 32.5Q338.51562 33.828125 338.51562 35.9375Q338.51562 37.71875 337.5 39.09375Q336.09375 41.0 333.60938 41.0Q331.64062 41.0 330.39062 39.9375Q329.14062 38.859375 328.89062 37.0625ZM344.48438 26.375Q346.5625 26.375 347.73438 27.859375Q349.14062 29.609375 349.14062 33.6875Q349.14062 37.75 347.73438 39.53125Q346.5625 41.0 344.48438 41.0Q342.40625 41.0 341.125 39.390625Q339.84375 37.78125 339.84375 33.65625Q339.84375 29.609375 341.25 27.84375Q342.40625 26.375 344.48438 26.375ZM344.48438 28.65625Q343.98438 28.65625 343.59375 28.96875Q343.20312 29.28125 343.0 30.109375Q342.71875 31.171875 342.71875 33.6875Q342.71875 36.203125 342.96875 37.15625Q343.21875 38.09375 343.59375 38.40625Q343.98438 38.71875 344.48438 38.71875Q344.98438 38.71875 345.375 38.40625Q345.76562 38.078125 345.98438 37.265625Q346.26562 36.203125 346.26562 33.6875Q346.26562 31.171875 346.01562 30.234375Q345.76562 29.28125 345.375 28.96875Q344.98438 28.65625 344.48438 28.65625ZM355.48438 26.375Q357.5625 26.375 358.73438 27.859375Q360.14062 29.609375 360.14062 33.6875Q360.14062 37.75 358.73438 39.53125Q357.5625 41.0 355.48438 41.0Q353.40625 41.0 352.125 39.390625Q350.84375 37.78125 350.84375 33.65625Q350.84375 29.609375 352.25 27.84375Q353.40625 26.375 355.48438 26.375ZM355.48438 28.65625Q354.98438 28.65625 354.59375 28.96875Q354.20312 29.28125 354.0 30.109375Q353.71875 31.171875 353.71875 33.6875Q353.71875 36.203125 353.96875 37.15625Q354.21875 38.09375 354.59375 38.40625Q354.98438 38.71875 355.48438 38.71875Q355.98438 38.71875 356.375 38.40625Q356.76562 38.078125 356.98438 37.265625Q357.26562 36.203125 357.26562 33.6875Q357.26562 31.171875 357.01562 30.234375Q356.76562 29.28125 356.375 28.96875Q355.98438 28.65625 355.48438 28.65625ZM362.23438 30.375L364.76562 30.375L364.76562 31.796875Q366.125 30.140625 368.0 30.140625Q368.98438 30.140625 369.71875 30.5625Q370.45312 30.96875 370.92188 31.796875Q371.60938 30.96875 372.39062 30.5625Q373.1875 30.140625 374.09375 30.140625Q375.23438 30.140625 376.01562 30.609375Q376.8125 31.078125 377.20312 31.96875Q377.48438 32.640625 377.48438 34.125L377.48438 40.75L374.73438 40.75L374.73438 34.828125Q374.73438 33.28125 374.45312 32.828125Q374.07812 32.25 373.28125 32.25Q372.70312 32.25 372.1875 32.609375Q371.6875 32.953125 371.46875 33.625Q371.25 34.296875 371.25 35.765625L371.25 40.75L368.5 40.75L368.5 35.0625Q368.5 33.546875 368.34375 33.109375Q368.20312 32.671875 367.89062 32.46875Q367.59375 32.25 367.0625 32.25Q366.4375 32.25 365.92188 32.59375Q365.42188 32.921875 365.1875 33.578125Q364.96875 34.21875 364.96875 35.703125L364.96875 40.75L362.23438 40.75L362.23438 30.375ZM379.3125 40.75L379.3125 26.4375L382.0625 26.4375L382.0625 31.59375Q383.32812 30.140625 385.07812 30.140625Q386.96875 30.140625 388.20312 31.515625Q389.45312 32.890625 389.45312 35.453125Q389.45312 38.109375 388.1875 39.546875Q386.92188 40.984375 385.10938 40.984375Q384.21875 40.984375 383.35938 40.546875Q382.5 40.09375 381.875 39.21875L381.875 40.75L379.3125 40.75ZM382.04688 35.34375Q382.04688 36.953125 382.54688 37.71875Q383.26562 38.8125 384.45312 38.8125Q385.35938 38.8125 386.0 38.046875Q386.64062 37.265625 386.64062 35.59375Q386.64062 33.8125 385.98438 33.03125Q385.34375 32.25 384.34375 32.25Q383.35938 32.25 382.70312 33.015625Q382.04688 33.78125 382.04688 35.34375ZM391.35938 30.375L393.92188 30.375L393.92188 31.90625Q394.42188 31.125 395.26562 30.640625Q396.10938 30.140625 397.15625 30.140625Q398.95312 30.140625 400.20312 31.5625Q401.46875 32.96875 401.46875 35.5Q401.46875 38.109375 400.20312 39.546875Q398.9375 40.984375 397.125 40.984375Q396.26562 40.984375 395.5625 40.640625Q394.875 40.296875 394.10938 39.46875L394.10938 44.703125L391.35938 44.703125L391.35938 30.375ZM394.07812 35.390625Q394.07812 37.140625 394.76562 37.984375Q395.45312 38.8125 396.45312 38.8125Q397.40625 38.8125 398.04688 38.046875Q398.6875 37.265625 398.6875 35.53125Q398.6875 33.890625 398.03125 33.109375Q397.375 32.3125 396.40625 32.3125Q395.40625 32.3125 394.73438 33.09375Q394.07812 33.859375 394.07812 35.390625ZM402.46875 37.796875L405.21875 37.375Q405.40625 38.171875 405.9375 38.59375Q406.46875 39.0 407.4375 39.0Q408.5 39.0 409.04688 38.609375Q409.40625 38.34375 409.40625 37.875Q409.40625 37.5625 409.20312 37.359375Q409.0 37.171875 408.29688 37.0Q404.96875 36.265625 404.07812 35.65625Q402.84375 34.828125 402.84375 33.328125Q402.84375 31.984375 403.90625 31.0625Q404.98438 30.140625 407.21875 30.140625Q409.34375 30.140625 410.375 30.84375Q411.42188 31.53125 411.8125 32.890625L409.21875 33.359375Q409.04688 32.765625 408.57812 32.4375Q408.125 32.109375 407.26562 32.109375Q406.1875 32.109375 405.71875 32.421875Q405.40625 32.640625 405.40625 32.96875Q405.40625 33.265625 405.67188 33.46875Q406.04688 33.75 408.23438 34.25Q410.42188 34.75 411.29688 35.46875Q412.15625 36.203125 412.15625 37.5Q412.15625 38.9375 410.96875 39.96875Q409.78125 40.984375 407.4375 40.984375Q405.32812 40.984375 404.07812 40.125Q402.84375 39.265625 402.46875 37.796875ZM420.125 36.9375L420.125 34.1875L425.51562 34.1875L425.51562 36.9375L420.125 36.9375ZM438.875 40.75L436.125 40.75L436.125 30.40625Q434.625 31.8125 432.57812 32.484375L432.57812 30.0Q433.65625 29.640625 434.90625 28.671875Q436.17188 27.6875 436.64062 26.375L438.875 26.375L438.875 40.75ZM442.89062 37.0625L445.625 36.78125Q445.73438 37.71875 446.3125 38.265625Q446.89062 38.796875 447.64062 38.796875Q448.5 38.796875 449.09375 38.109375Q449.70312 37.40625 449.70312 36.0Q449.70312 34.671875 449.10938 34.015625Q448.51562 33.359375 447.5625 33.359375Q446.39062 33.359375 445.45312 34.40625L443.21875 34.078125L444.625 26.625L451.89062 26.625L451.89062 29.203125L446.70312 29.203125L446.28125 31.625Q447.20312 31.171875 448.15625 31.171875Q449.98438 31.171875 451.25 32.5Q452.51562 33.828125 452.51562 35.9375Q452.51562 37.71875 451.5 39.09375Q450.09375 41.0 447.60938 41.0Q445.64062 41.0 444.39062 39.9375Q443.14062 38.859375 442.89062 37.0625ZM458.48438 26.375Q460.5625 26.375 461.73438 27.859375Q463.14062 29.609375 463.14062 33.6875Q463.14062 37.75 461.73438 39.53125Q460.5625 41.0 458.48438 41.0Q456.40625 41.0 455.125 39.390625Q453.84375 37.78125 453.84375 33.65625Q453.84375 29.609375 455.25 27.84375Q456.40625 26.375 458.48438 26.375ZM458.48438 28.65625Q457.98438 28.65625 457.59375 28.96875Q457.20312 29.28125 457.0 30.109375Q456.71875 31.171875 456.71875 33.6875Q456.71875 36.203125 456.96875 37.15625Q457.21875 38.09375 457.59375 38.40625Q457.98438 38.71875 458.48438 38.71875Q458.98438 38.71875 459.375 38.40625Q459.76562 38.078125 459.98438 37.265625Q460.26562 36.203125 460.26562 33.6875Q460.26562 31.171875 460.01562 30.234375Q459.76562 29.28125 459.375 28.96875Q458.98438 28.65625 458.48438 28.65625ZM469.48438 26.375Q471.5625 26.375 472.73438 27.859375Q474.14062 29.609375 474.14062 33.6875Q474.14062 37.75 472.73438 39.53125Q471.5625 41.0 469.48438 41.0Q467.40625 41.0 466.125 39.390625Q464.84375 37.78125 464.84375 33.65625Q464.84375 29.609375 466.25 27.84375Q467.40625 26.375 469.48438 26.375ZM469.48438 28.65625Q468.98438 28.65625 468.59375 28.96875Q468.20312 29.28125 468.0 30.109375Q467.71875 31.171875 467.71875 33.6875Q467.71875 36.203125 467.96875 37.15625Q468.21875 38.09375 468.59375 38.40625Q468.98438 38.71875 469.48438 38.71875Q469.98438 38.71875 470.375 38.40625Q470.76562 38.078125 470.98438 37.265625Q471.26562 36.203125 471.26562 33.6875Q471.26562 31.171875 471.01562 30.234375Q470.76562 29.28125 470.375 28.96875Q469.98438 28.65625 469.48438 28.65625ZM482.42188 40.75L482.42188 26.4375L486.75 26.4375L489.34375 36.203125L491.90625 26.4375L496.25 26.4375L496.25 40.75L493.5625 40.75L493.5625 29.484375L490.71875 40.75L487.9375 40.75L485.10938 29.484375L485.10938 40.75L482.42188 40.75ZM502.67188 40.75L502.67188 28.859375L498.4375 28.859375L498.4375 26.4375L509.8125 26.4375L509.8125 28.859375L505.5625 28.859375L505.5625 40.75L502.67188 40.75ZM512.4375 26.4375L515.3281 26.4375L515.3281 34.1875Q515.3281 36.03125 515.4375 36.578125Q515.625 37.453125 516.3125 37.984375Q517.0156 38.515625 518.2344 38.515625Q519.4531 38.515625 520.0781 38.015625Q520.7031 37.515625 520.8281 36.78125Q520.96875 36.046875 520.96875 34.359375L520.96875 26.4375L523.8594 26.4375L523.8594 33.953125Q523.8594 36.53125 523.625 37.59375Q523.3906 38.65625 522.75 39.390625Q522.125 40.125 521.0625 40.5625Q520.0156 41.0 518.3125 41.0Q516.2656 41.0 515.2031 40.53125Q514.1406 40.046875 513.53125 39.296875Q512.9219 38.53125 512.71875 37.703125Q512.4375 36.46875 512.4375 34.0625L512.4375 26.4375Z" fill-rule="nonzero"/></svg>